<svg width="36" height="37" viewBox="0 0 36 37" fill="none" xmlns="http://www.w3.org/2000/svg">
<g clip-path="url(#clip0_8_297)">
<path d="M36 22.7468C36.029 22.136 35.8404 21.5978 35.5358 21.0888C35.2167 20.5361 34.7671 20.0853 34.2594 19.6926C33.2006 18.9072 32.0257 18.4127 30.7784 18.1073C30.4158 18.02 30.0676 17.9473 29.6905 17.8746C29.5165 17.8455 29.3279 17.8164 29.1539 17.7873C28.1821 17.6564 27.3698 17.351 26.6301 16.6965C26.6011 16.6674 26.5576 16.6383 26.5286 16.6092C26.224 16.3184 25.8904 16.0566 25.5568 15.7948C24.8461 15.2712 24.0773 14.8349 23.2361 14.5004C22.5689 14.2386 21.8871 14.064 21.2054 13.9331C20.8428 13.875 20.4802 13.8168 20.1176 13.7877C19.4939 13.7295 18.8557 13.7004 18.2175 13.7004C17.8259 13.7004 17.4343 13.7004 17.0572 13.7004H15.9693C14.5189 13.7004 13.0685 13.7004 11.618 13.7004H3.94517C3.82913 13.7004 3.71309 13.7004 3.59706 13.7004C3.24895 13.7441 3.04589 13.9622 3.01688 14.3113C2.98787 14.6313 3.23445 14.9221 3.58255 14.9658C3.71309 14.9803 3.84363 14.9658 3.97417 14.9658H11.6035C13.0539 14.9658 14.5044 14.9658 15.9548 14.9658C16.3174 14.9658 16.6801 14.9658 17.0427 14.9658H17.7244C18.4786 14.9658 19.2328 14.9658 19.9871 15.053C20.0306 15.053 20.0741 15.053 20.1031 15.053C20.4657 15.0821 20.8283 15.1403 21.1909 15.213C22.4818 15.4748 23.6712 15.9693 24.7445 16.7983C25.0056 17.0019 25.2667 17.2056 25.5278 17.4237C25.9919 17.7873 26.4415 18.1655 26.8912 18.5436C27.0652 18.689 27.2248 18.7618 27.4569 18.7908C28.5012 18.9072 29.5455 19.0672 30.5608 19.3581C30.8654 19.4453 31.17 19.5471 31.4746 19.6489C32.5044 20.0271 33.4762 20.4925 34.1869 21.3651C34.4625 21.6997 34.7091 22.0487 34.7091 22.4996C34.7091 23.2559 34.7091 24.0122 34.7091 24.7684C34.7091 25.2193 34.4625 25.452 34.0129 25.4666C33.6067 25.4666 33.1861 25.4666 32.78 25.4666C32.5334 25.4811 32.4174 25.4084 32.3594 25.1466C31.8952 23.4158 30.4158 22.2814 28.6752 22.2814C26.9492 22.2814 25.4697 23.4304 25.0201 25.132C24.9476 25.4084 24.8315 25.4666 24.5705 25.4666C20.9734 25.4666 17.3908 25.4666 13.7937 25.4666C13.5326 25.4666 13.4166 25.4084 13.344 25.132C12.8799 23.4159 11.4149 22.2814 9.68892 22.2814C7.94839 22.2814 6.46894 23.4158 6.0048 25.1466C5.93227 25.4084 5.83074 25.4666 5.58417 25.4666C4.72841 25.4666 3.87264 25.4666 3.00238 25.4666C2.52373 25.4666 2.24815 25.6993 2.23364 26.0774C2.23364 26.4701 2.50923 26.7319 3.00238 26.7319C3.87264 26.7319 4.74291 26.7319 5.61318 26.7319C5.83074 26.7319 5.91777 26.7755 5.99029 27.0082C6.46894 28.7826 7.93388 29.917 9.68892 29.917C11.4295 29.917 12.8799 28.7826 13.3585 27.0228C13.4166 26.8046 13.4891 26.7319 13.7212 26.7319C17.3618 26.7319 21.0169 26.7319 24.6575 26.7319C24.8896 26.7319 24.9621 26.8046 25.0201 27.0228C25.1797 27.7209 25.5423 28.3172 26.0499 28.8262C28.095 30.8333 31.5616 29.917 32.3448 27.1537C32.4464 26.8046 32.5769 26.6883 32.925 26.7173C33.2876 26.761 33.6647 26.7173 34.0274 26.7173C35.1587 26.7173 35.971 25.9029 35.9855 24.7684C35.9855 24.0849 35.971 23.3868 35.9855 22.7032L36 22.7468ZM9.64541 28.6662C8.25298 28.6662 7.12164 27.4882 7.13614 26.0774C7.15065 24.6957 8.2965 23.5758 9.68892 23.5758C11.0813 23.5758 12.2272 24.7248 12.2127 26.1356C12.2127 27.5318 11.0523 28.6662 9.64541 28.6662ZM28.7187 28.6662C27.3118 28.6662 26.166 27.5318 26.166 26.1356C26.166 24.7248 27.2973 23.5904 28.7042 23.5904C30.0822 23.5904 31.228 24.7248 31.2425 26.1065C31.2425 27.5173 30.1257 28.6662 28.7187 28.6808V28.6662Z" fill="white"/>
<path d="M18.4496 20.2452C16.7671 20.2452 15.0991 20.2452 13.4166 20.2452C13.0975 20.2452 12.8509 20.1434 12.7204 19.8234C12.6188 19.5762 12.6769 19.358 12.8509 19.169C13.025 18.9799 13.2715 18.9653 13.5036 18.9653C16.5931 18.9653 19.6825 18.9653 22.7719 18.9653C23.5407 18.9653 24.2369 18.8926 24.8171 18.3109C25.0636 18.0636 25.4408 18.1218 25.6728 18.3836C25.9049 18.6454 25.9049 18.9944 25.6293 19.2708C25.0056 19.8962 24.2369 20.2307 23.3521 20.2307C21.7131 20.2307 20.0741 20.2307 18.4496 20.2307V20.2452Z" fill="white"/>
<path d="M4.23529 16.9001C5.35214 16.9001 6.48348 16.9001 7.60032 16.9001C8.10798 16.9001 8.38356 17.1329 8.39807 17.5401C8.39807 17.9328 8.10798 18.18 7.61483 18.18C5.33763 18.18 3.07494 18.18 0.797744 18.18C0.290089 18.18 0 17.9328 0 17.5401C0 17.1474 0.290089 16.9001 0.783239 16.9001C1.92909 16.9001 3.07494 16.9001 4.23529 16.9001Z" fill="white"/>
<path d="M23.1346 33.5966C22.0178 33.5966 20.8864 33.5966 19.7696 33.5966C19.2764 33.5966 18.9863 33.3639 18.9863 32.9567C18.9863 32.564 19.2764 32.3168 19.7696 32.3168C22.0468 32.3168 24.3095 32.3168 26.5867 32.3168C27.0798 32.3168 27.3699 32.5495 27.3699 32.9567C27.3699 33.3494 27.0798 33.5966 26.5867 33.5966C25.4408 33.5966 24.295 33.5966 23.1346 33.5966Z" fill="white"/>
<path d="M15.9259 33.5966C15.5197 33.5966 15.1136 33.5966 14.693 33.5966C14.2288 33.5966 13.9532 33.3348 13.9532 32.9567C13.9532 32.5785 14.2288 32.3313 14.6785 32.3313C15.5197 32.3313 16.3755 32.3313 17.2167 32.3313C17.6519 32.3313 17.9275 32.5931 17.913 32.9712C17.913 33.3494 17.6374 33.5821 17.1877 33.5966C16.7671 33.5966 16.3465 33.5966 15.9259 33.5966Z" fill="white"/>
<path d="M19.6535 37C18.5367 37 17.4053 37 16.2885 37C15.7953 37 15.5052 36.7673 15.5052 36.36C15.5052 35.9673 15.7953 35.7201 16.2885 35.7201C18.5657 35.7201 20.8284 35.7201 23.1056 35.7201C23.5987 35.7201 23.8888 35.9528 23.8888 36.36C23.8888 36.7527 23.5987 37 23.1056 37C21.9597 37 20.8139 37 19.6535 37Z" fill="white"/>
<path d="M11.618 9.90454V11.1553C11.618 11.4607 11.3714 11.6935 11.0813 11.6935C10.7767 11.6935 10.5447 11.4462 10.5447 11.1553C10.5447 10.8644 10.5447 10.6026 10.5447 9.96271C10.5447 9.83182 10.5447 9.70092 10.5447 9.57002C10.5882 9.27914 10.7477 9.10461 11.0378 9.10461C11.3279 9.10461 11.2844 9.1337 11.3859 9.20642C11.6325 9.38095 11.618 9.65729 11.618 9.91908V9.90454Z" fill="white"/>
<path d="M13.17 4.68319C13.0395 4.97408 12.7929 5.01771 12.5173 5.00316C12.3432 5.00316 12.1547 5.01771 11.9806 5.00316C11.676 4.97408 11.618 5.10497 11.618 5.36676C11.6325 6.03579 11.618 5.81763 11.618 6.48665C11.618 6.79208 11.618 7.11205 11.618 7.41747C11.6035 7.75198 11.3714 7.98469 11.0814 7.98469C10.7913 7.98469 10.5737 7.76653 10.5447 7.41747C10.5447 7.31566 10.5447 7.19931 10.5447 7.0975V4.82864C10.5447 4.0578 10.5882 3.99963 11.3569 3.86873C11.3279 3.8251 11.3134 3.78147 11.2844 3.75238C10.5882 3.01063 9.87749 2.26889 9.19578 1.5126C9.05073 1.35261 8.96371 1.3817 8.83317 1.5126C8.19497 2.19617 7.55678 2.87974 6.91858 3.5633C6.83156 3.65057 6.70102 3.70875 6.70102 3.86873C7.41173 3.95599 7.49876 4.0578 7.49876 4.79955C7.49876 7.49019 7.49876 8.65371 7.49876 11.1407C7.49876 11.4462 7.25218 11.6789 6.96209 11.6789C6.6575 11.6789 6.42543 11.4316 6.42543 11.1407C6.42543 9.06095 6.42543 8.26103 6.42543 5.94853C6.42543 5.6431 6.55597 5.25041 6.35291 5.0468C6.16435 4.85772 5.77273 5.00316 5.48264 4.98862C5.45363 4.98862 5.43913 4.98862 5.41012 4.98862C5.16355 4.98862 4.96048 4.88681 4.85895 4.65411C4.77193 4.4214 4.82994 4.20324 5.004 4.02871C6.16435 2.77793 7.35371 1.49805 8.55758 0.232723C8.86218 -0.0872455 9.13776 -0.0727015 9.45686 0.232723C9.70343 0.494515 9.95001 0.756308 10.1966 1.0181C11.1104 2.00709 12.0386 2.98154 12.9669 3.95599C13.1555 4.15961 13.3005 4.36323 13.17 4.66865V4.68319Z" fill="white"/>
<path d="M22.2498 7.86828C22.0322 7.86828 21.8146 7.89737 21.5971 7.86828C21.2635 7.82465 21.1765 7.941 21.1765 8.27551C21.1765 9.64265 21.1765 10.1662 21.1765 11.2861C21.1765 12.406 20.9009 11.8679 20.5673 11.8243C20.2917 11.7952 20.0886 11.5625 20.0886 11.2861C20.0886 9.87535 20.0886 9.23542 20.0886 7.65012C20.0886 6.93746 20.1902 6.82111 20.9589 6.76293C20.1756 5.91938 19.4214 5.134 18.6817 4.33408C18.5947 4.24682 18.5366 4.24682 18.4496 4.33408C17.7099 5.134 16.9557 5.91938 16.2159 6.7193C16.274 6.82111 16.361 6.79202 16.419 6.79202C16.8396 6.82111 17.0282 7.01018 17.0282 7.43196C17.0282 8.11553 17.0282 8.7991 17.0282 9.48266C17.0282 10.1662 17.0282 10.5298 17.0282 11.1407C17.0282 11.7515 16.7816 11.6788 16.4915 11.6788C16.2014 11.6788 15.9549 11.4316 15.9549 11.1407C15.9549 10.0208 15.9549 9.56993 15.9549 8.23188C15.9549 7.95554 15.8968 7.82465 15.6068 7.86828C15.4037 7.89737 15.2006 7.86828 14.9976 7.86828C14.7365 7.86828 14.5189 7.8101 14.4029 7.54831C14.2868 7.28652 14.3884 7.06836 14.5769 6.86474C15.1426 6.26844 15.6938 5.67213 16.2449 5.07583C16.8541 4.42134 17.4778 3.76686 18.1015 3.11238C18.3771 2.83605 18.6672 2.76333 18.8993 2.99603C20.1756 4.31954 21.4375 5.65759 22.6704 7.01018C22.975 7.34469 22.7139 7.82465 22.2498 7.85373V7.86828Z" fill="white"/>
<path d="M32.3158 10.1227C32.2143 10.3408 32.0402 10.4426 31.8082 10.4572C31.5616 10.4572 31.3005 10.4572 31.0539 10.4572C30.8364 10.4426 30.7638 10.5299 30.7638 10.7481C30.7638 11.3007 30.7638 15.1695 30.7638 15.7221C30.7638 16.0566 30.5318 16.2893 30.2272 16.2893C29.9371 16.2893 29.6905 16.0712 29.6905 15.7367C29.6905 14.9077 29.6905 10.7626 29.6905 9.9336C29.6905 9.59909 29.8936 9.41002 30.2417 9.38093C30.3287 9.38093 30.4302 9.4391 30.5028 9.30821C29.763 8.52283 29.0233 7.73745 28.2981 6.93753C28.153 6.77755 28.0805 6.87935 27.9935 6.98116C27.2828 7.73745 26.5721 8.49374 25.8758 9.25003C25.8468 9.27912 25.8178 9.32275 25.8468 9.38093C26.5285 9.42456 26.6446 9.54091 26.6446 10.239C26.6446 11.3444 26.6446 12.4352 26.6446 13.5405C26.6446 14.6459 26.1224 14.2386 25.7743 13.9623C25.6438 13.8605 25.5712 13.715 25.5712 13.5405C25.5712 12.8279 25.5712 12.1152 25.5712 11.4025C25.5712 11.1117 25.6583 10.7335 25.5132 10.559C25.3392 10.3554 24.9476 10.5154 24.6575 10.4863C24.6285 10.4863 24.5849 10.4863 24.5414 10.4863C24.3094 10.4863 24.1208 10.3845 24.0193 10.1808C23.9177 9.94814 23.9613 9.72998 24.1353 9.55546C25.3392 8.26104 26.543 6.98116 27.7614 5.68674C28.0225 5.41041 28.3416 5.41041 28.5882 5.68674C29.8065 6.98116 31.0249 8.27558 32.2433 9.57C32.4028 9.74453 32.4609 9.94814 32.3593 10.1663L32.3158 10.1227Z" fill="white"/>
</g>
<defs>
<clipPath id="clip0_8_297">
<rect width="36" height="37" fill="white"/>
</clipPath>
</defs>
</svg>
