<svg width="39" height="39" viewBox="0 0 39 39" fill="none" xmlns="http://www.w3.org/2000/svg">
<g clip-path="url(#clip0_8_296)">
<path d="M39 7.81728C38.8417 8.43747 38.7554 9.08651 38.5107 9.67786C38.007 10.9038 37.2443 11.9423 36.1793 12.7211C35.9347 12.8942 35.8771 13.0817 35.8771 13.3557C35.8771 21.274 35.8771 29.1779 35.8771 37.0961C35.8771 37.9038 35.5749 38.4952 34.841 38.8557C34.5387 39 34.2077 39 33.8768 39C26.969 39 20.0613 39 13.1535 39C9.44059 39 5.71328 39 2.00037 39C0.647601 39 0 38.3509 0 36.9952C0 26.7692 0 16.5577 0 6.34613C0 5.0192 0.647601 4.35574 1.98598 4.35574C9.62767 4.35574 17.2694 4.35574 24.9111 4.35574C25.2565 4.35574 25.4435 4.28363 25.6018 3.93747C25.976 3.08651 26.5517 2.37978 27.2424 1.77401C27.631 1.42786 27.9476 1.39901 28.2066 1.67305C28.4513 1.94709 28.3793 2.27882 28.0196 2.62497C26.2638 4.26921 25.6018 6.28844 26.2207 8.61055C26.8395 10.9182 28.3937 12.3606 30.7107 12.8942C33.9055 13.6298 37.1148 11.4663 37.7624 8.17786C38.3812 5.00478 36.2081 1.81728 33.0565 1.24036C32.1498 1.08171 31.2576 1.11055 30.3797 1.34132C29.9192 1.45671 29.617 1.34132 29.5306 0.96632C29.4443 0.620167 29.6458 0.360551 30.1207 0.230744C34.1934 -0.879833 38.3812 1.8894 38.9424 6.05767C38.9424 6.15863 38.9856 6.25959 39.0144 6.34613V7.80286L39 7.81728ZM25.9616 10.9615C25.7601 10.5432 25.5443 10.1827 25.4004 9.79324C25.314 9.56247 25.1989 9.49036 24.9542 9.49036C17.1399 9.49036 9.31107 9.49036 1.49668 9.49036C1.18007 9.49036 1.12251 9.59132 1.12251 9.87978C1.12251 18.9375 1.12251 27.9952 1.12251 37.0529C1.12251 37.673 1.2952 37.8461 1.91402 37.8461C12.5923 37.8461 23.2705 37.8461 33.9487 37.8461C34.5387 37.8461 34.7258 37.6586 34.7258 37.0673C34.7258 29.3509 34.7258 21.649 34.7258 13.9327C34.7258 13.8317 34.7546 13.7163 34.6683 13.6009C34.1934 13.8029 33.7041 13.9904 33.2148 14.0336C32.7974 14.0625 32.7542 14.2644 32.7542 14.6106C32.7542 18.8509 32.7542 23.0913 32.7542 27.3173C32.7542 28.3702 32.3801 28.7452 31.3439 28.7452C25.0838 28.7452 18.8236 28.7452 12.5635 28.7452C12.4339 28.7452 12.3044 28.7452 12.1893 28.7452C11.8583 28.7163 11.6712 28.5288 11.6568 28.2115C11.6424 27.8798 11.8295 27.6779 12.1461 27.6346C12.29 27.6057 12.4483 27.6202 12.6066 27.6202C18.8092 27.6202 24.9974 27.6202 31.2 27.6202C31.459 27.6202 31.6461 27.649 31.6461 27.2596C31.6317 22.9904 31.6461 18.7356 31.6461 14.4663C31.6461 14.2356 31.5886 14.149 31.3439 14.1202C29.7465 13.9759 28.3649 13.3557 27.1705 12.274C27.0266 12.1442 26.897 12.0721 26.71 12.0721C19.3417 12.0721 11.9878 12.0721 4.61956 12.0721C4.34613 12.0721 4.28856 12.1586 4.28856 12.4182C4.28856 17.3509 4.28856 22.2981 4.28856 27.2307C4.28856 27.5481 4.40369 27.6057 4.67712 27.5913C5.90037 27.5913 7.10923 27.5913 8.33247 27.5913C8.73542 27.5913 9.13838 27.5913 9.55572 27.5913C9.95867 27.5913 10.1745 27.8221 10.1745 28.1682C10.1745 28.5144 9.95867 28.7307 9.55572 28.7307C7.78561 28.7307 6.02989 28.7307 4.25978 28.7307C3.59779 28.7307 3.16605 28.2692 3.15166 27.6202C3.15166 27.5625 3.15166 27.4904 3.15166 27.4327C3.15166 22.3702 3.15166 17.3077 3.15166 12.2452C3.15166 11.3654 3.58339 10.9471 4.46125 10.9471C4.56199 10.9471 4.66273 10.9471 4.76347 10.9471C11.6856 10.9471 18.6077 10.9471 25.5155 10.9471H25.9904L25.9616 10.9615ZM13.0384 8.36536C16.1037 8.36536 19.1546 8.36536 22.2199 8.36536C23.0258 8.36536 23.8173 8.36536 24.6232 8.36536C24.8679 8.36536 24.983 8.36536 24.9255 8.04805C24.8103 7.38459 24.8247 6.7067 24.9255 6.02882C25.0262 5.3942 25.0118 5.49517 24.4793 5.49517C17.0103 5.49517 9.55572 5.49517 2.08672 5.49517C2.00037 5.49517 1.91402 5.49517 1.81328 5.49517C1.30959 5.50959 1.12251 5.69709 1.12251 6.18747C1.12251 6.77882 1.15129 7.35574 1.12251 7.94709C1.10812 8.29324 1.20886 8.36536 1.53985 8.36536C5.3679 8.36536 9.21033 8.36536 13.0384 8.36536Z" fill="white"/>
<path d="M31.934 11.7837C31.603 11.7837 31.3439 11.524 31.3727 11.149C31.4159 10.7019 31.272 10.5 30.8258 10.399C30.3941 10.2981 30.0199 10.024 29.7033 9.70674C29.3723 9.38943 29.3435 9.07212 29.5882 8.8125C29.8328 8.55289 30.1494 8.56731 30.4948 8.88462C31.0561 9.38943 31.7037 9.6202 32.452 9.46154C32.6535 9.41827 32.8262 9.31731 32.9845 9.1875C33.4162 8.79808 33.3875 8.3077 32.9125 7.96154C32.5384 7.70193 32.1066 7.60097 31.6893 7.45674C31.3295 7.34135 30.9697 7.19712 30.6531 6.98077C30.0775 6.5625 29.7465 6.01443 29.8185 5.29327C29.8904 4.52885 30.3221 3.9952 31.0417 3.73558C31.3007 3.63462 31.4015 3.51924 31.3727 3.2452C31.3727 3.14424 31.3727 3.04327 31.3727 2.94231C31.4015 2.63943 31.5742 2.45193 31.8908 2.42308C32.2218 2.39424 32.5096 2.58174 32.4664 2.88462C32.3801 3.54808 32.783 3.70674 33.2723 3.85097C33.5458 3.9375 33.776 4.09616 33.9919 4.26924C34.2509 4.48558 34.2941 4.80289 34.1358 5.04808C33.9487 5.32212 33.6321 5.37981 33.3299 5.19231C32.8982 4.90385 32.452 4.6875 31.9196 4.70193C31.7757 4.70193 31.6173 4.73077 31.4734 4.77404C31.2 4.86058 31.0129 5.04808 30.9554 5.33654C30.8978 5.625 31.0561 5.85577 31.2864 6.01443C31.531 6.1875 31.8044 6.28847 32.0779 6.375C32.5096 6.51924 32.9413 6.66347 33.3299 6.90866C33.9919 7.3125 34.4812 7.84616 34.4092 8.69712C34.3373 9.57693 33.8192 10.1539 33.0277 10.4423C32.6247 10.5865 32.4376 10.7452 32.4808 11.1923C32.5096 11.5385 32.2218 11.7837 31.9196 11.7837H31.934Z" fill="white"/>
<path d="M26.0336 33.8654C24.0477 33.8654 22.0473 33.8654 20.0613 33.8654C19.8167 33.8654 19.7015 33.8942 19.6871 34.1827C19.6871 34.5144 19.4569 34.7163 19.1115 34.7163C18.7805 34.7163 18.579 34.5144 18.579 34.1971C18.579 33.9086 18.4495 33.8798 18.2192 33.8798C16.2333 33.8798 14.2329 33.8798 12.2469 33.8798C12.1318 33.8798 12.0167 33.8798 11.9015 33.8798C11.6137 33.8221 11.4266 33.649 11.4122 33.3317C11.4122 33.0144 11.5705 32.8269 11.8727 32.7548C11.9879 32.7259 12.1318 32.7404 12.2469 32.7404C14.2329 32.7404 16.2045 32.7404 18.1905 32.7404C18.4351 32.7404 18.5934 32.7404 18.579 32.4086C18.579 32.1057 18.7805 31.9182 19.0827 31.8894C19.4137 31.8605 19.6584 32.048 19.6727 32.3509C19.6871 32.7115 19.8598 32.7259 20.1477 32.7259C24.062 32.7259 27.962 32.7259 31.8764 32.7259C32.006 32.7259 32.1355 32.7259 32.2506 32.7259C32.5672 32.7836 32.7543 32.9711 32.7543 33.3028C32.7543 33.6346 32.5528 33.8077 32.2362 33.8654C32.1211 33.8798 32.006 33.8654 31.8908 33.8654C29.9336 33.8654 27.9764 33.8654 26.0336 33.8654Z" fill="white"/>
<path d="M12.7362 22.0384C12.3332 22.0384 11.9303 22.0384 11.5129 22.0384C11.3259 22.0384 11.2395 22.0961 11.1819 22.2692C11.0812 22.5576 10.9805 22.8461 10.8653 23.1201C10.707 23.5096 10.4192 23.6538 10.0882 23.5384C9.77161 23.423 9.65648 23.1057 9.80039 22.7019C10.448 20.9711 11.11 19.2403 11.772 17.5096C11.8727 17.2499 11.9735 16.9903 12.0742 16.7307C12.1893 16.399 12.4052 16.1826 12.765 16.1682C13.1391 16.1682 13.355 16.3846 13.4845 16.7307C14.1897 18.6201 14.9093 20.5096 15.6144 22.399C15.672 22.5432 15.7295 22.6874 15.7727 22.8317C15.8591 23.1634 15.7008 23.4519 15.4273 23.5384C15.1251 23.6394 14.8517 23.5096 14.7078 23.2067C14.5783 22.9038 14.4631 22.6009 14.3624 22.2836C14.3048 22.0961 14.2041 22.024 14.0026 22.0384C13.5853 22.0384 13.1679 22.0384 12.7506 22.0384H12.7362ZM12.7794 18.1009C12.4052 19.0817 12.0742 19.9615 11.7288 20.8701H13.8299C13.4845 19.9615 13.1535 19.0817 12.7938 18.1009H12.7794Z" fill="white"/>
<path d="M21.3853 19.9615C21.3853 20.899 21.3853 21.8365 21.3853 22.7884C21.3853 23.0913 21.3277 23.3653 21.0111 23.4807C20.7089 23.5961 20.4643 23.4951 20.2916 23.2211C20.1764 23.0192 20.0757 23.2067 19.9894 23.25C18.4063 24.0288 16.5786 23.1201 16.2908 21.3894C16.1181 20.3798 16.4635 19.5432 17.255 18.9375C18.0465 18.3173 18.9532 18.2163 19.8742 18.6346C20.234 18.7932 20.2628 18.7067 20.2484 18.3894C20.234 17.9567 20.2484 17.524 20.2484 17.0913C20.2484 16.6875 20.4643 16.4567 20.7953 16.4423C21.1406 16.4423 21.3853 16.673 21.3853 17.0913C21.3853 18.0576 21.3853 19.024 21.3853 19.9903V19.9615ZM18.8093 22.3701C19.6008 22.3701 20.2484 21.7211 20.234 20.9423C20.234 20.1778 19.6008 19.5288 18.8237 19.5144C18.0465 19.5144 17.3846 20.149 17.3702 20.9278C17.3702 21.7067 18.0178 22.3701 18.7949 22.3701H18.8093Z" fill="white"/>
<path d="M6.23143 36.3894C4.51888 36.3894 3.13733 34.9904 3.13733 33.2885C3.13733 31.5577 4.54766 30.1731 6.2746 30.1875C7.97275 30.1875 9.3687 31.6154 9.3543 33.3173C9.33991 35.0336 7.94397 36.4038 6.23143 36.4038V36.3894ZM6.26021 35.25C7.33954 35.25 8.23179 34.3558 8.2174 33.274C8.2174 32.1923 7.32515 31.3269 6.23143 31.3269C5.15209 31.3269 4.27423 32.2211 4.27423 33.3029C4.27423 34.3846 5.16648 35.25 6.24582 35.25H6.26021Z" fill="white"/>
<path d="M26.1487 21.7645C26.1487 22.6587 25.6306 23.2933 24.8967 23.452C24.0476 23.6395 23.2848 23.4231 22.666 22.8029C22.407 22.5577 22.3926 22.2116 22.6085 21.9808C22.8243 21.7356 23.1697 21.7212 23.4575 21.9808C23.7741 22.2693 24.1339 22.4135 24.5657 22.3558C24.7815 22.327 24.9686 22.226 25.0118 21.9952C25.055 21.75 24.8535 21.6635 24.6808 21.5914C24.3498 21.4472 23.99 21.3318 23.659 21.1875C22.9251 20.8702 22.6085 20.3366 22.7236 19.6299C22.8387 18.9808 23.3856 18.5049 24.1051 18.4183C24.7096 18.3462 25.2564 18.5193 25.7601 18.8799C26.0767 19.0962 26.1343 19.4279 25.9472 19.702C25.7601 19.976 25.4579 20.0337 25.1413 19.8318C24.8391 19.6443 24.5369 19.5145 24.1771 19.5722C24.0332 19.601 23.9037 19.6587 23.8605 19.8029C23.8173 19.9904 23.9612 20.0481 24.0907 20.1058C24.4649 20.2645 24.8535 20.3943 25.2133 20.5674C25.7889 20.8414 26.1631 21.2741 26.1631 21.75L26.1487 21.7645Z" fill="white"/>
<path d="M6.2602 33.851C5.95799 33.851 5.67017 33.5914 5.67017 33.274C5.67017 32.9856 5.92921 32.726 6.21703 32.7115C6.51924 32.7115 6.79268 32.9712 6.79268 33.2885C6.79268 33.5914 6.54803 33.851 6.24581 33.851H6.2602Z" fill="white"/>
</g>
<defs>
<clipPath id="clip0_8_296">
<rect width="39" height="39" fill="white"/>
</clipPath>
</defs>
</svg>
