<svg width="35" height="35" viewBox="0 0 35 35" fill="none" xmlns="http://www.w3.org/2000/svg">
<g clip-path="url(#clip0_8_298)">
<path d="M11.9774 16.0669C11.6526 16.0669 11.3983 15.8128 11.4266 15.4457C11.4689 15.0081 11.3277 14.8104 10.8899 14.7116C10.4661 14.6127 10.0989 14.3445 9.78816 14.0339C9.4633 13.7233 9.43505 13.4126 9.67516 13.1585C9.91528 12.9044 10.226 12.9185 10.565 13.2291C11.1158 13.7233 11.7514 13.9492 12.4859 13.7939C12.6836 13.7515 12.8531 13.6527 13.0085 13.5256C13.4322 13.1444 13.404 12.6644 12.9379 12.3255C12.5706 12.0714 12.1469 11.9726 11.7373 11.8314C11.3842 11.7184 11.0311 11.5772 10.7204 11.3655C10.1554 10.956 9.83053 10.4195 9.90115 9.71358C9.97177 8.96529 10.3955 8.4429 11.1017 8.18877C11.356 8.08994 11.4548 7.97699 11.4266 7.70874C11.4266 7.60991 11.4266 7.51108 11.4266 7.41225C11.4548 7.11576 11.6243 6.93221 11.9351 6.90398C12.2599 6.87574 12.5424 7.05928 12.5 7.35577C12.4153 8.00523 12.8108 8.16053 13.291 8.30172C13.5593 8.38643 13.7853 8.54173 13.9972 8.71116C14.2514 8.92294 14.2938 9.23354 14.1384 9.47356C13.9548 9.74181 13.6441 9.79829 13.3475 9.61475C12.9238 9.33237 12.4859 9.1206 11.9633 9.13471C11.8221 9.13471 11.6667 9.16295 11.5254 9.20531C11.2571 9.29002 11.0735 9.47356 11.017 9.75593C10.9605 10.0383 11.1158 10.2642 11.3418 10.4195C11.5819 10.5889 11.8503 10.6878 12.1187 10.7725C12.5424 10.9137 12.9661 11.0548 13.3475 11.2949C13.9972 11.6902 14.4774 12.2126 14.4068 13.0456C14.3362 13.9068 13.8277 14.4715 13.0509 14.7539C12.6554 14.8951 12.4718 15.0504 12.5141 15.4881C12.5424 15.8269 12.2599 16.0669 11.9633 16.0669H11.9774Z" fill="white"/>
<path d="M3.50282 10.1087C3.50282 9.75576 3.50282 9.47339 3.50282 9.20513C3.50282 7.15794 3.50282 5.12486 3.50282 3.07766C3.50282 1.27048 4.74576 0.0139257 6.5678 0.0139257C9.90113 0.0139257 13.2203 0.0704001 16.5537 -0.000192925C18.4181 -0.0425487 19.8588 1.22813 19.8446 3.09178C19.9859 3.12002 20.0282 2.99295 20.0989 2.92236C21.0311 2.14583 22.3588 2.17407 23.2203 3.00707C24.0819 3.82595 24.209 5.16721 23.4605 6.11316C22.9661 6.7485 22.4294 7.34148 21.9068 7.94858C21.6525 8.24507 21.2853 8.2733 21.0452 8.04741C20.791 7.82151 20.7768 7.48266 21.0452 7.17205C21.5113 6.62143 21.9774 6.08492 22.4435 5.5343C22.9237 4.96955 22.9096 4.26362 22.4011 3.81183C21.8927 3.36003 21.2288 3.47298 20.6921 3.99537C20.0565 4.61659 19.7599 5.29428 19.8305 6.21199C19.9153 7.29912 19.8588 8.40037 19.8446 9.4875C19.8446 9.7134 19.9011 9.79811 20.1271 9.82635C21.9633 10.0946 22.7825 12.1277 21.6243 13.596C21.3983 13.8925 21.3418 14.0055 21.6808 14.2596C22.6977 15.022 22.8531 16.4903 22.048 17.5069C21.7797 17.8457 21.4831 18.1846 21.2006 18.4952C21.0734 18.6222 21.0876 18.6787 21.2429 18.7775C22.6836 19.6388 22.9237 21.2059 21.8362 22.4907C21.5678 22.8013 21.2994 23.1119 21.0169 23.4226C20.8051 23.6626 20.565 23.9026 20.2542 23.9732C19.8446 24.072 19.8164 24.312 19.8305 24.665C19.9011 25.8227 19.5339 26.7969 18.5593 27.4746C18.0932 27.7993 17.5565 27.9829 16.9915 27.9829C15.0565 27.9829 13.1215 27.9829 11.2006 27.9829C10.7768 27.9829 10.5085 27.7428 10.5226 27.3899C10.5226 27.0369 10.791 26.811 11.2147 26.811C13.065 26.811 14.9153 26.811 16.7514 26.811C17.9661 26.811 18.6723 26.1051 18.6723 24.8909C18.6723 24.8627 18.6723 24.8485 18.6723 24.8203C18.7429 24.3685 18.6158 24.1144 18.1497 23.8885C16.8644 23.2531 16.5537 21.5448 17.4576 20.4294C17.726 20.0906 18.0226 19.7658 18.3192 19.4411C18.4181 19.3282 18.4746 19.2717 18.291 19.1587C16.8079 18.241 16.5819 16.7445 17.726 15.4032C17.9802 15.0926 18.2486 14.7961 18.5311 14.4714C17.952 14.1184 17.5424 13.6384 17.3729 12.9889C17.0904 11.8312 17.613 10.9841 18.4605 10.2923C18.6299 10.1511 18.6864 10.024 18.6864 9.81223C18.6864 7.56737 18.6864 5.32252 18.6864 3.07766C18.6864 1.93405 17.952 1.19989 16.822 1.19989C13.3898 1.19989 9.97175 1.19989 6.53955 1.19989C5.42373 1.19989 4.68927 1.93405 4.68927 3.04942C4.68927 8.17447 4.68927 13.2995 4.68927 18.4246C4.68927 18.6505 4.77401 18.7917 4.9435 18.9328C7.37288 20.9659 8.78531 23.5496 9.22316 26.684C9.25141 26.8816 9.27966 27.0934 9.29379 27.3052C9.32203 27.7428 9.11017 28.0111 8.75706 28.0252C8.41808 28.0393 8.16384 27.7993 8.13559 27.3616C8.09322 26.811 7.99435 26.2604 7.86723 25.7098C7.24576 23.2108 5.9322 21.1495 3.87006 19.5823C3.61582 19.3988 3.53107 19.1587 3.53107 18.8623C3.53107 17.0833 3.53107 15.3185 3.53107 13.5395C3.53107 12.9324 3.47458 12.3253 3.24859 11.7465C2.93785 10.9558 2.27401 10.5323 1.42655 10.5323C1.25706 10.5323 1.17232 10.5746 1.20056 10.7582C1.20056 10.857 1.20056 10.9558 1.20056 11.0547C1.20056 18.7493 1.20056 26.4298 1.20056 34.1245C1.20056 34.7457 1.00282 35.028 0.607345 35.0139C0.169492 34.9857 0 34.7174 0 34.1103C0 26.1616 0 18.1987 0 10.2499C0 9.58633 0.127119 9.43103 0.79096 9.38867C1.75141 9.31808 2.65537 9.45927 3.50282 10.1228V10.1087ZM21.3842 16.0809C21.3701 15.5585 21.1299 15.2197 20.678 15.0079C20.226 14.8102 19.7458 14.8808 19.4068 15.2479C19.0537 15.615 18.7147 15.9962 18.404 16.4056C18.065 16.8292 18.0932 17.3657 18.404 17.7892C18.7147 18.2128 19.2938 18.4105 19.774 18.1422C20.4944 17.7328 20.9887 17.0833 21.3559 16.3491C21.3983 16.2644 21.3842 16.1656 21.3842 16.0809ZM19.2655 23.0414C19.5621 23.0414 19.8446 22.9708 20.0424 22.759C20.4237 22.3495 20.8051 21.9401 21.1441 21.4883C21.4972 21.0224 21.3701 20.3447 20.9322 19.9776C20.4802 19.5964 19.8305 19.5823 19.4068 20.0059C19.0254 20.3871 18.6582 20.8106 18.3333 21.2342C18.0508 21.6013 18.065 22.0389 18.2768 22.4343C18.4887 22.8296 18.8418 23.0131 19.2797 23.0414H19.2655ZM20.9746 12.1559C20.9746 11.5206 20.4802 10.9982 19.8446 10.9841C19.209 10.97 18.4746 11.69 18.4463 12.3677C18.4322 13.0172 18.9548 13.5537 19.6045 13.5537C20.2684 13.5537 20.9746 12.8336 20.9746 12.1559Z" fill="white"/>
<path d="M29.2373 33.8423C29.1101 33.1646 29.1666 32.5293 29.1666 31.8798C29.1666 31.5833 29.096 31.4986 28.7853 31.4986C25.3107 31.4986 21.8361 31.4986 18.3615 31.4986C18.2344 31.4986 18.1214 31.4986 17.9943 31.4986C17.6836 31.4421 17.4858 31.2445 17.4858 30.9197C17.4858 30.595 17.6695 30.4115 17.9943 30.3409C18.1073 30.3268 18.2062 30.3409 18.3192 30.3409C23.5875 30.3409 28.8559 30.3409 34.1384 30.3409C34.2373 30.3409 34.3361 30.3409 34.435 30.3409C34.7599 30.3691 34.9858 30.6091 34.9858 30.9197C34.9858 31.2162 34.7598 31.4562 34.4491 31.4986C34.2514 31.5268 33.9689 31.3998 33.87 31.5692C33.7712 31.7245 33.8418 31.9927 33.8276 32.2045C33.8135 32.741 33.8841 33.2775 33.7429 33.8423C33.9689 33.8423 34.1808 33.8423 34.3785 33.8423C34.7457 33.8564 35 34.0964 34.9858 34.4211C34.9858 34.7459 34.7316 34.9859 34.3644 35C34.2514 35 34.1525 35 34.0395 35C28.8418 35 23.644 35 18.4463 35C18.4039 35 18.3474 35 18.305 35C17.7825 35 17.5 34.8023 17.5 34.4211C17.5 34.0399 17.7683 33.8423 18.2909 33.8423C21.7937 33.8423 25.2825 33.8423 28.7853 33.8423C28.9265 33.8423 29.0678 33.8423 29.2373 33.8423ZM31.4971 31.5127C31.1864 31.5127 30.8615 31.5127 30.5508 31.5127C30.3813 31.5127 30.3107 31.5551 30.3248 31.7386C30.3248 32.2328 30.3248 32.7269 30.3248 33.2211C30.3248 33.6023 30.5508 33.8282 30.9322 33.8423C31.2994 33.8423 31.6525 33.8423 32.0197 33.8423C32.4152 33.8423 32.6271 33.6164 32.6412 33.2352C32.6412 32.741 32.6412 32.2469 32.6412 31.7527C32.6412 31.5551 32.5565 31.5127 32.387 31.5127C32.0904 31.5127 31.7796 31.5127 31.483 31.5127H31.4971Z" fill="white"/>
<path d="M31.2147 22.7168C31.2147 22.4909 31.1299 22.3356 31.0734 22.1662C30.5932 20.7261 30.113 19.286 29.6469 17.8459C29.4209 17.1541 28.9689 16.787 28.2486 16.7164C26.9068 16.5753 25.565 16.4482 24.2231 16.4058C24.096 16.4058 23.983 16.4058 23.8559 16.3776C23.5311 16.3211 23.3192 16.067 23.3474 15.7705C23.3616 15.4599 23.6158 15.2199 23.9689 15.234C24.6186 15.2481 25.2825 15.2763 25.9322 15.3328C26.822 15.4034 27.6977 15.4881 28.5734 15.6011C29.6469 15.7423 30.3672 16.3635 30.7203 17.38C31.3277 19.1731 31.9209 20.9661 32.5141 22.7592C32.5989 23.0133 32.7118 23.1686 32.9661 23.2675C34.3644 23.8463 35.0706 24.8911 35.0141 26.4159C35 27.0936 35.0141 27.7713 35.0141 28.449C35.0141 28.9573 34.8022 29.169 34.3079 29.169C32.839 29.169 31.37 29.169 29.9011 29.169C29.3926 29.169 29.1949 28.9573 29.1808 28.4631C29.1808 28.1102 29.1808 27.7572 29.1808 27.4042C29.209 26.43 29.9435 25.6818 30.9322 25.6676C31.7796 25.6676 32.6271 25.6535 33.4887 25.6676C33.8135 25.6676 33.7853 25.5547 33.6864 25.3429C33.3757 24.7217 32.8107 24.4252 32.2034 24.1993C31.0593 23.7899 29.8587 23.6628 28.6723 23.5498C26.9491 23.3945 25.226 23.3522 23.5028 23.3239C23.0367 23.3239 22.7825 23.098 22.7825 22.731C22.7825 22.3639 23.0508 22.1521 23.5169 22.1521C26.0876 22.1945 28.6723 22.2227 31.2429 22.6886L31.2147 22.7168ZM32.0904 27.9972H32.9661C33.8418 27.9972 33.8277 27.9972 33.8418 27.136C33.8418 26.8677 33.7429 26.8254 33.5028 26.8254C32.7401 26.8254 31.9774 26.8254 31.2005 26.8254C30.4661 26.8254 30.2825 27.0371 30.3248 27.7713C30.3248 27.9548 30.3955 27.9972 30.565 27.9972C31.0734 27.9972 31.5819 27.9972 32.0904 27.9972Z" fill="white"/>
<path d="M23.3333 25.6677C24.0254 25.71 24.8587 25.583 25.692 25.7383C26.9491 25.9783 27.9095 27.1078 27.9943 28.3643C27.9943 28.4208 27.9943 28.4914 27.9943 28.5479C27.9943 28.9008 27.7542 29.1409 27.4434 29.155C27.1327 29.1691 26.8785 28.9432 26.8361 28.6044C26.6807 27.376 26.0734 26.8254 24.8305 26.8254C23.6016 26.8254 22.3728 26.8254 21.144 26.8254C20.6779 26.8254 20.4095 26.6136 20.4095 26.2465C20.4095 25.8795 20.6779 25.6677 21.1299 25.6536C21.8079 25.6536 22.4858 25.6536 23.3192 25.6536L23.3333 25.6677Z" fill="white"/>
<path d="M11.6667 33.1928C11.6667 32.8116 11.6667 32.4445 11.6667 32.0633C11.6667 31.7104 11.8503 31.4845 12.2034 31.4421C13.6441 31.2444 14.8164 30.5809 15.7204 29.4514C15.9746 29.1267 16.3136 29.0984 16.582 29.3102C16.8362 29.522 16.8645 29.8749 16.6102 30.1856C15.7063 31.315 14.5622 32.1057 13.1356 32.4304C12.8673 32.4869 12.8108 32.5998 12.8249 32.8399C12.839 33.334 12.8249 33.8282 12.8249 34.3364C12.8249 34.7317 12.5848 34.9859 12.2458 35C11.9068 35 11.6667 34.7459 11.6526 34.3505C11.6526 33.9693 11.6526 33.574 11.6526 33.1787L11.6667 33.1928Z" fill="white"/>
<path d="M11.6243 3.51551C11.0876 3.51551 10.5508 3.51551 10.0141 3.51551C9.57626 3.51551 9.32202 3.28962 9.32202 2.93665C9.32202 2.58369 9.57626 2.35779 10.0141 2.35779C11.1017 2.35779 12.2034 2.35779 13.2909 2.35779C13.7147 2.35779 13.983 2.58369 13.983 2.93665C13.983 3.28962 13.7147 3.51551 13.2909 3.51551C12.726 3.51551 12.1751 3.51551 11.6102 3.51551H11.6243Z" fill="white"/>
<path d="M24.7882 12.8479C25.2543 12.8479 25.7062 12.8479 26.1724 12.8479C26.5678 12.8479 26.8221 13.0879 26.8221 13.4268C26.8221 13.7656 26.5678 14.0056 26.1724 14.0056C25.2543 14.0056 24.3221 14.0056 23.404 14.0056C23.0085 14.0056 22.7543 13.7656 22.7543 13.4268C22.7543 13.0879 23.0085 12.8479 23.404 12.8479C23.8701 12.8479 24.3221 12.8479 24.7882 12.8479Z" fill="white"/>
<path d="M11.6243 25.6676C11.4266 25.6676 11.2288 25.6676 11.0452 25.6676C10.7204 25.6393 10.4944 25.3993 10.4944 25.0887C10.4944 24.7781 10.7204 24.524 11.0311 24.5099C11.4407 24.4957 11.8644 24.4957 12.274 24.5099C12.5989 24.524 12.8249 24.7781 12.8249 25.0887C12.8249 25.3852 12.5989 25.6252 12.2882 25.6676C12.2599 25.6676 12.2458 25.6676 12.2175 25.6676C12.0198 25.6676 11.8221 25.6676 11.6385 25.6676H11.6243Z" fill="white"/>
</g>
<defs>
<clipPath id="clip0_8_298">
<rect width="35" height="35" fill="white"/>
</clipPath>
</defs>
</svg>
