<svg width="34" height="39" viewBox="0 0 34 39" fill="none" xmlns="http://www.w3.org/2000/svg">
<g clip-path="url(#clip0_8_295)">
<path d="M24.8912 39.0001C24.5983 38.7853 24.5367 38.4938 24.5367 38.1409C24.5367 35.456 24.5367 32.7864 24.5367 30.1015C24.5367 29.9788 24.5367 29.8407 24.5521 29.718C24.6137 29.3958 24.8141 29.227 25.1378 29.2424C25.446 29.2424 25.631 29.4418 25.6618 29.7487C25.6772 29.8868 25.6618 30.0248 25.6618 30.1629C25.6618 32.5563 25.6618 34.965 25.6618 37.3584C25.6618 37.9568 25.6155 37.8494 26.1704 37.8494C26.9564 37.8494 27.7579 37.8494 28.5439 37.8494C28.8522 37.8494 28.9138 37.7573 28.9138 37.4658C28.9138 32.9092 28.9138 28.3525 28.9138 23.7959C28.9138 23.0288 29.0063 22.9214 29.7615 22.814C29.7615 22.6606 29.6228 22.5838 29.5303 22.4918C28.8522 21.7707 28.1586 21.0496 27.4959 20.3285C27.3572 20.1751 27.2647 20.1444 27.1106 20.3285C26.3708 21.1263 25.631 21.9088 24.8912 22.6912C24.8603 22.7219 24.8449 22.768 24.8141 22.814C25.6155 22.9521 25.6772 23.0134 25.6772 23.8266C25.6772 24.9312 25.6772 26.0358 25.6772 27.1405C25.6772 27.2479 25.6772 27.3706 25.6772 27.478C25.6464 27.8309 25.4152 28.0764 25.1069 28.061C24.7987 28.061 24.5521 27.8156 24.5367 27.4627C24.5213 27.1405 24.5367 26.803 24.5367 26.4654C24.5367 25.7597 24.5367 25.0693 24.5367 24.3789C24.5367 24.0874 24.475 23.9493 24.1514 23.9953C23.9664 24.0107 23.766 23.9953 23.5811 23.9953C23.2883 23.9953 23.0262 23.9646 22.8875 23.6578C22.7488 23.351 22.9029 23.1208 23.1033 22.906C24.0897 21.8781 25.0607 20.8348 26.0471 19.8069C26.3091 19.5307 26.5711 19.2546 26.8331 18.9784C27.1568 18.6409 27.465 18.6255 27.7887 18.9784C29.0679 20.3132 30.3164 21.6633 31.5956 22.9981C31.7805 23.1975 31.8422 23.4123 31.7497 23.6578C31.6572 23.9186 31.4415 24.0107 31.164 24.0107C31.1332 24.0107 31.1178 24.0107 31.087 24.0107C30.7633 24.026 30.3626 23.8726 30.1622 24.072C29.9465 24.2868 30.0852 24.7011 30.0852 25.0233C30.0852 29.4111 30.0852 33.799 30.0852 38.2023C30.0852 38.5551 29.9927 38.8159 29.6999 39.0001H24.8757H24.8912Z" fill="white"/>
<path d="M14.7036 39C14.4107 38.7853 14.3491 38.4784 14.3491 38.1409C14.3491 34.7963 14.3491 31.4363 14.3491 28.0917C14.3491 27.7388 14.2412 27.6161 13.9021 27.6621C13.6709 27.6928 13.4398 27.6621 13.2086 27.6621C12.7154 27.6314 12.4379 27.1251 12.7616 26.7723C14.0717 25.3454 15.4126 23.934 16.7689 22.5225C17 22.277 17.3237 22.3537 17.6011 22.6452C18.2639 23.3356 18.9112 24.026 19.5739 24.7164C20.175 25.3454 20.7607 25.9745 21.3618 26.6035C21.5622 26.8183 21.67 27.0484 21.5467 27.3246C21.4234 27.5854 21.1923 27.6621 20.9148 27.6621C20.6991 27.6621 20.4833 27.6775 20.2675 27.6621C19.9593 27.6314 19.8976 27.7542 19.8976 28.0457C19.8976 31.4363 19.8976 34.827 19.8976 38.2022C19.8976 38.5551 19.8051 38.8159 19.5123 39H14.6882H14.7036ZM14.5803 26.4961C15.3817 26.5575 15.505 26.6802 15.505 27.432C15.505 30.7766 15.505 34.1366 15.505 37.4812C15.505 37.7727 15.5821 37.8647 15.8903 37.8647C16.7226 37.8494 17.5549 37.8494 18.3718 37.8647C18.68 37.8647 18.7725 37.8034 18.7725 37.4812C18.7725 34.7809 18.7725 32.0807 18.7725 29.3651C18.7725 28.644 18.7725 27.9229 18.7725 27.2019C18.7725 26.7569 18.9728 26.5575 19.4198 26.5268C19.4815 26.5268 19.5739 26.5575 19.6356 26.4501C18.8495 25.6216 18.0481 24.7778 17.2621 23.934C17.1696 23.8419 17.1079 23.8419 17.0155 23.934C16.2294 24.7778 15.428 25.6063 14.5957 26.4961H14.5803Z" fill="white"/>
<path d="M4.53133 39C4.23849 38.7852 4.16143 38.4784 4.17684 38.1408C4.19225 37.4658 4.17684 36.7907 4.17684 36.131C4.17684 35.6707 4.3772 35.4252 4.7471 35.4252C5.117 35.4252 5.31736 35.6554 5.33278 36.1156C5.33278 36.5913 5.34819 37.0515 5.33278 37.5271C5.31736 37.8186 5.42525 37.88 5.70268 37.88C6.55036 37.8647 7.41346 37.8647 8.26115 37.88C8.53858 37.88 8.60023 37.8033 8.60023 37.5425C8.60023 35.4866 8.60023 33.4308 8.60023 31.3749C8.60023 30.6385 8.70812 30.5157 9.44792 30.4697C9.47874 30.4083 9.44792 30.3776 9.41709 30.3316C8.66188 29.5338 7.92208 28.736 7.16686 27.9536C7.07439 27.8462 6.99733 27.7388 6.8432 27.9075C6.07258 28.7514 5.27113 29.5798 4.5005 30.4083C4.57756 30.5464 4.68545 30.485 4.77793 30.485C5.14783 30.5157 5.34819 30.7152 5.3636 31.068C5.3636 31.9426 5.3636 32.8171 5.3636 33.6916C5.3636 34.0444 5.10159 34.2899 4.79334 34.2746C4.48509 34.2746 4.23849 34.0291 4.22308 33.6762C4.20766 33.0932 4.20766 32.5102 4.22308 31.9272C4.22308 31.6971 4.16143 31.605 3.91483 31.6204C3.65281 31.6357 3.37539 31.6204 3.11337 31.6204C2.86677 31.6204 2.68182 31.513 2.57394 31.2675C2.46605 31.022 2.5277 30.8226 2.69724 30.6385C3.99189 29.273 5.28654 27.8922 6.58119 26.5421C6.8432 26.2659 7.18228 26.2659 7.4597 26.5421C8.75435 27.8922 10.0336 29.2577 11.3128 30.6231C11.4978 30.8226 11.544 31.0527 11.4361 31.2828C11.3282 31.513 11.1279 31.605 10.8813 31.605C10.8505 31.605 10.8042 31.605 10.7734 31.605C10.4651 31.6357 10.049 31.4669 9.86405 31.6817C9.70993 31.8658 9.8024 32.2647 9.8024 32.5716C9.8024 34.4433 9.8024 36.3304 9.8024 38.2022C9.8024 38.5551 9.70993 38.8159 9.41709 39H4.53133Z" fill="white"/>
<path d="M27.5884 10.4327C27.5884 16.1861 22.8722 20.8501 17.1079 20.8194C11.3282 20.8041 6.6582 16.14 6.6582 10.402C6.67362 4.66404 11.3898 0 17.1541 0C22.9184 0 27.6038 4.69473 27.5884 10.4327ZM26.4325 10.4327C26.4325 5.30842 22.2557 1.15067 17.1233 1.15067C12.0063 1.15067 7.82955 5.30842 7.81414 10.402C7.81414 15.511 11.9755 19.6688 17.1079 19.6841C22.2403 19.6841 26.4325 15.5417 26.4325 10.4327Z" fill="white"/>
<path d="M2.26564 10.0492C2.77425 10.0492 3.28286 10.0492 3.79148 10.0492C4.23844 10.0492 4.50045 10.2639 4.51587 10.6015C4.51587 10.9543 4.25385 11.1845 3.8223 11.1845C2.77425 11.1845 1.74161 11.1845 0.693563 11.1845C0.2466 11.1845 0 10.9697 0 10.6015C0 10.2333 0.2466 10.0492 0.708975 10.0338C1.233 10.0338 1.75703 10.0338 2.26564 10.0338V10.0492Z" fill="white"/>
<path d="M31.796 10.0492C32.32 10.0492 32.8441 10.0492 33.3527 10.0492C33.7688 10.0492 34.0154 10.2793 34 10.6322C34 10.9697 33.7534 11.1999 33.3681 11.1999C32.2892 11.1999 31.2103 11.1999 30.1315 11.1999C29.7461 11.1999 29.4995 10.9544 29.4841 10.6322C29.4841 10.2947 29.7307 10.0645 30.1469 10.0492C30.6863 10.0492 31.2412 10.0492 31.7806 10.0492H31.796Z" fill="white"/>
<path d="M29.1913 15.0814C29.6691 15.2655 30.224 15.3883 30.7018 15.7105C30.933 15.8639 30.9484 16.1247 30.8251 16.3702C30.7018 16.631 30.4706 16.7691 30.1932 16.677C29.7308 16.5236 29.2684 16.3395 28.8214 16.14C28.5594 16.0173 28.4978 15.7565 28.5748 15.4957C28.6519 15.2502 28.8523 15.1121 29.1913 15.0968V15.0814Z" fill="white"/>
<path d="M5.45603 5.59993C5.45603 5.98349 5.10155 6.25965 4.71623 6.12157C4.3001 5.98349 3.88396 5.81472 3.48323 5.64596C3.15957 5.50788 3.05168 5.18569 3.17498 4.89419C3.28287 4.61803 3.59112 4.47995 3.91478 4.60269C4.31551 4.74077 4.71623 4.90953 5.11696 5.07829C5.34815 5.17035 5.47145 5.35446 5.47145 5.61527L5.45603 5.59993Z" fill="white"/>
<path d="M30.8713 5.12427C30.8713 5.40043 30.7326 5.5692 30.486 5.67659C30.1006 5.83002 29.7153 5.98344 29.3146 6.12152C29.0064 6.22892 28.6981 6.10618 28.5902 5.83002C28.4669 5.53851 28.5902 5.21633 28.8985 5.07825C29.2838 4.90948 29.6845 4.74072 30.1006 4.60264C30.5014 4.46456 30.8713 4.72538 30.8713 5.12427Z" fill="white"/>
<path d="M5.45602 15.6338C5.45602 15.91 5.31731 16.0941 5.07071 16.1861C4.68539 16.3395 4.30008 16.493 3.89935 16.631C3.5911 16.7384 3.28285 16.6004 3.15955 16.3395C3.03625 16.048 3.15955 15.7259 3.4678 15.5878C3.86853 15.4037 4.28467 15.2349 4.7008 15.1122C5.08612 14.9894 5.44061 15.2502 5.44061 15.6338H5.45602Z" fill="white"/>
<path d="M24.7062 10.4174C24.7062 14.2376 21.6853 17.5516 17.9709 17.9044C13.8712 18.3033 10.3263 15.511 9.679 11.6448C9.40158 9.98784 9.679 8.40758 10.4342 6.91939C10.5575 6.67391 10.7425 6.52049 11.0353 6.53583C11.2819 6.55117 11.436 6.68925 11.5285 6.90404C11.621 7.13418 11.5285 7.31829 11.4206 7.51773C10.9274 8.4843 10.7116 9.51223 10.7271 10.6015C10.7887 14.1302 13.9483 17.0299 17.4931 16.7845C20.8531 16.5543 23.3191 14.0689 23.5503 10.6936C23.7506 7.64047 21.5312 4.78681 18.3871 4.15778C16.4297 3.75888 14.6418 4.23449 13.0698 5.47722C12.9773 5.55393 12.9002 5.63064 12.8077 5.69201C12.5303 5.89146 12.2221 5.86077 12.0063 5.63064C11.7905 5.38516 11.8059 5.06297 12.0679 4.8175C12.5149 4.40326 13.0081 4.06573 13.5321 3.78957C18.5566 1.08933 24.7062 4.72545 24.7062 10.4174Z" fill="white"/>
<path d="M18.2484 12.1357C18.2484 11.5834 18.0326 11.3379 17.6781 11.1691C17.3853 11.0311 17.0616 11.0004 16.7534 10.9543C15.767 10.8009 15.1042 10.2333 14.9039 9.37409C14.7189 8.59164 15.0272 7.60973 15.7361 7.24152C16.2602 6.96536 16.5068 6.67386 16.4451 6.07551C16.4143 5.76866 16.6763 5.56921 17 5.56921C17.3236 5.56921 17.5702 5.76866 17.5394 6.09085C17.4778 6.67386 17.6781 7.01139 18.2484 7.21083C18.572 7.31823 18.7878 7.62508 18.9419 7.94726C19.0961 8.26945 19.019 8.5763 18.7416 8.74506C18.4642 8.91382 18.1559 8.83711 17.9555 8.53027C17.7089 8.13137 17.3545 7.97795 16.8921 7.99329C16.3989 8.02397 16.0752 8.33082 15.9982 8.83711C15.9365 9.2667 16.1677 9.61957 16.6301 9.75765C16.9846 9.86504 17.3545 9.89573 17.7089 9.98778C18.757 10.2639 19.3581 10.985 19.3889 11.9823C19.4197 13.0102 18.8341 13.8387 17.8168 14.1609C17.6165 14.2222 17.5394 14.299 17.5548 14.4984C17.5548 14.6825 17.5548 14.8513 17.5548 15.0354C17.524 15.3422 17.3236 15.5263 17.0308 15.5417C16.7071 15.557 16.5068 15.3729 16.4451 15.0661V15.0354C16.5684 14.4064 16.2602 14.1455 15.6899 13.9461C15.1967 13.7773 14.873 13.3477 14.6727 12.8568C14.5186 12.5039 14.6264 12.1971 14.9347 12.0436C15.2429 11.9056 15.5358 12.0283 15.7053 12.3658C16.0598 13.0716 17.0462 13.3631 17.7398 12.9795C18.1097 12.7647 18.233 12.4272 18.2484 12.1664V12.1357Z" fill="white"/>
</g>
<defs>
<clipPath id="clip0_8_295">
<rect width="34" height="39" fill="white"/>
</clipPath>
</defs>
</svg>
