<svg width="97" height="97" viewBox="0 0 97 97" fill="none" xmlns="http://www.w3.org/2000/svg">
<path d="M0 48.5C0 21.7142 21.7142 0 48.5 0V0C75.2858 0 97 21.7142 97 48.5V48.5C97 75.2858 75.2858 97 48.5 97H0V48.5Z" fill="#EF5AFF"/>
<g clip-path="url(#clip0_1_7)">
<path d="M47 71C43.95 71 40.9 71 37.9 71C35.9 71 33.9 70.85 31.95 70.35C28.45 69.45 26.4 67.2 25.6 63.7C25.2 62 25.1 60.3 25.05 58.55C25 54.1 25 49.6 25.05 45.15C25.05 43.75 25.2 42.4 25.65 41.05C26.2 39.35 27.3 38 28.7 36.9C30.95 35.1 33.5 33.7 35.95 32.2C38.15 30.8 40.35 29.35 42.7 28.2C44.15 27.45 45.7 26.9 47.4 27C48.55 27.05 49.65 27.4 50.65 27.85C52.7 28.75 54.55 30 56.45 31.15C58.95 32.7 61.5 34.2 63.9 35.85C65.1 36.65 66.25 37.55 67.1 38.7C68.1 40 68.55 41.45 68.75 43.05C68.95 44.7 68.95 46.35 68.95 48C68.95 51.2 68.95 54.35 68.95 57.55C68.95 59.6 68.8 61.6 68.4 63.6C67.6 67.45 65.25 69.75 61.4 70.5C59.65 70.85 57.85 70.95 56.05 71C53 71 49.95 71 46.95 71H47ZM47 67.95C48.75 67.95 50.5 67.95 52.25 67.95C55.05 67.95 57.85 68 60.6 67.55C63.35 67.1 64.9 65.6 65.45 62.85C65.75 61.45 65.85 60 65.9 58.55C65.9 53.85 66 49.1 65.9 44.4C65.8 42 64.85 40.2 62.85 38.85C60.95 37.55 59 36.35 57.05 35.15C54.8 33.75 52.6 32.3 50.25 31.05C49.15 30.45 48.05 30 46.75 30.1C45.6 30.15 44.6 30.65 43.65 31.15C41.65 32.25 39.7 33.5 37.8 34.7C35.55 36.1 33.3 37.4 31.15 38.95C29.7 40 28.65 41.25 28.4 43.05C28.3 43.85 28.2 44.6 28.2 45.4C28.2 49.75 28.2 54.05 28.2 58.4C28.2 59.9 28.35 61.45 28.65 62.9C29.15 65.35 30.55 66.9 33.05 67.45C34.8 67.8 36.55 67.9 38.3 67.9C41.25 67.9 44.15 67.9 47.1 67.9L47 67.95Z" fill="white"/>
<path d="M47 62.85C44.95 62.85 42.9 62.85 40.85 62.85C40.05 62.85 39.4 62.25 39.3 61.5C39.2 60.75 39.7 60.05 40.45 59.85C40.6 59.85 40.75 59.85 40.9 59.85C44.95 59.85 49 59.85 53.1 59.85C53.95 59.85 54.6 60.45 54.7 61.2C54.8 61.95 54.25 62.7 53.5 62.85C53.3 62.85 53.1 62.85 52.95 62.85C51 62.85 49 62.85 47.05 62.85H47Z" fill="white"/>
</g>
<defs>
<clipPath id="clip0_1_7">
<rect width="44" height="44" fill="white" transform="translate(25 27)"/>
</clipPath>
</defs>
</svg>
