<svg width="51" height="63" viewBox="0 0 51 63" fill="none" xmlns="http://www.w3.org/2000/svg">
<path d="M44.7892 6.173C41.0703 2.44304 35.82 0.029541 30.1321 0.029541C18.647 0.029541 9.34961 9.35444 9.34961 20.8734V41.7173H30.1321C35.82 41.7173 41.0703 39.4135 44.7892 35.5738C48.5082 31.8439 50.9146 26.5781 50.9146 20.8734C50.9146 15.1688 48.6176 9.90296 44.7892 6.173ZM37.3513 28.1139C35.4918 29.9789 32.976 31.076 30.1321 31.076H19.9596V20.8734C19.9596 15.1688 24.5536 10.6709 30.1321 10.6709C35.7106 10.6709 35.4918 11.7679 37.3513 13.6329C39.2108 15.4979 40.3046 18.0211 40.3046 20.8734C40.3046 23.7257 39.2108 26.249 37.3513 28.1139Z" fill="#EF5AFF"/>
<path d="M9.35103 63C4.53824 63 0.491125 59.0506 0.491125 54.1139C0.491125 49.2869 4.42886 45.2278 9.35103 45.2278H18.2109L18.2109 54.1139C18.2109 58.9409 14.2732 63 9.35103 63Z" fill="#EF5AFF"/>
</svg>
