<svg width="194" height="242" viewBox="0 0 194 242" fill="none" xmlns="http://www.w3.org/2000/svg">
<g clip-path="url(#clip0_4_12)">
<path d="M170.568 23.4808C156.002 8.88462 135.948 0 113.993 0C69.8738 0 33.9869 35.75 33.9869 80.1731V160.346H113.993C136.159 160.346 156.002 151.462 170.568 136.865C184.923 122.481 194 102.385 194 80.1731C194 57.9615 185.134 38.0769 170.568 23.4808ZM141.647 107.885C134.47 115.077 124.76 119.308 113.782 119.308H74.5179V79.9615C74.5179 58.1731 92.0392 40.6154 113.782 40.6154C129.501 41.5 135.41 46 141.647 52.25C148.825 59.4423 153.258 69.1731 153.258 80.1731C153.258 91.1731 148.825 100.904 141.647 108.096V107.885Z" fill="white"/>
<path d="M33.9869 242.212C15.1991 242.212 -4.18548e-06 226.981 -4.18548e-06 208.154C-4.18548e-06 189.327 15.1991 174.096 33.9869 174.096H67.9739L67.9739 208.154C67.9739 226.769 52.7747 242.212 33.9869 242.212Z" fill="white"/>
</g>
<defs>
<clipPath id="clip0_4_12">
<rect width="194" height="242" fill="white"/>
</clipPath>
</defs>
</svg>
