<svg width="448" height="93" viewBox="0 0 448 93" fill="none" xmlns="http://www.w3.org/2000/svg">
<path d="M116.588 68.8125V66.5455H130.097V68.8125H124.651V84H122.026V68.8125H116.588ZM131.518 84V70.9091H133.981V72.9886H134.117C134.356 72.2841 134.776 71.7301 135.379 71.3267C135.987 70.9176 136.674 70.7131 137.441 70.7131C137.6 70.7131 137.788 70.7187 138.004 70.7301C138.225 70.7415 138.398 70.7557 138.523 70.7727V73.2102C138.421 73.1818 138.239 73.1506 137.978 73.1165C137.717 73.0767 137.455 73.0568 137.194 73.0568C136.592 73.0568 136.055 73.1847 135.583 73.4403C135.117 73.6903 134.748 74.0398 134.475 74.4886C134.202 74.9318 134.066 75.4375 134.066 76.0057V84H131.518ZM140.729 84V70.9091H143.277V84H140.729ZM142.016 68.8892C141.572 68.8892 141.192 68.7415 140.874 68.446C140.561 68.1449 140.405 67.7869 140.405 67.3722C140.405 66.9517 140.561 66.5937 140.874 66.2983C141.192 65.9972 141.572 65.8466 142.016 65.8466C142.459 65.8466 142.837 65.9972 143.149 66.2983C143.467 66.5937 143.626 66.9517 143.626 67.3722C143.626 67.7869 143.467 68.1449 143.149 68.446C142.837 68.7415 142.459 68.8892 142.016 68.8892ZM146.705 88.9091V70.9091H149.194V73.0312H149.407C149.555 72.7585 149.768 72.4432 150.046 72.0852C150.325 71.7273 150.711 71.4148 151.205 71.1477C151.7 70.875 152.353 70.7386 153.165 70.7386C154.222 70.7386 155.165 71.0057 155.995 71.5398C156.825 72.0739 157.475 72.8437 157.947 73.8494C158.424 74.8551 158.663 76.0653 158.663 77.4801C158.663 78.8949 158.427 80.108 157.955 81.1193C157.484 82.125 156.836 82.9006 156.012 83.446C155.188 83.9858 154.248 84.2557 153.191 84.2557C152.396 84.2557 151.745 84.1222 151.239 83.8551C150.739 83.5881 150.347 83.2756 150.063 82.9176C149.779 82.5597 149.56 82.2415 149.407 81.9631H149.254V88.9091H146.705ZM149.202 77.4545C149.202 78.375 149.336 79.1818 149.603 79.875C149.87 80.5682 150.256 81.1108 150.762 81.5028C151.268 81.8892 151.887 82.0824 152.62 82.0824C153.381 82.0824 154.018 81.8807 154.529 81.4773C155.04 81.0682 155.427 80.5142 155.688 79.8153C155.955 79.1165 156.089 78.3295 156.089 77.4545C156.089 76.5909 155.958 75.8153 155.697 75.1278C155.441 74.4403 155.055 73.8977 154.538 73.5C154.026 73.1023 153.387 72.9034 152.62 72.9034C151.881 72.9034 151.256 73.0937 150.745 73.4744C150.239 73.8551 149.856 74.3864 149.594 75.0682C149.333 75.75 149.202 76.5455 149.202 77.4545ZM159.901 68.8125V66.5455H173.409V68.8125H167.963V84H165.338V68.8125H159.901ZM178.218 84.2898C177.388 84.2898 176.638 84.1364 175.968 83.8295C175.298 83.517 174.766 83.0653 174.374 82.4744C173.988 81.8835 173.795 81.1591 173.795 80.3011C173.795 79.5625 173.937 78.9545 174.221 78.4773C174.505 78 174.888 77.6222 175.371 77.3438C175.854 77.0653 176.394 76.8551 176.991 76.7131C177.587 76.571 178.195 76.4631 178.815 76.3892C179.599 76.2983 180.235 76.2244 180.724 76.1676C181.212 76.1051 181.567 76.0057 181.789 75.8693C182.011 75.733 182.121 75.5114 182.121 75.2045V75.1449C182.121 74.4006 181.911 73.8239 181.491 73.4148C181.076 73.0057 180.457 72.8011 179.633 72.8011C178.775 72.8011 178.099 72.9915 177.604 73.3722C177.116 73.7472 176.778 74.1648 176.59 74.625L174.195 74.0795C174.479 73.2841 174.894 72.642 175.44 72.1534C175.991 71.6591 176.624 71.3011 177.34 71.0795C178.056 70.8523 178.809 70.7386 179.599 70.7386C180.121 70.7386 180.675 70.8011 181.261 70.9261C181.852 71.0455 182.403 71.267 182.914 71.5909C183.431 71.9148 183.854 72.3778 184.184 72.9801C184.513 73.5767 184.678 74.3523 184.678 75.3068V84H182.19V82.2102H182.087C181.923 82.5398 181.675 82.8636 181.346 83.1818C181.016 83.5 180.593 83.7642 180.076 83.9744C179.559 84.1847 178.94 84.2898 178.218 84.2898ZM178.772 82.2443C179.477 82.2443 180.079 82.1051 180.579 81.8267C181.085 81.5483 181.468 81.1847 181.729 80.7358C181.996 80.2812 182.13 79.7955 182.13 79.2784V77.5909C182.039 77.6818 181.863 77.767 181.602 77.8466C181.346 77.9205 181.053 77.9858 180.724 78.0426C180.394 78.0937 180.073 78.142 179.761 78.1875C179.448 78.2273 179.187 78.2614 178.977 78.2898C178.482 78.3523 178.031 78.4574 177.621 78.6051C177.218 78.7528 176.894 78.9659 176.65 79.2443C176.411 79.517 176.292 79.8807 176.292 80.3352C176.292 80.9659 176.525 81.4432 176.991 81.767C177.457 82.0852 178.05 82.2443 178.772 82.2443ZM188.072 88.9091V70.9091H190.561V73.0312H190.774C190.922 72.7585 191.135 72.4432 191.413 72.0852C191.692 71.7273 192.078 71.4148 192.572 71.1477C193.067 70.875 193.72 70.7386 194.533 70.7386C195.589 70.7386 196.533 71.0057 197.362 71.5398C198.192 72.0739 198.842 72.8437 199.314 73.8494C199.791 74.8551 200.03 76.0653 200.03 77.4801C200.03 78.8949 199.794 80.108 199.322 81.1193C198.851 82.125 198.203 82.9006 197.379 83.446C196.555 83.9858 195.615 84.2557 194.558 84.2557C193.763 84.2557 193.112 84.1222 192.607 83.8551C192.107 83.5881 191.714 83.2756 191.43 82.9176C191.146 82.5597 190.928 82.2415 190.774 81.9631H190.621V88.9091H188.072ZM190.57 77.4545C190.57 78.375 190.703 79.1818 190.97 79.875C191.237 80.5682 191.624 81.1108 192.129 81.5028C192.635 81.8892 193.254 82.0824 193.987 82.0824C194.749 82.0824 195.385 81.8807 195.896 81.4773C196.408 81.0682 196.794 80.5142 197.055 79.8153C197.322 79.1165 197.456 78.3295 197.456 77.4545C197.456 76.5909 197.325 75.8153 197.064 75.1278C196.808 74.4403 196.422 73.8977 195.905 73.5C195.393 73.1023 194.754 72.9034 193.987 72.9034C193.249 72.9034 192.624 73.0937 192.112 73.4744C191.607 73.8551 191.223 74.3864 190.962 75.0682C190.7 75.75 190.57 76.5455 190.57 77.4545ZM209.441 84V66.5455H220.265V68.8125H212.075V74.1307H219.489V76.3892H212.075V84H209.441ZM227.852 84.2642C226.625 84.2642 225.554 83.983 224.639 83.4205C223.724 82.858 223.014 82.071 222.509 81.0597C222.003 80.0483 221.75 78.8665 221.75 77.5142C221.75 76.1562 222.003 74.9687 222.509 73.9517C223.014 72.9347 223.724 72.1449 224.639 71.5824C225.554 71.0199 226.625 70.7386 227.852 70.7386C229.08 70.7386 230.151 71.0199 231.065 71.5824C231.98 72.1449 232.69 72.9347 233.196 73.9517C233.702 74.9687 233.955 76.1562 233.955 77.5142C233.955 78.8665 233.702 80.0483 233.196 81.0597C232.69 82.071 231.98 82.858 231.065 83.4205C230.151 83.983 229.08 84.2642 227.852 84.2642ZM227.861 82.125C228.656 82.125 229.315 81.9148 229.838 81.4943C230.361 81.0739 230.747 80.5142 230.997 79.8153C231.253 79.1165 231.381 78.3466 231.381 77.5057C231.381 76.6705 231.253 75.9034 230.997 75.2045C230.747 74.5 230.361 73.9347 229.838 73.5085C229.315 73.0824 228.656 72.8693 227.861 72.8693C227.06 72.8693 226.395 73.0824 225.866 73.5085C225.344 73.9347 224.955 74.5 224.699 75.2045C224.449 75.9034 224.324 76.6705 224.324 77.5057C224.324 78.3466 224.449 79.1165 224.699 79.8153C224.955 80.5142 225.344 81.0739 225.866 81.4943C226.395 81.9148 227.06 82.125 227.861 82.125ZM236.799 84V70.9091H239.262V72.9886H239.398C239.637 72.2841 240.058 71.7301 240.66 71.3267C241.268 70.9176 241.955 70.7131 242.722 70.7131C242.881 70.7131 243.069 70.7187 243.285 70.7301C243.506 70.7415 243.68 70.7557 243.805 70.7727V73.2102C243.702 73.1818 243.521 73.1506 243.259 73.1165C242.998 73.0767 242.737 73.0568 242.475 73.0568C241.873 73.0568 241.336 73.1847 240.864 73.4403C240.398 73.6903 240.029 74.0398 239.756 74.4886C239.484 74.9318 239.347 75.4375 239.347 76.0057V84H236.799ZM258.217 84H252.566V66.5455H258.396C260.106 66.5455 261.575 66.8949 262.802 67.5938C264.029 68.2869 264.969 69.2841 265.623 70.5852C266.282 71.8807 266.612 73.4347 266.612 75.2472C266.612 77.0653 266.279 78.6278 265.614 79.9347C264.955 81.2415 264.001 82.2472 262.751 82.9517C261.501 83.6506 259.989 84 258.217 84ZM255.2 81.6989H258.072C259.401 81.6989 260.506 81.4489 261.387 80.9489C262.268 80.4432 262.927 79.7131 263.364 78.7585C263.802 77.7983 264.021 76.6278 264.021 75.2472C264.021 73.8778 263.802 72.7159 263.364 71.7614C262.933 70.8068 262.288 70.0824 261.43 69.5881C260.572 69.0937 259.506 68.8466 258.234 68.8466H255.2V81.6989ZM269.682 84V70.9091H272.145V72.9886H272.281C272.52 72.2841 272.94 71.7301 273.543 71.3267C274.151 70.9176 274.838 70.7131 275.605 70.7131C275.764 70.7131 275.952 70.7187 276.168 70.7301C276.389 70.7415 276.562 70.7557 276.688 70.7727V73.2102C276.585 73.1818 276.403 73.1506 276.142 73.1165C275.881 73.0767 275.619 73.0568 275.358 73.0568C274.756 73.0568 274.219 73.1847 273.747 73.4403C273.281 73.6903 272.912 74.0398 272.639 74.4886C272.366 74.9318 272.23 75.4375 272.23 76.0057V84H269.682ZM278.893 84V70.9091H281.441V84H278.893ZM280.18 68.8892C279.737 68.8892 279.356 68.7415 279.038 68.446C278.725 68.1449 278.569 67.7869 278.569 67.3722C278.569 66.9517 278.725 66.5937 279.038 66.2983C279.356 65.9972 279.737 65.8466 280.18 65.8466C280.623 65.8466 281.001 65.9972 281.313 66.2983C281.631 66.5937 281.79 66.9517 281.79 67.3722C281.79 67.7869 281.631 68.1449 281.313 68.446C281.001 68.7415 280.623 68.8892 280.18 68.8892ZM296.068 70.9091L291.321 84H288.594L283.838 70.9091H286.574L289.889 80.983H290.026L293.332 70.9091H296.068ZM303.66 84.2642C302.37 84.2642 301.259 83.9886 300.327 83.4375C299.401 82.8807 298.685 82.0994 298.18 81.0938C297.68 80.0824 297.43 78.8977 297.43 77.5398C297.43 76.1989 297.68 75.017 298.18 73.9943C298.685 72.9716 299.39 72.1733 300.293 71.5994C301.202 71.0256 302.265 70.7386 303.481 70.7386C304.219 70.7386 304.935 70.8608 305.629 71.1051C306.322 71.3494 306.944 71.733 307.495 72.2557C308.046 72.7784 308.481 73.4574 308.799 74.2926C309.117 75.1222 309.276 76.1307 309.276 77.3182V78.2216H298.87V76.3125H306.779C306.779 75.642 306.643 75.0483 306.37 74.5312C306.097 74.0085 305.714 73.5966 305.219 73.2955C304.731 72.9943 304.157 72.8438 303.498 72.8438C302.782 72.8438 302.157 73.0199 301.623 73.3722C301.094 73.7187 300.685 74.1733 300.396 74.7358C300.112 75.2926 299.969 75.8977 299.969 76.5511V78.0426C299.969 78.9176 300.123 79.6619 300.43 80.2756C300.742 80.8892 301.177 81.358 301.734 81.6818C302.29 82 302.941 82.1591 303.685 82.1591C304.168 82.1591 304.609 82.0909 305.006 81.9545C305.404 81.8125 305.748 81.6023 306.038 81.3239C306.327 81.0455 306.549 80.7017 306.702 80.2926L309.114 80.7273C308.921 81.4375 308.575 82.0597 308.075 82.5938C307.58 83.1222 306.958 83.5341 306.208 83.8295C305.464 84.1193 304.614 84.2642 303.66 84.2642ZM312.104 84V70.9091H314.567V72.9886H314.703C314.942 72.2841 315.362 71.7301 315.964 71.3267C316.572 70.9176 317.26 70.7131 318.027 70.7131C318.186 70.7131 318.374 70.7187 318.589 70.7301C318.811 70.7415 318.984 70.7557 319.109 70.7727V73.2102C319.007 73.1818 318.825 73.1506 318.564 73.1165C318.303 73.0767 318.041 73.0568 317.78 73.0568C317.178 73.0568 316.641 73.1847 316.169 73.4403C315.703 73.6903 315.334 74.0398 315.061 74.4886C314.788 74.9318 314.652 75.4375 314.652 76.0057V84H312.104ZM331.124 74.1051L328.815 74.5142C328.718 74.2187 328.565 73.9375 328.354 73.6705C328.15 73.4034 327.871 73.1847 327.519 73.0142C327.167 72.8437 326.727 72.7585 326.198 72.7585C325.477 72.7585 324.874 72.9205 324.391 73.2443C323.908 73.5625 323.667 73.9744 323.667 74.4801C323.667 74.9176 323.829 75.2699 324.153 75.5369C324.477 75.804 324.999 76.0227 325.721 76.1932L327.8 76.6705C329.005 76.9489 329.903 77.3778 330.494 77.9574C331.085 78.5369 331.38 79.2898 331.38 80.2159C331.38 81 331.153 81.6989 330.698 82.3125C330.249 82.9205 329.621 83.3977 328.815 83.7443C328.013 84.0909 327.085 84.2642 326.028 84.2642C324.562 84.2642 323.366 83.9517 322.44 83.3267C321.513 82.696 320.945 81.8011 320.735 80.642L323.198 80.267C323.352 80.9091 323.667 81.3949 324.144 81.7244C324.621 82.0483 325.244 82.2102 326.011 82.2102C326.846 82.2102 327.513 82.0369 328.013 81.6903C328.513 81.3381 328.763 80.9091 328.763 80.4034C328.763 79.9943 328.61 79.6506 328.303 79.3722C328.002 79.0937 327.539 78.8835 326.914 78.7415L324.698 78.2557C323.477 77.9773 322.573 77.5341 321.988 76.9261C321.408 76.3182 321.119 75.5483 321.119 74.6165C321.119 73.8437 321.335 73.1676 321.766 72.5881C322.198 72.0085 322.795 71.5568 323.556 71.233C324.317 70.9034 325.19 70.7386 326.173 70.7386C327.587 70.7386 328.701 71.0455 329.513 71.6591C330.326 72.267 330.863 73.0824 331.124 74.1051Z" fill="white"/>
<g clip-path="url(#clip0_4_13)">
<path d="M205.609 51C204.261 50.4452 204 49.9757 204 48.482C204.13 40.4159 210.217 33.0326 218.261 31.4109C222.783 30.5147 227.391 30.3866 231.783 32.0084C238.478 34.4837 242.435 39.3063 243.783 46.2201C243.913 46.9883 244 47.7565 244 48.5674C244 50.0184 243.696 50.4879 242.391 51.0427H241.565C240.391 50.6586 239.957 49.8477 239.913 48.6527C239.826 42.6352 235.609 37.2151 229.652 35.508C226.478 34.6117 223.261 34.6971 220.043 35.1239C213.391 36.0628 208.174 41.995 208.087 48.6101C208.087 49.805 207.609 50.6586 206.435 51.0427H205.609V51Z" fill="white"/>
<path d="M214.87 51.0001C213.522 50.4026 213.174 49.8478 213.261 48.3541C213.609 42.3365 219.13 37.8127 225.261 38.4955C230.435 39.093 234.391 43.1901 234.783 48.2687C234.87 49.7624 234.522 50.3599 233.174 50.9574H232.348C231.174 50.5733 230.652 49.7624 230.696 48.5675C230.696 48.3541 230.652 48.1407 230.609 47.9273C230.13 44.6411 227.087 42.2085 223.609 42.3792C220.304 42.5499 217.435 45.2813 217.348 48.5675C217.348 49.7624 216.87 50.5733 215.696 50.9574H214.87V51.0001Z" fill="white"/>
<path d="M223.478 51C222.565 50.6585 221.826 50.1464 221.522 49.1648C221.174 47.8845 221.913 46.5615 223.174 46.1347C224.478 45.7079 225.87 46.3908 226.348 47.6284C226.826 48.8661 226.217 50.2318 225 50.7866C224.826 50.8719 224.652 50.9146 224.478 51H223.478Z" fill="white"/>
<path d="M223.783 0C231.348 0 237.478 6.06025 237.478 13.4862C237.478 20.8695 231.304 26.9297 223.783 26.887C216.217 26.887 210.087 20.8268 210.087 13.4008C210.087 6.01757 216.261 0 223.783 0ZM223.783 22.918C229.087 22.918 233.435 18.6502 233.435 13.4435C233.435 8.23682 229.087 4.01172 223.783 4.01172C218.478 4.01172 214.13 8.23682 214.13 13.4862C214.13 18.6929 218.478 22.9607 223.783 22.9607V22.918Z" fill="white"/>
</g>
<defs>
<clipPath id="clip0_4_13">
<rect width="40" height="51" fill="white" transform="translate(204)"/>
</clipPath>
</defs>
</svg>
