<svg width="260" height="78" viewBox="0 0 260 78" fill="none" xmlns="http://www.w3.org/2000/svg">
<g clip-path="url(#clip0_132_360)">
<path d="M46.7059 5.04641C46.7059 3.62025 46.2684 2.4135 45.284 1.42616C44.2995 0.438819 43.0963 0 41.6744 0H5.03155C3.60959 0 2.40639 0.548523 1.42196 1.42616C0.546908 2.4135 0 3.62025 0 5.04641C0 6.47257 0.546908 7.78903 1.42196 8.66667C2.40639 9.5443 3.60959 10.0928 5.03155 10.0928H41.565C42.987 10.0928 44.2995 9.65401 45.1746 8.66667C46.0496 7.67932 46.5965 6.47257 46.5965 5.04641H46.7059Z" fill="url(#paint0_linear_132_360)"/>
<path d="M125.789 21.173C122.07 17.443 116.82 15.0295 111.132 15.0295C99.647 15.0295 90.3496 24.3544 90.3496 35.8734V56.7173H111.132C116.82 56.7173 122.07 54.4135 125.789 50.5738C129.508 46.8439 131.915 41.5781 131.915 35.8734C131.915 30.1688 129.618 24.903 125.789 21.173ZM118.351 43.1139C116.492 44.9789 113.976 46.076 111.132 46.076H100.96V35.8734C100.96 30.1688 105.554 25.6709 111.132 25.6709C116.711 25.6709 116.492 26.7679 118.351 28.6329C120.211 30.4979 121.305 33.0211 121.305 35.8734C121.305 38.7257 120.211 41.249 118.351 43.1139Z" fill="#EF5AFF"/>
<path d="M90.351 78C85.5382 78 81.4911 74.0506 81.4911 69.1139C81.4911 64.2869 85.4289 60.2278 90.351 60.2278H99.2109V69.1139C99.2109 73.9409 95.2732 78 90.351 78Z" fill="#EF5AFF"/>
<path d="M78.6468 16.0168C77.2248 16.0168 75.9123 16.5654 74.9278 17.443C73.9434 18.4303 73.3965 19.7468 73.3965 21.2827V51.6709C73.3965 53.097 73.9434 54.4135 74.9278 55.4008C75.9123 56.3882 77.2248 56.9367 78.6468 56.9367C80.0688 56.9367 81.4907 56.3882 82.4752 55.4008C83.4596 54.4135 83.8971 53.097 83.8971 51.6709V21.2827C83.8971 19.7468 83.3502 18.4303 82.4752 17.443C81.4907 16.4557 80.1781 16.0168 78.6468 16.0168Z" fill="#EF5AFF"/>
<path d="M40.4727 34.7763V51.5611C40.4727 52.9873 41.0196 54.3038 42.004 55.2911C42.9884 56.2784 44.301 56.827 45.723 56.827C47.1449 56.827 48.4575 56.2784 49.4419 55.2911C50.4264 54.3038 50.9733 52.9873 50.9733 51.5611V34.7763C50.9733 31.5949 51.739 29.2911 53.3797 27.7552C55.0204 26.2194 57.208 25.5611 60.052 25.5611C62.8959 25.5611 60.8176 25.5611 61.2552 25.5611C63.5522 25.8902 65.7398 24.6835 66.6149 22.4894C67.7087 19.6371 66.0679 16.4556 63.1146 15.9071C60.1613 15.3586 59.9426 15.4683 58.7394 15.4683C55.3486 15.4683 52.1765 16.2362 49.4419 17.7721C46.598 19.308 44.4104 21.5021 42.8791 24.4641C41.3477 27.3164 40.582 30.827 40.582 34.7763H40.4727Z" fill="#EF5AFF"/>
<path d="M18.1582 19.308V51.6709C18.1582 53.097 18.7051 54.4135 19.6895 55.4008C20.674 56.3882 21.9866 56.9367 23.4085 56.9367C24.8305 56.9367 26.1431 56.3882 27.1275 55.4008C28.1119 54.4135 28.6588 53.097 28.6588 51.6709V19.308C28.6588 16.1266 29.4245 13.8228 31.0652 12.2869C32.706 10.7511 34.8936 10.2025 37.6281 10.2025C40.3627 10.2025 40.6908 10.2025 41.019 10.2025C43.4253 10.3122 45.3942 9.21519 46.2693 7.1308C47.4725 4.27848 45.7224 0 41.7846 0C41.7846 0 37.4094 0 36.3155 0C32.9247 0 29.7527 0.767932 27.0181 2.3038C24.1742 3.83966 21.9866 6.03375 20.4552 8.99578C18.9239 11.8481 18.1582 15.3587 18.1582 19.308Z" fill="#EF5AFF"/>
<path d="M162.54 50.5739H160.572C158.275 50.5739 156.415 49.806 154.884 48.1604C153.462 46.5148 152.696 44.5401 152.696 42.0169V22.3798H161.009C161.775 22.3798 162.431 22.1604 162.869 21.7216C163.306 21.2827 163.525 20.6245 163.525 19.9663C163.525 19.3081 163.306 18.6498 162.869 18.211C162.431 17.7722 161.775 17.5528 161.009 17.5528H152.696V5.9241C152.696 5.04646 152.477 4.38823 151.93 3.83971C151.383 3.29119 150.727 3.07178 149.852 3.07178C148.977 3.07178 148.321 3.29119 147.883 3.83971C147.336 4.38823 147.118 5.04646 147.118 5.9241V17.4431H142.305C141.539 17.4431 140.883 17.6625 140.445 18.1013C140.008 18.5401 139.789 19.1984 139.789 19.8566C139.789 20.5148 140.008 21.173 140.445 21.6119C140.883 22.0507 141.539 22.2701 142.305 22.2701H147.118V41.9072C147.118 44.6498 147.665 47.0633 148.868 49.1477C150.071 51.2321 151.602 52.9874 153.681 54.1941C155.759 55.4009 158.056 56.0591 160.681 56.0591H162.212C163.087 56.0591 163.853 55.8397 164.4 55.2912C164.947 54.7427 165.275 54.0844 165.275 53.3165C165.275 52.5486 165.056 51.7806 164.509 51.2321C164.072 50.6836 163.415 50.4642 162.65 50.4642L162.54 50.5739Z" fill="white"/>
<path d="M200.605 18.211C197.543 16.4557 194.042 15.4684 190.214 15.4684C186.386 15.4684 182.886 16.346 179.823 18.211C176.76 19.9663 174.244 22.4895 172.494 25.6709C170.744 28.8524 169.76 32.2532 169.76 36.0929C169.76 39.9325 170.635 43.4431 172.385 46.5148C174.135 49.5865 176.541 52.1097 179.495 53.865C182.229 55.5106 185.183 56.3882 188.573 56.4979C188.573 56.4979 188.683 56.4979 188.792 56.4979C189.777 56.4979 192.949 56.4979 193.167 56.4979H210.559V35.9832C210.559 32.1435 209.684 28.6329 207.825 25.5612C206.074 22.3798 203.559 19.9663 200.496 18.1013L200.605 18.211ZM188.792 51.3418C186.495 51.1224 184.526 50.5739 182.557 49.4768C180.26 48.1604 178.51 46.2954 177.198 43.9916C175.885 41.6878 175.229 39.0549 175.229 36.0929C175.229 33.1308 175.885 30.6076 177.198 28.1941C178.51 25.8903 180.26 24.0253 182.557 22.7089C184.854 21.3924 187.37 20.7342 190.214 20.7342C193.058 20.7342 195.574 21.3924 197.761 22.7089C200.058 24.0253 201.809 25.8903 203.121 28.1941C204.434 30.4979 205.09 33.1308 205.09 36.0929V51.3418H188.902H188.792Z" fill="white"/>
<path d="M257.373 25.6709C255.623 22.4895 253.108 20.076 250.045 18.211C246.982 16.4557 243.482 15.4684 239.654 15.4684C235.825 15.4684 232.325 16.346 229.262 18.211C226.2 19.9663 223.684 22.4895 221.934 25.6709C220.184 28.8523 219.199 32.2532 219.199 36.0929V70.5401C219.199 71.4178 219.418 72.076 219.965 72.6245C220.512 73.173 221.168 73.3924 221.934 73.3924C222.699 73.3924 223.465 73.173 224.012 72.6245C224.559 72.076 224.778 71.4178 224.778 70.5401V56.6076H236.591C236.81 56.6076 239.982 56.6076 240.966 56.6076C241.076 56.6076 241.185 56.6076 241.185 56.6076C244.466 56.4979 247.529 55.5106 250.264 53.9747C253.326 52.2194 255.623 49.6962 257.373 46.6245C259.124 43.5528 259.999 40.0422 259.999 36.2026C259.999 32.3629 259.124 28.8523 257.264 25.7806L257.373 25.6709ZM252.561 43.9916C251.248 46.2954 249.498 48.1604 247.201 49.4768C245.341 50.5739 243.263 51.2321 240.966 51.3418H224.778V36.0929C224.778 33.2405 225.434 30.6076 226.747 28.1941C228.059 25.8903 229.809 24.0253 232.106 22.7089C234.403 21.3924 236.919 20.7342 239.654 20.7342C242.388 20.7342 245.013 21.3924 247.31 22.7089C249.607 24.0253 251.357 25.8903 252.67 28.1941C253.983 30.4979 254.639 33.1308 254.639 36.0929C254.639 39.0549 253.983 41.5781 252.67 43.9916H252.561Z" fill="white"/>
</g>
<defs>
<linearGradient id="paint0_linear_132_360" x1="0" y1="5.04641" x2="46.7059" y2="5.04641" gradientUnits="userSpaceOnUse">
<stop stop-color="#75D2FD"/>
<stop offset="0.5" stop-color="#46C5F2"/>
<stop offset="0.8" stop-color="#28BDEB"/>
<stop offset="1" stop-color="#1EBBE9"/>
</linearGradient>
<clipPath id="clip0_132_360">
<rect width="260" height="78" fill="white"/>
</clipPath>
</defs>
</svg>
