<svg width="111" height="104" viewBox="0 0 111 104" fill="none" xmlns="http://www.w3.org/2000/svg">
<rect width="110.507" height="103.663" rx="9" fill="#6F6F6F"/>
<g clip-path="url(#clip0_7_228)">
<path d="M47.5527 34.7974L48.143 35.2156L48.6984 35.5989L49.497 36.3656C49.7053 36.5747 50.0178 36.6793 50.3302 36.6444H50.4691C50.6427 36.7489 50.7816 36.6444 50.9899 36.6096H51.4759C51.4759 36.5747 51.8231 36.2959 51.8231 36.2959L52.3786 35.6686C52.6911 35.3898 52.5175 35.3201 52.2745 35.2504L51.9967 35.4247H51.6148C51.6148 35.3898 50.7816 35.2504 50.7816 35.2504L51.2329 34.658L51.8926 34.7625L52.2397 34.8671C52.5522 34.9368 52.6216 34.7277 52.3786 34.5534L51.719 34.2049L50.5385 33.9958L49.2539 34.3443L48.3165 34.1004L47.5527 34.7974Z" fill="#FFB294"/>
<path d="M42.1715 26.4683C43.5255 27.4789 43.6991 30.4411 44.3587 33.1245L49.2193 34.3094C48.7333 34.6579 48.6638 35.2852 48.8374 35.7382C46.7543 35.9821 44.4282 35.5291 42.6922 35.4246C40.1578 35.1806 43.3172 30.5108 40.3661 29.8138L42.1715 26.4683Z" fill="#7C4DA1"/>
<path d="M41.3729 60.2373C40.1924 59.9585 39.2203 59.4358 38.8384 58.5994C39.3592 55.6721 41.3381 53.2326 43.0394 49.678L38.6648 49.8871C36.7553 53.0235 37.658 56.9963 36.7553 58.6691C36.2345 59.401 35.9568 60.1328 36.547 60.7949L38.2482 60.6904L39.9841 61.6662L41.7895 61.5268C41.9631 60.9343 42.0672 60.3767 41.3729 60.2025V60.2373Z" fill="#FFB294"/>
<path d="M36.6164 58.948C35.7832 59.5753 35.8179 60.6208 36.0957 61.4223C36.6859 62.189 37.8663 61.5966 38.6995 61.7708C40.6091 62.189 40.6438 62.642 41.5118 62.5723C42.9699 62.4678 43.9073 61.8056 43.8032 61.3178C43.7337 60.9344 43.0741 60.5511 42.0325 60.2374L40.366 59.9238C40.6438 60.0632 40.991 60.1677 41.3729 60.2723C41.9284 60.5859 41.7548 60.9693 41.2687 61.4223C40.7479 61.7011 40.0536 61.492 39.1509 61.0738L37.2414 60.2723C36.7206 59.9935 36.4776 59.5753 36.6164 58.9828V58.948Z" fill="#502D0E"/>
<path d="M34.9153 64.7329C34.8111 64.0011 34.7764 63.3389 35.0194 62.851C36.304 58.7388 34.2209 57.1357 36.8942 52.8493C35.7138 48.9113 36.2346 47.3431 35.436 41.6975C36.3387 38.3868 42.5186 39.258 41.4424 40.2338C41.7201 43.3354 40.9563 48.8764 40.0189 52.5008C39.1856 55.219 37.2067 58.9828 36.9984 62.5722C37.4844 64.0359 37.5886 64.9768 38.4913 65.7435L38.0399 67.0678C38.0399 67.0678 36.3387 66.7542 36.304 66.6496C36.304 66.5451 34.95 64.7329 34.95 64.7329H34.9153Z" fill="#FFB294"/>
<path d="M35.0194 62.8511C34.4639 63.3738 34.5333 64.3496 34.7069 65.0466C35.0194 65.6042 35.436 65.9527 35.922 66.7891L36.3734 67.3466C37.2761 68.0088 38.8037 68.0436 39.3245 67.6254C39.6369 66.9981 39.1856 66.4057 38.0746 65.3951C38.5259 66.1966 38.0746 66.6148 37.033 66.58C36.547 66.5103 36.1651 65.8481 35.5749 64.9769C35.0194 64.0708 34.6722 63.5132 35.0194 62.8511Z" fill="#502D0E"/>
<path d="M44.1157 49.6432C43.5602 51.2115 42.6575 52.1872 41.4771 52.6403C40.8521 52.8842 40.1925 52.9888 39.4287 52.9539C38.4913 52.9539 37.4497 52.71 36.304 52.3266L35.436 44.381C35.0541 42.0112 34.9847 39.8506 36.0263 38.2823C36.1651 38.1081 36.304 37.899 36.4429 37.7596L42.5534 36.8535C44.2893 38.1081 44.6712 44.2764 44.081 49.6432H44.1157Z" fill="#502D0E"/>
<g style="mix-blend-mode:multiply" opacity="0.5">
<path d="M41.4771 52.6402L39.4287 52.9538C38.4913 52.9538 37.4497 52.7099 36.304 52.3265L35.436 44.3809C35.0541 42.0111 34.9847 39.8504 36.0263 38.2822L43.1783 39.7459C42.1715 44.8688 36.061 48.4234 41.4424 52.6402H41.4771Z" fill="#912005"/>
</g>
<path d="M43.1088 35.1109L43.4213 38.8049C42.9352 43.1959 36.79 42.255 35.3666 39.711C35.5749 38.4216 36.547 37.864 35.9915 36.6094C35.2277 34.9018 34.6722 33.5426 34.6722 33.5426C34.4986 33.0896 34.325 32.7063 34.2209 32.3578C33.7695 31.0335 33.7695 30.0926 34.8458 29.0819C36.9289 27.3743 39.0815 26.2591 41.4423 26.2243C42.3797 25.9106 42.9005 27.8273 42.6922 29.2562C42.5186 30.5456 44.324 31.8002 44.4628 32.7063C44.7059 34.4487 43.1435 35.1457 43.1435 35.1457L43.1088 35.1109Z" fill="#EF5AFF"/>
<path d="M40.8174 30.5805L39.6022 29.9184L38.3524 31.2775C38.3524 31.2775 38.2135 29.3259 37.7274 28.6638C37.2414 28.0365 37.2066 26.8168 38.3871 26.0152C39.5675 25.2137 41.3034 26.5031 41.3034 26.5031C41.6506 27.7577 42.3797 28.5592 42.5186 28.6638C43.213 29.1865 41.8936 28.7683 41.477 28.4547L40.8174 30.6154V30.5805Z" fill="white"/>
<path d="M43.4212 38.7702C42.9352 43.1612 36.79 42.2203 35.3665 39.6763C35.5748 38.3869 36.547 37.8293 35.9915 36.5747C35.2277 34.8671 34.6722 33.5079 34.6722 33.5079C34.4986 33.0549 34.325 32.6716 34.2208 32.3231C34.2903 31.6609 34.4291 31.1033 34.568 31.2427C37.3108 33.8564 37.7274 37.1671 40.3313 36.7141C41.7895 36.4701 41.9631 34.7277 41.9631 34.7277C42.345 35.0413 42.7269 35.1807 43.1088 35.111L43.4212 38.8051V38.7702Z" fill="#AD00C6"/>
<path d="M41.3035 26.3637C41.3035 26.3985 41.3035 26.4334 41.3035 26.5031C41.1299 27.2698 41.0604 27.7925 41.0257 28.2107C40.9216 29.0471 41.0257 29.3956 40.8174 30.4759C39.7411 29.5001 38.4218 29.1168 37.8663 27.0955L37.9705 24.2727L41.1646 26.1197L41.3035 26.3288V26.3637Z" fill="#FFB294"/>
<g style="mix-blend-mode:multiply">
<path d="M41.2687 26.4684C41.0951 27.2351 41.0257 27.7578 40.991 28.176C39.4286 27.9669 38.8037 25.632 38.8384 25.5972L41.3034 26.4684H41.2687Z" fill="#FFC8B3"/>
</g>
<path d="M40.6438 20.9272C40.6438 20.9272 43.4213 21.1015 43.8379 23.4713C43.8379 23.4713 43.9073 25.6319 42.6575 25.8062C41.4076 26.0153 40.6438 20.9272 40.6438 20.9272Z" fill="black"/>
<path d="M39.9495 25.5623C39.9495 25.5623 40.0536 27.1653 40.7827 27.479C41.5465 27.7578 41.9632 27.7229 41.9632 27.7229C41.9632 27.7229 42.6575 27.7229 42.9353 26.4335C42.9353 26.3638 43.0047 26.3289 43.0394 26.2941L43.2477 26.2244C43.3519 26.1895 43.3866 26.085 43.3866 25.9805L43.1783 25.1092C43.1783 25.1092 43.3519 23.6455 43.1436 22.8789C42.727 21.5546 39.5676 20.544 38.4219 22.4607C37.2761 24.3774 38.4913 25.632 38.4913 25.632L39.9495 25.5623Z" fill="#FFB294"/>
<path d="M43.3866 22.7744C43.3866 22.7744 43.2824 25.3532 41.6854 26.5032C41.0952 26.782 40.1231 27.2351 40.2272 28.1412C40.2272 28.1412 37.8663 28.1412 37.3803 25.9457C36.8942 23.7153 37.7275 21.5546 39.0121 21.1713C42.2062 20.1955 43.3866 22.8092 43.3866 22.8092V22.7744Z" fill="black"/>
<path d="M32.4155 42.9521L32.1031 43.8234L30.7838 45.3916L30.2977 46.4719L29.9852 47.7265C29.9158 47.9705 30.0547 48.1447 30.1588 48.0053L30.02 48.528C29.9158 48.9114 30.1588 48.9811 30.2977 48.6674L31.0962 46.9947L30.4713 48.772C30.3671 49.1205 30.6102 49.1902 30.7838 48.8765L31.6865 46.9947L31.2698 48.528C31.1657 48.9462 31.374 49.0508 31.5823 48.6674L32.7627 46.1931L32.8322 47.2038L32.9363 47.7265C33.0058 48.075 33.3182 47.9705 33.3182 47.5871V47.0992L33.5613 46.2628L33.2488 44.381L33.1794 43.0915L32.4155 42.9521Z" fill="#FFC1A8"/>
<path d="M34.2557 29.6395C33.5613 30.0228 33.1794 33.0547 32.8322 36.3654C32.1726 37.8988 32.4503 41.2443 32.0337 43.9277C32.4503 43.9277 32.7281 44.2414 33.2836 44.5202C33.5266 41.6974 34.8112 39.2928 34.4987 37.0973C35.0542 35.5987 35.7486 34.1002 36.1999 32.9502C36.8249 31.4517 35.5055 29.291 34.2904 29.6046L34.2557 29.6395Z" fill="#7C4DA1"/>
<path d="M40.991 33.3684L38.9773 34.2396L38.6301 33.2638L40.6438 32.3926L40.991 33.3684Z" fill="white"/>
<path d="M85.1184 33.2638V52.2915C85.1184 52.5355 84.9448 52.8143 84.5976 53.0234L38.6649 79.6135C37.9706 79.9968 36.8596 79.9968 36.1652 79.6135L27.2772 74.4558C26.9301 74.2467 26.7565 74.0027 26.7565 73.7239V54.6962L27.9369 54.5219L73.2099 28.35C73.9043 27.9318 75.0153 27.9318 75.7096 28.35L84.4587 33.4032L85.1184 33.2638Z" fill="#999999"/>
<g style="mix-blend-mode:multiply" opacity="0.8">
<path d="M85.1184 33.1593V40.6519C85.1184 40.8959 84.9448 41.1747 84.5976 41.3837L38.6649 68.0087C37.9706 68.392 36.8596 68.392 36.1652 68.0087L27.2772 62.851C26.9301 62.6419 26.7565 62.3979 26.7565 62.1191V54.6265L27.9369 54.4523L73.2099 28.2455C73.9043 27.8273 75.0153 27.8273 75.7096 28.2455L84.4587 33.2987L85.1184 33.1593Z" fill="#666666"/>
</g>
<path d="M84.5976 33.8911L38.6649 60.5161C37.9706 60.8994 36.8596 60.8994 36.1652 60.5161L27.2772 55.3583C26.5829 54.975 26.5829 54.3129 27.2772 53.8947L73.2099 27.3046C73.9043 26.9213 75.0153 26.9213 75.7096 27.3046L84.5976 32.4623C85.292 32.8456 85.292 33.5078 84.5976 33.926V33.8911Z" fill="#686A9A"/>
<path d="M86.9932 32.985L76.8206 27.0955C75.7791 26.503 74.1126 26.503 73.071 27.0955L23.8054 55.6371L22 55.881V57.3099C22 57.6932 22.243 58.1114 22.7638 58.3902L33.1794 64.4191C34.2209 65.0116 35.8874 65.0116 36.929 64.4191L87.2362 35.2851C87.757 34.9714 88 34.5881 88 34.2047V32.7759L86.9932 32.985Z" fill="#CCCCCC"/>
<path d="M87.2362 33.8563L36.929 63.0253C35.8875 63.6177 34.221 63.6177 33.1794 63.0253L22.7638 56.9963C21.7223 56.4039 21.7223 55.4281 22.7638 54.8357L73.071 25.6667C74.1126 25.0743 75.7791 25.0743 76.8206 25.6667L87.2362 31.6957C88.2778 32.2881 88.2778 33.2639 87.2362 33.8563Z" fill="#999999"/>
<path d="M41.6855 52.9887C41.6855 52.9539 41.6855 52.8842 41.6508 52.8493L40.1926 50.8978C40.1926 50.8629 40.1231 50.8281 40.0884 50.7932C39.9148 50.6887 39.6718 50.6538 39.4635 50.7235L33.4572 52.2569C33.2489 52.3266 33.11 52.4311 33.11 52.5705V53.3024C33.11 53.3372 33.11 53.4069 33.1447 53.4418L34.6029 55.3933C34.6029 55.4282 34.6723 55.463 34.707 55.4979C34.8806 55.6024 35.1237 55.6373 35.332 55.5676L41.3383 54.0342C41.5466 53.9645 41.6855 53.86 41.6855 53.7206V52.9887Z" fill="#0E0E14"/>
<path d="M40.0537 50.8281C40.0884 50.8281 40.1578 50.8978 40.1578 50.9326L41.616 52.8842C41.7549 53.0584 41.616 53.2327 41.3383 53.3024L35.332 54.8357C35.1237 54.9054 34.8806 54.8357 34.707 54.766C34.6723 54.766 34.6029 54.6963 34.6029 54.6615L33.1447 52.7099C33.0058 52.5357 33.1447 52.3614 33.4224 52.2917L39.4288 50.7584C39.6371 50.6887 39.8801 50.7584 40.0537 50.8281Z" fill="#748597"/>
<path d="M45.435 39.293V49.3993L28.8743 53.6509V43.5097L45.435 39.293Z" fill="#333942"/>
<path d="M28.8743 43.5097V53.6509L28.5271 53.1979L28.5618 43.0916L28.8743 43.5097Z" fill="#333942"/>
<path d="M45.1225 38.8398L45.435 39.2929L28.8742 43.5097L28.5618 43.0915L45.1225 38.8398Z" fill="#748597"/>
<path d="M45.1225 38.8398L45.435 39.2929L28.8742 43.5097L28.5618 43.0915L45.1225 38.8398Z" fill="#748597"/>
<path d="M41.6854 43.3354V48.9462L32.485 51.316V45.6704L41.6854 43.3354Z" fill="#4D5865"/>
<path d="M32.485 45.6705V51.3161L32.3114 51.0721V45.4265L32.485 45.6705Z" fill="#333942"/>
<path d="M41.5118 43.0916L41.6854 43.3355L32.485 45.6704L32.3114 45.4265L41.5118 43.0916Z" fill="#748597"/>
<path d="M41.5118 43.0916L41.6854 43.3355L32.485 45.6704L32.3114 45.4265L41.5118 43.0916Z" fill="#748597"/>
<path d="M38.526 48.4583L38.4913 52.8144L36.2693 53.4069L36.304 49.0158L38.526 48.4583Z" fill="#748597"/>
<path d="M38.526 48.4583L38.4913 52.8144L36.2693 53.4069L36.304 49.0158L38.526 48.4583Z" fill="#4D5865"/>
<path d="M36.3041 49.0158L36.2693 53.4069L35.818 52.8144L35.9569 48.5977L36.3041 49.0158Z" fill="#0E0E14"/>
<path d="M38.2136 48.04L38.5261 48.4582L36.3041 49.0158L35.9569 48.5976L38.2136 48.04Z" fill="#6F819A"/>
<path d="M66.6482 38.8398C66.4399 38.7701 66.1968 38.7004 65.9191 38.6655C65.1205 38.561 64.1831 38.6655 63.2805 38.8049C61.0932 39.2231 58.9754 40.1292 58.9754 40.1292L55.8854 41.9065C55.8854 41.9065 54.3231 43.1262 53.6287 44.3808C53.3162 44.9036 53.1774 45.4611 53.3857 45.9142C53.4551 46.0536 53.5245 46.193 53.6634 46.3324C55.5729 48.1446 57.2742 49.434 58.6629 50.3749L73.7655 41.7323C72.099 40.8959 69.8076 39.9201 66.6482 38.8049V38.8398Z" fill="#EF5AFF"/>
<path d="M58.7671 47.0642L61.1627 49.0158L61.4751 48.8415L58.7671 47.0642Z" fill="#A32B1D"/>
<path d="M67.9327 41.7671L70.988 43.3702L71.3352 43.1959L67.9327 41.7671Z" fill="#A32B1D"/>
<path d="M59.9475 42.0807L59.8087 39.8155L58.2116 39.1185C57.6214 39.0488 56.4757 39.4322 55.6077 39.9549C54.7397 40.4428 54.0454 41.105 54.1495 41.4535L55.3647 42.3944L59.2879 42.4641C59.4268 42.4989 62.6209 44.3459 65.9538 46.2627L66.1622 46.1581L66.2663 46.0884L66.5441 45.949C63.2458 44.0323 60.0517 42.1853 59.9475 42.0807Z" fill="#760087"/>
<path d="M53.6287 44.4158C53.3162 44.9385 53.1774 45.4961 53.3857 45.9491C54.1148 45.9491 56.3715 46.0188 58.7671 47.0992C57.6908 46.4022 55.2952 44.7294 53.6634 44.4158H53.6287Z" fill="#760087"/>
<path d="M67.9328 41.7671C66.058 40.408 65.9191 39.0837 65.9538 38.6655C65.1553 38.561 64.2179 38.6655 63.3152 38.8049C63.8707 39.7807 66.7176 41.1398 67.9328 41.7671Z" fill="#760087"/>
<path d="M57.9685 39.4671C57.6907 39.2928 56.7186 39.6762 55.9201 40.1641C55.1216 40.6171 54.4619 41.1747 54.7396 41.3489C55.3993 41.8717 57.0658 41.9414 58.9753 41.9414C58.9753 40.8262 58.8712 39.8504 57.9685 39.5019V39.4671Z" fill="#430051"/>
<path d="M58.6977 50.4097C58.4546 54.1038 59.1837 54.8705 59.1837 54.8705L61.1627 55.0099L61.6487 55.8462L70.8839 50.5143L71.3699 49.1203L73.3489 46.6809C73.3489 46.6809 74.0433 45.1475 73.835 41.7671L58.7324 50.4097H58.6977Z" fill="#E52CFF"/>
<path d="M61.0933 48.981L60.1559 55.5326L61.1627 54.975L61.4405 48.8416L61.0933 48.981Z" fill="#AD00C6"/>
<path d="M70.988 43.3702L71.3352 49.0855L72.3421 48.4582L71.3699 43.1611L70.988 43.3702Z" fill="#AD00C6"/>
<path d="M66.5094 45.9491L66.1969 45.8794L65.9539 46.0536V46.2976C65.9539 49.8174 65.9539 53.372 65.9539 53.372L66.5441 53.0235C66.5441 53.0235 66.5441 49.4689 66.5441 45.9491H66.5094Z" fill="#760087"/>
<path d="M59.1143 56.0901L59.1837 54.8704L61.1974 53.79L61.1627 54.9749L59.1143 56.0901Z" fill="#760087"/>
<path d="M71.2657 47.9703L71.3352 49.0855L73.3836 47.8309L73.3141 46.6809L71.2657 47.9703Z" fill="#760087"/>
<path d="M61.6488 56.8918L70.8492 51.5598V50.4795L61.6488 55.8463V56.8918Z" fill="#760087"/>
<path d="M61.996 53.6158L64.8429 50.4794V49.887L61.996 53.0234V53.6158Z" fill="#AD00C6"/>
<path d="M67.655 48.8415L70.4672 48.7021V48.1096L67.655 48.249V48.8415Z" fill="#AD00C6"/>
<path d="M68.7659 40.0595L67.5161 40.5126L65.5024 40.1989L64.1831 40.408L63.454 40.7216C63.3846 40.7216 63.3499 40.7913 63.3151 40.8262L63.211 40.9656L63.0374 41.0701C62.9332 41.1398 62.8638 41.2792 62.8638 41.4186L62.7249 41.6277C62.6902 41.7671 62.8291 41.9065 62.9332 41.8368L63.1763 41.6974L63.6623 41.5929H64.5303L65.2941 42.0459V42.255C65.0858 42.499 64.5997 42.7081 64.5997 42.7081L64.322 42.8126C64.1484 42.9869 64.1137 43.2308 64.3914 43.2308H64.808C64.808 43.196 66.2662 42.7778 66.2662 42.7778L67.5855 42.0111L69.1131 41.5929L68.7312 40.0247L68.7659 40.0595Z" fill="#FFB294"/>
<path d="M74.807 78.0453C74.807 78.0453 74.7029 78.9513 76.6124 79.1953C78.5219 79.4392 79.4593 79.1953 79.4593 79.1953C79.4593 79.1953 80.9175 79.6483 81.716 79.2998C82.5146 78.9513 82.3062 78.6725 82.3062 78.6725C82.2368 77.6968 81.9591 76.721 81.473 75.78L79.2857 74.9785L78.9733 76.477L77.3415 77.0695C77.3415 77.0695 75.0848 77.2089 74.8418 78.0453H74.807Z" fill="black"/>
<path d="M72.7239 70.0647C73.5571 70.1692 74.0085 70.2041 74.3557 70.2041C74.7723 70.2041 74.9459 70.2041 75.3972 70.3086C76.0916 70.448 76.2305 70.9359 77.1331 71.1102C77.2026 71.1102 77.272 71.1102 77.3414 71.1102C77.4456 71.1102 77.5498 71.1102 77.6539 71.1102V66.9631L77.0637 66.7192L76.5082 66.5101L75.918 66.2661V66.3358L75.4319 67.3813L74.7723 67.5555L73.8349 67.7995C73.8349 67.7995 73.3488 67.7646 72.7586 67.7995C72.2378 67.7995 71.6476 67.9389 71.2657 68.148C70.3977 68.601 70.7796 69.7511 72.7239 69.995V70.0647Z" fill="black"/>
<path d="M73.8696 56.3689C74.5987 60.969 74.5292 64.2797 75.4319 67.451C75.6749 67.6601 75.8833 67.8344 76.1263 67.9738C76.1957 67.9738 76.2304 68.0435 76.2999 68.0783C76.3346 68.0783 76.3693 68.1131 76.4388 68.148C76.7165 68.2874 76.9943 68.3571 77.272 68.4268C77.3762 68.4268 77.515 68.4616 77.6192 68.4616C78.0011 68.4616 78.4177 68.4616 79.7023 68.3919L79.2162 58.9826L79.3204 56.3341L80.6397 52.8491L81.4035 50.8279L80.5703 50.5491L78.5566 49.8521L77.7233 49.5733L76.1957 49.0505L76.0221 49.5384L75.2236 51.6642L74.3904 53.8946L73.8696 55.2537C73.7307 55.6022 73.696 55.9856 73.7654 56.3689H73.8696Z" fill="#00A1CC"/>
<path d="M80.2925 64.0357C81.959 68.2177 82.3062 73.4102 82.3757 75.536C82.3757 75.9891 82.2021 76.4073 81.8896 76.6512C81.716 76.7906 81.473 76.8952 81.2299 76.9649C80.8828 77.0346 80.5009 77.0346 80.1537 77.0346C79.6329 77.0346 79.1815 76.8255 78.8344 76.5118C78.5566 76.2679 78.383 75.9542 78.2789 75.5709C78.2789 75.5709 78.2789 75.5709 78.2789 75.536C78.14 74.9784 77.9664 74.2815 77.7928 73.5496C77.5845 72.7829 77.3762 71.9465 77.1679 71.1102C76.8901 70.0647 76.6124 69.0192 76.3693 68.0434C76.1958 67.451 76.0569 66.8585 75.918 66.3706C75.6055 65.1858 75.3972 64.3842 75.3972 64.3842C74.4598 60.0281 75.675 54.6961 76.1958 52.8839C76.2652 52.6051 76.3346 52.396 76.3693 52.2915C76.3693 52.2566 76.3693 52.2218 76.3693 52.2218L78.2441 51.49L79.737 50.8975L80.6744 50.5142L83.0353 49.5732C83.1395 49.8869 83.2089 50.1657 83.2783 50.4445C83.9033 52.9536 83.2089 54.5219 81.9938 55.7416L80.2925 64.0009V64.0357Z" fill="#66CEFB"/>
<path d="M76.6471 62.4327C77.1331 64.8024 77.7928 73.6542 77.7928 73.6542L77.7233 73.5496C77.515 72.7829 77.3067 71.9466 77.0984 71.1102C76.8207 70.0647 76.5429 69.0192 76.2999 68.0434C76.1263 67.451 75.9874 66.8585 75.8485 66.3707C75.5361 65.1858 75.3278 64.3842 75.3278 64.3842C74.3904 60.0281 75.6055 54.6961 76.1263 52.8839C76.1957 52.6051 76.2652 52.3961 76.2999 52.2915L78.9732 53.1279C78.9732 53.1279 76.161 60.0281 76.6471 62.363V62.4327Z" fill="#00A1CC"/>
<path d="M67.3078 40.4777C67.4467 41.105 67.6897 41.6626 68.2105 42.0111C68.2105 42.0111 72.2378 41.4883 75.7791 40.0944L79.2857 35.1806L76.6471 33.7866L74.1126 37.5504L67.2731 40.4777H67.3078Z" fill="#606060"/>
<path d="M73.9043 42.464C73.9043 43.2656 74.0085 44.0671 74.182 44.8338V44.9035C74.182 45.6702 74.2862 46.4717 74.4251 47.2035C74.5639 48.0399 74.7375 48.8066 74.8764 49.4339C75.0847 50.2354 75.2236 50.793 75.2236 50.9673C75.2236 51.2112 75.2236 51.4203 75.293 51.6294C75.4319 52.187 75.7444 52.6052 76.1263 52.884C76.9248 53.4416 78.0705 53.4764 78.9732 53.3022C79.0426 53.3022 79.1121 53.3022 79.1815 53.2673H79.251C79.6676 53.1976 80.1884 53.0582 80.7091 52.8491C81.1605 52.6749 81.5771 52.4309 81.9937 52.1522C82.5839 51.734 83.0006 51.1415 83.2436 50.4794C83.5213 49.7127 83.5561 48.8415 83.2783 48.0399C82.1673 44.4156 82.0284 40.9655 82.3409 39.3973C82.7575 37.376 81.1605 32.7759 78.0358 33.2289C77.9316 33.2289 77.7928 33.2638 77.6886 33.2986C77.6886 33.2986 77.6192 33.2986 77.5845 33.2986C77.4456 33.3335 77.3067 33.4032 77.1678 33.438C77.029 33.5077 76.9248 33.5774 76.8207 33.682C76.6818 33.7865 76.5429 33.8562 76.4388 33.9608C76.1263 34.1699 75.8485 34.4138 75.6055 34.6578C75.3625 34.8669 75.1889 35.1108 75.0153 35.3548C74.8764 35.5639 74.7723 35.7729 74.6681 36.0169C74.5639 36.2608 74.4945 36.5048 74.4251 36.7836C74.3904 36.9578 74.3556 37.1669 74.3209 37.3412C74.1126 38.4912 73.9737 39.6761 73.9043 40.7913C73.9043 41.3488 73.9043 41.9413 73.9043 42.4989V42.464Z" fill="#606060"/>
<g style="mix-blend-mode:multiply" opacity="0.3">
<path d="M74.1474 44.8686V44.9383C74.1474 45.705 74.2515 46.5065 74.3904 47.2384C74.5293 48.0748 74.7029 48.8414 74.8418 49.4687C75.0501 50.2703 75.1889 50.8279 75.1889 51.0021C75.1889 51.2461 75.1889 51.4551 75.2584 51.6642C75.3973 52.2218 75.7097 52.64 76.0916 52.9188C76.8902 53.4764 78.0359 53.5113 78.9385 53.337C78.6261 52.7446 78.3831 52.1173 78.1747 51.5248C78.0359 51.1067 77.9317 50.6885 77.8623 50.2354C77.8276 50.0263 77.7928 49.8172 77.7581 49.5733C77.5151 47.6217 77.8276 45.5308 78.5914 43.0913C78.7302 42.6034 78.9038 42.1155 79.0774 41.5928L74.1127 44.8338L74.1474 44.8686Z" fill="#8C6239"/>
</g>
<path d="M78.1747 33.3335L79.2857 34.0653C79.2857 34.0653 79.2857 35.3199 77.8969 36.1911C76.5082 37.0972 74.6334 38.0382 74.6334 38.0382L75.3625 36.1214L74.564 35.9472C74.564 35.9472 75.7444 33.438 78.1747 33.3335Z" fill="white"/>
<path d="M75.3278 36.2261L74.4598 33.7867L77.6539 32.323L78.383 33.7867C78.6261 34.7276 75.7097 36.8534 75.3625 36.2261H75.3278Z" fill="#FFB294"/>
<path d="M75.5361 34.6927L74.1127 34.623C73.8002 34.623 73.4877 34.4487 73.3141 34.1699C72.8628 33.473 72.2726 31.8699 72.1684 30.6502C72.0296 28.7683 73.9391 27.8971 75.1889 27.9668C76.4735 28.0713 77.7581 28.7683 78.14 30.3365C78.5219 31.9047 77.6192 33.4033 77.6192 33.4033L75.5014 34.6578L75.5361 34.6927Z" fill="#FFB294"/>
<path d="M72.2378 31.2426C72.2378 31.2426 72.6544 31.7653 73.4877 32.0441C73.6266 32.1138 73.7654 32.2183 73.8349 32.3577L74.0779 32.9153L74.7375 33.2987L74.9111 33.6123C75.05 33.926 75.3972 34.1002 75.7097 34.0654C76.2304 34.0305 77.029 33.7866 78.0705 32.9153C78.0705 32.9153 79.1468 30.6501 77.6539 28.9425C76.161 27.2 74.0779 27.8273 73.3835 28.1758C72.7239 28.5243 71.1268 29.9183 72.2031 31.2077L72.2378 31.2426Z" fill="black"/>
<path d="M74.5987 32.3577C74.6681 32.4274 74.7029 32.4971 74.7376 32.6016C74.8417 32.8456 74.8765 33.1244 74.8765 33.3683C74.8765 33.4728 74.8765 33.5774 74.807 33.6819C74.7376 33.7865 74.6681 33.8562 74.564 33.8562C74.4251 33.8562 74.321 33.7168 74.2862 33.5774C74.1821 33.3334 73.9738 32.9501 74.0085 32.6713C74.0432 32.3925 74.3904 32.0789 74.6334 32.3577H74.5987Z" fill="#FFB294"/>
<path d="M74.8417 52.5355C74.7723 52.5355 73.9043 54.1734 73.9043 54.1734L72.8975 55.3235L72.1337 57.1705V57.9023L72.2378 58.4948C72.3073 58.913 72.6544 58.7736 72.6197 58.4948L72.8628 59.2266C72.9669 59.5402 73.2447 59.4705 73.2447 59.1569V58.216C73.2099 58.216 73.6613 59.2963 73.6613 59.2963C73.8002 59.5751 74.1126 59.4357 74.0432 59.1569L73.8002 58.4948L74.0085 57.6932L74.0779 58.4251L74.3209 58.913C74.4945 59.1918 74.7376 58.9827 74.5987 58.6342L74.4251 58.216L74.8417 57.275C74.9459 56.9962 75.0153 56.7174 75.05 56.4386V55.7417L75.3278 54.9053L75.5361 53.128L74.8417 52.4658V52.5355Z" fill="#FFB294"/>
<path d="M76.2305 41.2095L76.6124 46.646C75.9527 48.981 74.7029 51.5598 73.8696 54.1387L75.5361 55.0796C77.0985 53.372 78.5914 50.6537 80.0843 47.7961L80.2231 41.2095C80.4662 37.0973 76.1611 38.2125 76.2305 41.1747V41.2095Z" fill="#606060"/>
<path d="M64.7038 30.685L60.121 33.4033C60.1904 33.4033 60.2598 33.4033 60.3293 33.4033L64.9121 30.685C64.808 30.6502 64.7385 30.6153 64.7038 30.685Z" fill="#66CEFB"/>
<path d="M64.669 29.9184L60.0862 32.6367C60.1556 32.6367 60.2251 32.6367 60.2945 32.6367L64.8773 29.9184C64.7732 29.8836 64.7038 29.8487 64.669 29.9184Z" fill="#66CEFB"/>
<path d="M63.6275 35.2852L68.2451 32.5321L64.9468 30.72L60.3292 33.4382L63.6275 35.2852Z" fill="#66CEFB"/>
<path d="M63.5928 34.4837L68.1757 31.7655L64.9121 29.9185L60.2946 32.6716L63.5928 34.4837Z" fill="#66CEFB"/>
<path d="M63.5928 34.4836L68.1756 31.7654C68.4534 31.9396 68.6964 32.2533 68.8353 32.5669L64.2524 35.3549C64.1483 35.0064 63.8705 34.6579 63.5928 34.4836Z" fill="#66CEFB"/>
<path d="M64.2871 35.5987C64.2871 35.529 64.2871 35.4245 64.2177 35.3199L68.8005 32.532C68.8353 32.6365 68.87 32.7411 68.87 32.8456C68.87 33.0547 68.8005 33.1941 68.6964 33.2638L64.1135 35.9821C64.2177 35.9124 64.2871 35.773 64.2871 35.5639V35.5987Z" fill="#325369"/>
<path d="M60.2945 32.6716C60.1209 32.567 59.9821 32.6716 59.9821 32.8458C59.9821 33.0549 60.1556 33.264 60.3292 33.3686L63.6275 35.1808C63.6275 35.1808 63.6622 35.2156 63.6622 35.2504L60.364 33.4383C60.1904 33.3337 60.0515 33.4383 60.0515 33.6125C60.0515 33.8216 60.2251 34.0307 60.3987 34.1353L63.6969 35.9474C64.0788 36.1565 64.3566 35.9823 64.3219 35.5641C64.3219 35.1459 63.9747 34.658 63.5928 34.4489L60.2945 32.6367V32.6716Z" fill="#325369"/>
<path d="M65.1204 29.2214L60.5376 31.9397C60.5376 31.9397 60.5376 31.9745 60.5723 32.0094L65.1552 29.2911C65.1552 29.2911 65.1204 29.2563 65.1204 29.2214Z" fill="#66CEFB"/>
<path d="M64.6344 28.4895L60.0515 31.2077C60.1557 31.138 60.3293 31.138 60.5029 31.2426L65.0857 28.5243C64.9121 28.4198 64.7385 28.4198 64.6344 28.4895Z" fill="#376C8F"/>
<path d="M64.6344 28.4895L60.0515 31.2077C60.1557 31.138 60.3293 31.138 60.5029 31.2426L65.0857 28.5243C64.9121 28.4198 64.7385 28.4198 64.6344 28.4895Z" fill="#66CEFB"/>
<path d="M63.8359 33.8563L68.4534 31.138L65.1552 29.291L60.5376 32.0441L63.8359 33.8563Z" fill="#66CEFB"/>
<path d="M64.1136 34.588L68.6964 31.8698C68.7659 31.8698 68.7659 31.7652 68.7659 31.6607C68.7659 31.4516 68.5923 31.2425 68.4187 31.1379L63.8358 33.8562C64.0094 33.9607 64.1483 34.2047 64.183 34.3789C64.183 34.4835 64.183 34.5532 64.1136 34.588Z" fill="#325369"/>
<path d="M63.8011 33.0897L68.3839 30.3366L65.1204 28.5244L60.5028 31.2427L63.8011 33.0897Z" fill="#376C8F"/>
<path d="M63.8011 33.0897L68.3839 30.3366L65.1204 28.5244L60.5028 31.2427L63.8011 33.0897Z" fill="#66CEFB"/>
<path d="M64.0441 33.8214L68.627 31.1032C68.6964 31.1032 68.6964 30.9986 68.6964 30.8941C68.6964 30.685 68.5228 30.4759 68.3492 30.3713L63.7664 33.0896C63.94 33.1941 64.0788 33.4381 64.1135 33.6123C64.1135 33.7169 64.1135 33.7866 64.0441 33.8214Z" fill="#376C8F"/>
<path d="M64.0441 33.8214L68.627 31.1032C68.6964 31.1032 68.6964 30.9986 68.6964 30.8941C68.6964 30.685 68.5228 30.4759 68.3492 30.3713L63.7664 33.0896C63.94 33.1941 64.0788 33.4381 64.1135 33.6123C64.1135 33.7169 64.1135 33.7866 64.0441 33.8214Z" fill="#66CEFB"/>
<path d="M60.5029 31.2427C60.121 31.0336 59.8432 31.2078 59.8779 31.626C59.8779 32.0442 60.2251 32.5321 60.607 32.7412L63.9053 34.5533C64.0789 34.6579 64.2178 34.5533 64.2178 34.3791C64.2178 34.17 64.0442 33.9609 63.8706 33.8564L60.5723 32.0442C60.5723 32.0442 60.5376 32.0093 60.5376 31.9745L63.8358 33.7867C64.0094 33.8912 64.1483 33.7867 64.1483 33.6124C64.1483 33.4033 63.9747 33.1942 63.8011 33.0897L60.5029 31.2775V31.2427Z" fill="#325369"/>
<path d="M56.7533 35.0066C57.6212 34.4838 59.0447 34.4838 59.9474 35.0066C60.3987 35.2505 60.607 35.599 60.607 35.9475V36.8536C60.607 37.2021 60.3987 37.5157 59.9474 37.7945C59.0794 38.3172 57.6559 38.3172 56.7533 37.7945C55.8506 37.2718 56.0936 37.2021 56.0936 36.8536V35.9475C56.0936 35.599 56.3019 35.2854 56.7533 35.0066Z" fill="#7C4DA1"/>
<path d="M56.8574 35.7383C56.7533 35.4595 56.7185 34.8322 56.7533 34.4489C57.1004 33.4034 58.4545 32.2185 59.0447 32.4625C60.3987 33.0549 60.0515 34.5883 60.4334 35.7035C59.7043 36.8883 57.6559 36.8883 56.8574 35.7383Z" fill="#7C4DA1"/>
<path d="M56.2673 35.7733C56.2673 35.2854 56.4756 34.7975 56.788 34.449C56.6492 36.6096 59.635 37.1324 60.4682 35.7036C60.4682 35.7036 60.4682 35.7384 60.4682 35.7733C60.4682 35.7733 60.4682 35.8081 60.4682 35.8429C60.4682 35.8778 60.4682 35.8778 60.4682 35.9126C60.4682 36.1914 60.2252 36.5051 59.8433 36.7142C59.01 37.2021 57.6907 37.2021 56.8575 36.7142C56.4756 36.5051 56.2673 36.1914 56.2325 35.9126C56.2325 35.9126 56.2325 35.8778 56.2325 35.8429C56.2325 35.8081 56.2325 35.8081 56.2325 35.7733H56.2673Z" fill="#573166"/>
</g>
<defs>
<clipPath id="clip0_7_228">
<rect width="66" height="59" fill="white" transform="translate(22 20.9272)"/>
</clipPath>
</defs>
</svg>
