<svg width="111" height="104" viewBox="0 0 111 104" fill="none" xmlns="http://www.w3.org/2000/svg">
<rect width="110.507" height="103.663" rx="9" fill="#6F6F6F"/>
<g clip-path="url(#clip0_7_99)">
<path d="M40.2745 30.5474L42.3933 29.338L49.1027 25.4253L77 41.6454L70.3612 45.487L68.2424 46.6964L60.8973 50.9649L33 34.8159L40.3451 30.5474H40.2745Z" fill="#66CEFB"/>
<path d="M49.1027 25.781L76.435 41.6454L60.8973 50.5381L33.565 34.8159L49.1027 25.781Z" fill="#66CEFB"/>
<path d="M60.8973 50.965V77.9274L68.2424 73.7301L70.4318 72.5207L77 68.6791V41.6455L60.8973 50.965Z" fill="#18B8EF"/>
<path d="M60.8973 50.9649V77.9273L33 61.8495V34.8159L60.8973 50.9649Z" fill="#00A1CC"/>
<path d="M68.2424 46.7676V73.73L70.4318 72.5206V45.4871L68.2424 46.7676Z" fill="#CE18E8"/>
<path d="M40.2745 30.5475L57.0834 40.2938L59.2729 41.5032L68.2424 46.6965L68.313 46.7677L70.4318 45.4871H70.3611L61.3916 40.2938L59.2729 39.0133L42.4639 29.3381L40.2745 30.5475Z" fill="#EF5AFF"/>
<path d="M48.5377 34.1044C47.8315 33.1084 47.3371 31.899 47.0546 30.6896C46.9133 29.9782 46.8427 29.1957 46.9133 28.4131C47.1958 25.7098 49.7384 24.0024 52.069 25.4252C55.0353 27.2037 53.8347 31.8279 52.069 34.0332C51.8572 34.3178 51.5747 34.6024 51.2921 34.8869L50.4446 35.6695L50.0915 36.0252C50.0915 36.0252 48.8202 34.6735 48.3965 34.1044H48.5377ZM50.5859 34.2467C50.939 33.6775 51.3628 33.1084 51.6453 32.4681C52.2809 31.2587 52.5634 29.6936 51.9278 28.4843C51.5747 27.7728 50.939 26.9192 50.0915 27.0614C48.114 27.4883 48.6084 30.7608 49.1027 32.1124C49.3146 32.7527 49.5971 33.393 49.8796 33.9621C49.9503 34.1755 50.0915 34.3178 50.1621 34.5312C50.1621 34.5312 50.1621 34.5312 50.1621 34.6024L50.4446 34.1755L50.5859 34.2467Z" fill="#CE18E8"/>
<path d="M48.5378 34.1044C47.8315 33.1084 47.3371 31.899 47.0546 30.6896C46.9134 29.9071 46.8427 29.1957 46.9134 28.4131C47.1959 25.7098 49.7384 24.0024 52.0691 25.4252C52.3516 25.6386 52.6341 25.852 52.8459 26.0655C52.4928 26.0655 52.2103 25.9943 51.8572 26.0655C50.8684 26.2077 49.7384 26.7769 49.1734 27.7017C48.3259 28.84 48.7496 31.1165 49.1734 32.1836C49.3853 32.8238 49.6678 33.4641 49.9503 34.0332C49.9503 34.1755 50.7978 35.5272 50.7978 35.5983L50.5859 35.8118L50.2328 36.1675C50.2328 36.1675 48.9615 34.8158 48.5378 34.2467V34.1044Z" fill="#EF5AFF"/>
<path d="M46.9133 28.4131C46.9133 27.9862 47.0546 27.5594 47.1958 27.2037C48.114 26.9191 49.0321 26.7768 49.9503 26.848C49.6678 27.0614 49.3852 27.3459 49.244 27.6305C48.6084 28.4842 48.679 30.0493 48.9615 31.2587C48.3965 31.3298 47.9021 31.4721 47.3371 31.6144C47.2665 31.3298 47.1252 31.0453 47.1252 30.6896C46.984 29.9782 46.9133 29.1956 46.984 28.4131H46.9133Z" fill="#F297FF"/>
<path d="M50.7977 32.9661C51.2215 31.8278 51.8571 30.6896 52.634 29.7648C53.1284 29.1956 53.6934 28.6976 54.3997 28.3419C56.6597 26.9903 59.5554 28.0574 59.8379 30.7607C60.1204 34.2466 55.7416 35.954 52.9871 35.8829C52.634 35.8829 52.2103 35.8829 51.8571 35.8117L50.7271 35.5983H50.2327C50.2327 35.5272 50.5152 33.6775 50.7977 32.9661ZM51.8571 34.7446C52.5634 34.7446 53.2697 34.7446 53.9053 34.5312C55.2472 34.3178 56.6597 33.6775 57.2953 32.4681C57.6485 31.7567 58.0016 30.6896 57.2953 30.1205C55.8122 28.7688 53.4815 31.1164 52.634 32.3258C52.2809 32.895 51.9278 33.4641 51.6453 34.0332C51.5746 34.2466 51.4334 34.3889 51.3627 34.6023C51.3627 34.6023 51.3627 34.6735 51.3627 34.7446H51.8571Z" fill="#CE18E8"/>
<path d="M50.7978 32.9661C51.2215 31.8278 51.8572 30.6896 52.634 29.7648C53.1284 29.1956 53.6934 28.6976 54.3997 28.3419C56.6597 26.9903 59.5554 28.0574 59.8379 30.7607C59.8379 31.1164 59.8379 31.4721 59.8379 31.7567C59.6966 31.4721 59.4848 31.1876 59.2729 30.903C58.5666 30.1916 57.4366 29.6225 56.3772 29.6936C54.9647 29.6936 53.4109 31.3299 52.7047 32.3258C52.3515 32.895 51.9984 33.4641 51.7159 34.0332C51.7159 34.1755 51.0096 35.5983 51.0096 35.5983H50.7271L50.2328 35.456C50.2328 35.456 50.5153 33.6064 50.7978 32.9661Z" fill="#EF5AFF"/>
<path d="M54.3997 28.2707C54.7528 28.0573 55.1766 27.915 55.5297 27.7727C56.3066 28.3418 56.9422 29.0532 57.4366 29.7647C57.0835 29.6935 56.7303 29.6224 56.3772 29.6224C55.3178 29.6224 54.1172 30.6183 53.3403 31.472C52.9871 31.0452 52.5634 30.6895 52.1396 30.4049C52.3515 30.1204 52.4928 29.9069 52.7046 29.6935C53.199 29.1244 53.764 28.6264 54.4703 28.2707H54.3997Z" fill="#F297FF"/>
<path d="M50.7271 35.5273L50.374 35.8119L49.5971 36.4522C49.3146 36.6656 49.0321 36.879 48.7496 37.0213C46.6308 38.3018 42.4639 38.871 41.1926 36.0253C40.2038 33.8199 41.9695 31.6857 44.3708 31.7569C45.077 31.7569 45.7127 31.8991 46.3483 32.1126C47.4077 32.4683 48.3258 33.0374 49.1733 33.8199C49.6677 34.2468 50.6565 35.5273 50.6565 35.5273H50.7271ZM49.5265 35.4562C49.5265 35.4562 49.5265 35.4562 49.4558 35.4562C49.3146 35.3139 49.1733 35.2428 48.9615 35.1005C48.4671 34.7448 47.9727 34.4602 47.4077 34.2468C46.2777 33.6777 43.4526 32.824 42.817 34.6025C42.6051 35.3139 43.3114 36.0253 43.8764 36.381C44.9358 37.0924 46.2777 36.9501 47.4077 36.5233C47.9727 36.381 48.5377 36.0253 49.1027 35.7407L49.4558 35.5273L49.5265 35.4562Z" fill="#CE18E8"/>
<path d="M49.244 33.8199C48.3964 33.1085 47.4783 32.5394 46.4189 32.1125C45.7833 31.8991 45.1476 31.7568 44.4414 31.7568C42.0401 31.7568 40.2745 33.8199 41.2632 36.0253C41.4045 36.3099 41.5457 36.5944 41.7576 36.8078C41.7576 36.5233 41.7576 36.2387 41.7576 35.883C41.9695 35.0293 42.6051 34.1045 43.4526 33.6776C44.512 33.0374 46.4895 33.6776 47.4077 34.1045C47.9021 34.3891 48.4671 34.6736 48.9615 34.9582C49.0321 34.9582 50.2327 35.883 50.2327 35.883L50.4446 35.7407L50.7977 35.4562C50.7977 35.4562 49.809 34.1756 49.3146 33.7488L49.244 33.8199Z" fill="#EF5AFF"/>
<path d="M44.3708 31.8279C44.0176 31.8279 43.5939 31.8279 43.2408 31.9702C42.8876 32.7527 42.6758 33.5353 42.6051 34.3178C42.817 34.1044 43.0995 33.891 43.382 33.7487C44.2295 33.2507 45.5714 33.5353 46.5602 33.891C46.7014 33.393 46.8427 32.9661 47.0546 32.5393C46.7721 32.397 46.5602 32.3259 46.2777 32.2547C45.642 32.0413 45.0064 31.899 44.3002 31.899L44.3708 31.8279Z" fill="#F297FF"/>
<path d="M50.7271 35.8118C52.3515 36.0252 55.459 39.7245 55.0353 43.2104C54.6822 42.4279 53.764 42.001 52.634 41.7876C52.7753 40.4359 52.4221 37.8037 50.1621 35.8829H50.7271V35.8118Z" fill="#CE18E8"/>
<path d="M50.2327 35.883C49.0321 36.9501 48.3964 41.7877 50.6565 44.4199C50.5152 43.5662 51.0096 42.7125 51.8571 41.9299C51.0096 40.8628 49.8796 38.444 50.7271 35.5984L50.2327 35.883Z" fill="#EF5AFF"/>
<path d="M54.2584 39.2978C54.5409 39.8669 54.7528 40.436 54.894 41.0763C54.1878 40.5783 53.4109 40.2226 52.5634 40.0803C52.4928 39.4401 52.2809 38.7998 51.9278 38.0884C52.7046 38.3729 53.4815 38.7998 54.2584 39.2978Z" fill="#EF5AFF"/>
<path d="M50.4446 38.3728C50.5153 39.1554 50.7271 39.8668 51.0096 40.4359C50.4446 41.1473 50.0915 42.0721 49.7384 42.8547C49.3852 42.001 49.1734 41.0762 49.1734 40.1513C49.5971 39.5111 50.0209 38.9419 50.5153 38.3728H50.4446Z" fill="#F297FF"/>
<path d="M49.3146 35.5271C49.3146 35.8117 49.5265 36.0251 49.809 36.0251H50.7977C51.0802 36.0251 51.2921 35.7406 51.2921 35.456C51.2921 35.1714 51.0802 34.958 50.7977 34.958H49.809C49.5265 34.958 49.3146 35.2426 49.3146 35.5271Z" fill="#F297FF"/>
<path d="M49.3852 35.5983C49.3852 35.8117 49.6677 35.954 49.8796 35.954H50.8683C51.1509 35.954 51.3627 35.6694 51.3627 35.3849C51.3627 35.1714 51.2215 35.0291 51.0802 34.958C51.0802 34.958 51.0802 34.958 51.0802 35.1003C51.0802 35.3849 50.8683 35.5983 50.5858 35.5983H49.5971C49.5265 35.5983 49.3852 35.5983 49.3146 35.5983H49.3852Z" fill="#CE18E8"/>
</g>
<defs>
<clipPath id="clip0_7_99">
<rect width="44" height="53" fill="white" transform="matrix(-1 0 0 1 77 24.9272)"/>
</clipPath>
</defs>
</svg>
