<svg width="111" height="104" viewBox="0 0 111 104" fill="none" xmlns="http://www.w3.org/2000/svg">
<rect width="110.507" height="103.663" rx="9" fill="#6F6F6F"/>
<g clip-path="url(#clip0_7_247)">
<path d="M72.2831 50.0992C72.2831 50.0992 72.1798 49.9957 72.1281 49.9957L68.718 48.029C68.718 48.029 68.718 48.029 68.7696 48.029C68.8213 48.029 68.873 48.029 68.9247 47.9255L71.1981 46.5798C71.3014 46.5798 71.3531 46.4763 71.4047 46.4245C71.4047 46.4245 71.4047 46.4245 71.4564 46.3728C71.4564 46.3728 71.5081 46.321 71.5597 46.2693C71.5597 46.2693 71.6114 46.1658 71.6631 46.1658C71.6631 46.1658 71.6631 46.114 71.7148 46.0622C71.7148 46.0622 71.7148 46.0105 71.7664 45.9587C71.7664 45.9587 71.7664 45.907 71.7664 45.8552C71.7664 45.8552 71.7664 45.8035 71.8181 45.7517C71.8181 45.7517 71.8181 45.7 71.8181 45.6482C71.8181 45.6482 71.8181 45.5964 71.8181 45.5447C71.8181 45.5447 71.8181 45.4929 71.8181 45.4412C71.8181 45.4412 71.8181 45.4412 71.8181 45.3894C71.8181 45.3894 71.8181 45.2859 71.8181 45.2341C71.8181 45.2341 71.8181 45.1824 71.8181 45.1306C71.8181 45.0271 71.8181 44.9754 71.8181 44.8719V42.2323C71.8181 41.9218 71.7147 41.7147 71.6114 41.5595C71.6114 41.5595 71.5081 41.456 71.4564 41.456L66.9096 38.8164C67.1163 38.9199 67.2713 39.2305 67.2713 39.5927V42.2323C67.2713 42.3358 67.2713 42.4393 67.2713 42.4911C67.2713 42.5946 67.2713 42.6463 67.2196 42.7499C67.2196 42.8534 67.1679 42.9569 67.1163 43.0604C67.1163 43.1639 67.0129 43.2674 66.9613 43.3192C66.9096 43.4227 66.8579 43.4744 66.8062 43.578C66.7546 43.6297 66.7029 43.7332 66.6512 43.785C66.6512 43.785 66.5479 43.8885 66.4962 43.9402C66.4962 43.9402 66.4962 43.9403 66.4446 43.992C66.3929 44.0438 66.2896 44.0955 66.2379 44.1473L63.9645 45.4929C63.9128 45.4929 63.8095 45.5447 63.7578 45.5964C63.7061 45.5964 63.6028 45.5964 63.5511 45.5964C63.4995 45.5964 63.3961 45.5964 63.3445 45.5964C63.2928 45.5964 63.2411 45.5964 63.1895 45.5447L67.5296 48.0807C67.5296 48.1842 67.5296 48.236 67.5296 48.3395V50.9791C67.5296 51.0826 67.5296 51.1861 67.5296 51.2378C67.5296 51.3414 67.5296 51.3931 67.4779 51.4966C67.4779 51.6001 67.4263 51.7037 67.3746 51.8072C67.3746 51.9107 67.2713 52.0142 67.2196 52.0659C67.1679 52.1695 67.1163 52.2212 67.0646 52.3247C67.0129 52.3765 66.9613 52.48 66.9096 52.5317C66.9096 52.5317 66.8062 52.6353 66.7546 52.687C66.7546 52.687 66.7546 52.687 66.7029 52.7388C66.6512 52.7905 66.5479 52.8423 66.4962 52.894L64.2228 54.2397C64.1712 54.2397 64.0678 54.2915 64.0161 54.3432C63.9645 54.3432 63.8611 54.3432 63.8095 54.3432C63.7578 54.3432 63.6545 54.3432 63.6028 54.3432C63.5511 54.3432 63.4995 54.3432 63.4478 54.2915L67.9946 56.931C67.9946 56.931 67.9946 56.931 68.0463 56.931C68.0463 56.931 68.0463 56.931 68.098 56.931C68.098 56.931 68.098 56.931 68.1496 56.931C68.1496 56.931 68.2013 56.931 68.253 56.931C68.253 56.931 68.3046 56.931 68.3563 56.931C68.3563 56.931 68.3563 56.931 68.408 56.931C68.4596 56.931 68.5113 56.931 68.563 56.8275L70.8364 55.4818C70.9397 55.4818 70.9914 55.3783 71.0431 55.3266C71.0431 55.3266 71.0431 55.3266 71.0947 55.2748C71.0947 55.2748 71.1464 55.2231 71.1981 55.1713C71.1981 55.1713 71.2497 55.0678 71.3014 55.0678C71.3014 55.0678 71.3014 55.016 71.3531 54.9643C71.3531 54.9643 71.3531 54.9125 71.4047 54.8608C71.4047 54.8608 71.4047 54.809 71.4047 54.7573C71.4047 54.7573 71.4047 54.7055 71.4564 54.6537C71.4564 54.6537 71.4564 54.602 71.4564 54.5502C71.4564 54.5502 71.4564 54.4985 71.4564 54.4467C71.4564 54.4467 71.4564 54.395 71.4564 54.3432C71.4564 54.3432 71.4564 54.3432 71.4564 54.2915C71.4564 54.2915 71.4564 54.1879 71.4564 54.1362C71.4564 54.1362 71.4564 54.0844 71.4564 54.0327C71.4564 53.9292 71.4564 53.8774 71.4564 53.7739V51.1343C71.4564 50.8238 71.3531 50.6168 71.2497 50.4615L72.2831 50.0992Z" fill="#EF5AFF"/>
<path d="M63.5512 54.9125L60.1411 52.9457C60.1411 52.9457 60.1411 52.9457 60.1927 52.9457C60.2444 52.9457 60.2961 52.9457 60.3477 52.8422L62.6212 51.4966C62.7245 51.4966 62.7762 51.393 62.8278 51.3413C62.8278 51.3413 62.8278 51.3413 62.8795 51.2895C62.8795 51.2895 62.9312 51.2378 62.9828 51.186C62.9828 51.186 63.0345 51.0825 63.0862 51.0825C63.0862 51.0825 63.0862 51.0308 63.1378 50.979C63.1378 50.979 63.1378 50.9272 63.1895 50.8755C63.1895 50.8755 63.1895 50.8237 63.1895 50.772C63.1895 50.772 63.1895 50.7202 63.2412 50.6685C63.2412 50.6685 63.2412 50.6167 63.2412 50.5649C63.2412 50.5649 63.2412 50.5132 63.2412 50.4614C63.2412 50.4614 63.2412 50.4097 63.2412 50.3579C63.2412 50.3579 63.2412 50.3579 63.2412 50.3062C63.2412 50.3062 63.2412 50.2027 63.2412 50.1509C63.2412 50.1509 63.2412 50.0991 63.2412 50.0474C63.2412 49.9439 63.2412 49.8921 63.2412 49.7886V47.149C63.2412 46.7868 63.0862 46.4762 62.8795 46.3727L58.3327 43.7332C58.5394 43.8367 58.6944 44.1472 58.6944 44.5095V47.149C58.6944 47.2526 58.6944 47.3561 58.6944 47.4078C58.6944 47.5113 58.6944 47.5631 58.6427 47.6666C58.6427 47.7701 58.591 47.8736 58.5394 47.9771C58.5394 48.0807 58.436 48.1842 58.3843 48.2359C58.3327 48.3394 58.281 48.3912 58.2293 48.4947C58.1777 48.5465 58.126 48.65 58.0743 48.7017C58.0743 48.7017 57.971 48.8052 57.9193 48.857C57.9193 48.857 57.9193 48.857 57.8677 48.9088C57.816 48.9605 57.7127 49.0123 57.661 49.064L55.3876 50.4097C55.3359 50.4097 55.2326 50.4614 55.1809 50.5132C55.1292 50.5132 55.0259 50.5132 54.9742 50.5132C54.9226 50.5132 54.8192 50.5132 54.7676 50.5132C54.7159 50.5132 54.6642 50.5132 54.6125 50.4614L58.9527 52.9975C58.9527 53.101 58.9527 53.1527 58.9527 53.2563V55.8958C58.9527 55.9993 58.9527 56.1028 58.9527 56.1546C58.9527 56.2581 58.9527 56.3099 58.901 56.4134C58.901 56.5169 58.8494 56.6204 58.7977 56.7239C58.7977 56.8274 58.6944 56.9309 58.6427 56.9827C58.591 57.0862 58.5394 57.138 58.4877 57.2415C58.436 57.2932 58.3843 57.3967 58.3327 57.4485C58.3327 57.4485 58.2293 57.552 58.1777 57.6038C58.1777 57.6038 58.1777 57.6038 58.126 57.6555C58.0743 57.7073 57.971 57.759 57.9193 57.8108L55.6459 59.1564C55.5942 59.1564 55.4909 59.2082 55.4392 59.26C55.3876 59.26 55.2842 59.26 55.2326 59.26C55.1809 59.26 55.0776 59.26 55.0259 59.26C54.9742 59.26 54.9226 59.26 54.8709 59.2082L59.4177 61.8478C59.4177 61.8478 59.4177 61.8478 59.4694 61.8478C59.4694 61.8478 59.4694 61.8478 59.5211 61.8478C59.5211 61.8478 59.5211 61.8478 59.5727 61.8478C59.5727 61.8478 59.6244 61.8478 59.6761 61.8478C59.6761 61.8478 59.7277 61.8478 59.7794 61.8478C59.7794 61.8478 59.7794 61.8478 59.8311 61.8478C59.8827 61.8478 59.9344 61.8478 59.9861 61.7442L62.2595 60.3986C62.3628 60.3986 62.4145 60.2951 62.4662 60.2433C62.4662 60.2433 62.4662 60.2433 62.5178 60.1916C62.5178 60.1916 62.5695 60.1398 62.6212 60.0881C62.6212 60.0881 62.6728 59.9845 62.7245 59.9845C62.7245 59.9845 62.7245 59.9328 62.7762 59.881C62.7762 59.881 62.7762 59.8293 62.8278 59.7775C62.8278 59.7775 62.8278 59.7258 62.8278 59.674C62.8278 59.674 62.8278 59.6222 62.8795 59.5705C62.8795 59.5705 62.8795 59.5187 62.8795 59.467C62.8795 59.467 62.8795 59.4152 62.8795 59.3635C62.8795 59.3635 62.8795 59.3117 62.8795 59.26C62.8795 59.26 62.8795 59.26 62.8795 59.2082C62.8795 59.2082 62.8795 59.1047 62.8795 59.0529C62.8795 59.0529 62.8795 59.0012 62.8795 58.9494C62.8795 58.8459 62.8795 58.7942 62.8795 58.6906V56.0511C62.8795 55.6888 62.7245 55.3783 62.5178 55.2747L63.5512 54.9125Z" fill="#EF5AFF"/>
<path d="M55.0258 59.881L51.6157 57.9142C51.6157 57.9142 51.6157 57.9142 51.6674 57.9142C51.719 57.9142 51.7707 57.9142 51.8224 57.8107L54.0958 56.4651C54.1991 56.4651 54.2508 56.3615 54.3024 56.3098C54.3024 56.3098 54.3024 56.3098 54.3541 56.258C54.3541 56.258 54.4058 56.2063 54.4574 56.1545C54.4574 56.1545 54.5091 56.051 54.5608 56.051C54.5608 56.051 54.5608 55.9993 54.6125 55.9475C54.6125 55.9475 54.6125 55.8957 54.6641 55.844C54.6641 55.844 54.6641 55.7922 54.6641 55.7405C54.6641 55.7405 54.6641 55.6887 54.7158 55.637C54.7158 55.637 54.7158 55.5852 54.7158 55.5335C54.7158 55.5335 54.7158 55.4817 54.7158 55.4299C54.7158 55.4299 54.7158 55.3782 54.7158 55.3264C54.7158 55.3264 54.7158 55.3264 54.7158 55.2747C54.7158 55.2747 54.7158 55.1712 54.7158 55.1194C54.7158 55.1194 54.7158 55.0676 54.7158 55.0159C54.7158 54.9124 54.7158 54.8606 54.7158 54.7571V52.1176C54.7158 51.7553 54.5608 51.4447 54.3541 51.3412L49.8073 48.7017C50.014 48.8052 50.169 49.1157 50.169 49.478V52.1176C50.169 52.2211 50.169 52.3246 50.169 52.3763C50.169 52.4798 50.169 52.5316 50.1173 52.6351C50.1173 52.7386 50.0656 52.8421 50.014 52.9457C50.014 53.0492 49.9106 53.1527 49.859 53.2044C49.8073 53.3079 49.7556 53.3597 49.704 53.4632C49.6523 53.515 49.6006 53.6185 49.5489 53.6702C49.5489 53.6702 49.4456 53.7737 49.3939 53.8255C49.3939 53.8255 49.3939 53.8255 49.3423 53.8773C49.2906 53.929 49.1873 53.9808 49.1356 54.0325L46.8622 55.3782C46.8105 55.3782 46.7072 55.4299 46.6555 55.4817C46.6038 55.4817 46.5005 55.4817 46.4488 55.4817C46.3972 55.4817 46.2938 55.4817 46.2422 55.4817C46.1905 55.4817 46.1388 55.4817 46.0872 55.4299L50.4273 57.966C50.4273 58.0695 50.4273 58.1213 50.4273 58.2248V60.8643C50.4273 60.9678 50.4273 61.0713 50.4273 61.1231C50.4273 61.2266 50.4273 61.2784 50.3756 61.3819C50.3756 61.4854 50.324 61.5889 50.2723 61.6924C50.2723 61.7959 50.169 61.8994 50.1173 61.9512C50.0656 62.0547 50.014 62.1065 49.9623 62.21C49.9106 62.2617 49.859 62.3652 49.8073 62.417C49.8073 62.417 49.7039 62.5205 49.6523 62.5723C49.6523 62.5723 49.6523 62.5723 49.6006 62.624C49.5489 62.6758 49.4456 62.7275 49.3939 62.7793L47.1205 64.1249C47.0689 64.1249 46.9655 64.1767 46.9139 64.2285C46.8622 64.2285 46.7588 64.2285 46.7072 64.2285C46.6555 64.2285 46.5522 64.2285 46.5005 64.2285C46.4488 64.2285 46.3972 64.2285 46.3455 64.1767L50.8923 66.8163C50.8923 66.8163 50.8923 66.8163 50.944 66.8163C50.944 66.8163 50.944 66.8163 50.9957 66.8163C50.9957 66.8163 50.9957 66.8163 51.0473 66.8163C51.0473 66.8163 51.099 66.8163 51.1507 66.8163C51.1507 66.8163 51.2023 66.8163 51.254 66.8163C51.254 66.8163 51.254 66.8163 51.3057 66.8163C51.3573 66.8163 51.409 66.8163 51.4607 66.7128L53.7341 65.3671C53.8374 65.3671 53.8891 65.2636 53.9408 65.2118C53.9408 65.2118 53.9408 65.2118 53.9924 65.1601C53.9924 65.1601 54.0441 65.1083 54.0958 65.0566C54.0958 65.0566 54.1474 64.953 54.1991 64.953C54.1991 64.953 54.1991 64.9013 54.2508 64.8495C54.2508 64.8495 54.2508 64.7978 54.3024 64.746C54.3024 64.746 54.3024 64.6943 54.3024 64.6425C54.3024 64.6425 54.3024 64.5908 54.3541 64.539C54.3541 64.539 54.3541 64.4872 54.3541 64.4355C54.3541 64.4355 54.3541 64.3837 54.3541 64.332C54.3541 64.332 54.3541 64.2802 54.3541 64.2285C54.3541 64.2285 54.3541 64.2285 54.3541 64.1767C54.3541 64.1767 54.3541 64.0732 54.3541 64.0214C54.3541 64.0214 54.3541 63.9697 54.3541 63.9179C54.3541 63.8144 54.3541 63.7627 54.3541 63.6591V61.0196C54.3541 60.6573 54.1991 60.3468 53.9924 60.2432L55.0258 59.881Z" fill="#EF5AFF"/>
<path d="M46.4489 64.8497L43.0388 62.883C43.0388 62.883 43.0388 62.883 43.0904 62.883C43.1421 62.883 43.1938 62.883 43.2455 62.7795L45.5189 61.4338C45.6222 61.4338 45.6739 61.3303 45.7255 61.2785C45.7255 61.2785 45.7255 61.2785 45.7772 61.2268C45.7772 61.2268 45.8289 61.175 45.8805 61.1233C45.8805 61.1233 45.9322 61.0198 45.9839 61.0198C45.9839 61.0198 45.9839 60.968 46.0355 60.9163C46.0355 60.9163 46.0355 60.8645 46.0872 60.8127C46.0872 60.8127 46.0872 60.761 46.0872 60.7092C46.0872 60.7092 46.0872 60.6575 46.1389 60.6057C46.1389 60.6057 46.1389 60.554 46.1389 60.5022C46.1389 60.5022 46.1389 60.4504 46.1389 60.3987C46.1389 60.3987 46.1389 60.3469 46.1389 60.2952C46.1389 60.2952 46.1389 60.2952 46.1389 60.2434C46.1389 60.2434 46.1389 60.1399 46.1389 60.0882C46.1389 60.0882 46.1389 60.0364 46.1389 59.9846C46.1389 59.8811 46.1389 59.8294 46.1389 59.7259V57.0863C46.1389 56.724 45.9839 56.4135 45.7772 56.31L41.2304 53.6704C41.4371 53.7739 41.5921 54.0845 41.5921 54.4468V57.0863C41.5921 57.1898 41.5921 57.2933 41.5921 57.3451C41.5921 57.4486 41.5921 57.5004 41.5404 57.6039C41.5404 57.7074 41.4887 57.8109 41.4371 57.9144C41.4371 58.0179 41.3337 58.1214 41.2821 58.1732C41.2304 58.2767 41.1787 58.3284 41.127 58.432C41.0754 58.4837 41.0237 58.5872 40.972 58.639C40.972 58.639 40.8687 58.7425 40.817 58.7943C40.817 58.7943 40.817 58.7943 40.7654 58.846C40.7137 58.8978 40.6104 58.9495 40.5587 59.0013L38.2853 60.3469C38.2336 60.3469 38.1303 60.3987 38.0786 60.4504C38.0269 60.4504 37.9236 60.4504 37.8719 60.4504C37.8203 60.4504 37.7169 60.4504 37.6653 60.4504C37.6136 60.4504 37.5619 60.4504 37.5103 60.3987L41.8504 62.9347C41.8504 63.0382 41.8504 63.09 41.8504 63.1935V65.8331C41.8504 65.9366 41.8504 66.0401 41.8504 66.0919C41.8504 66.1954 41.8504 66.2471 41.7987 66.3506C41.7987 66.4541 41.7471 66.5577 41.6954 66.6612C41.6954 66.7647 41.5921 66.8682 41.5404 66.9199C41.4887 67.0235 41.4371 67.0752 41.3854 67.1787C41.3337 67.2305 41.2821 67.334 41.2304 67.3858C41.2304 67.3858 41.127 67.4893 41.0754 67.541C41.0754 67.541 41.0754 67.541 41.0237 67.5928C40.972 67.6445 40.8687 67.6963 40.817 67.748L38.5436 69.0937C38.492 69.0937 38.3886 69.1455 38.3369 69.1972C38.2853 69.1972 38.1819 69.1972 38.1303 69.1972C38.0786 69.1972 37.9753 69.1972 37.9236 69.1972C37.8719 69.1972 37.8203 69.1972 37.7686 69.1455L42.3154 71.785C42.3154 71.785 42.3154 71.785 42.3671 71.785C42.3671 71.785 42.3671 71.785 42.4188 71.785C42.4188 71.785 42.4188 71.785 42.4704 71.785C42.4704 71.785 42.5221 71.785 42.5738 71.785C42.5738 71.785 42.6254 71.785 42.6771 71.785C42.6771 71.785 42.6771 71.785 42.7288 71.785C42.7804 71.785 42.8321 71.785 42.8838 71.6815L45.1572 70.3358C45.2605 70.3358 45.3122 70.2323 45.3639 70.1806C45.3639 70.1806 45.3639 70.1806 45.4155 70.1288C45.4155 70.1288 45.4672 70.0771 45.5189 70.0253C45.5189 70.0253 45.5705 69.9218 45.6222 69.9218C45.6222 69.9218 45.6222 69.87 45.6739 69.8183C45.6739 69.8183 45.6739 69.7665 45.7255 69.7148C45.7255 69.7148 45.7255 69.663 45.7255 69.6113C45.7255 69.6113 45.7255 69.5595 45.7772 69.5077C45.7772 69.5077 45.7772 69.456 45.7772 69.4042C45.7772 69.4042 45.7772 69.3525 45.7772 69.3007C45.7772 69.3007 45.7772 69.249 45.7772 69.1972C45.7772 69.1972 45.7772 69.1972 45.7772 69.1455C45.7772 69.1455 45.7772 69.0419 45.7772 68.9902C45.7772 68.9902 45.7772 68.9384 45.7772 68.8867C45.7772 68.7832 45.7772 68.7314 45.7772 68.6279V65.9883C45.7772 65.626 45.6222 65.3155 45.4155 65.212L46.4489 64.8497Z" fill="#EF5AFF"/>
<path d="M75.6932 33.175L71.0947 30.5354L34.2551 51.8589L38.802 54.4984L75.6932 33.175Z" fill="#D9A44F"/>
<path d="M38.8537 75.9772V54.4984C38.802 54.4984 34.2035 51.8589 34.2035 51.8589V73.3376C34.2552 74.6315 34.7202 75.5631 35.4952 76.0289L40.042 78.6685C39.3187 78.2544 38.8537 77.3228 38.8537 75.9772Z" fill="#EF5AFF"/>
<path d="M38.8019 54.4985L75.6932 33.175V54.6538C75.7448 57.2934 73.8848 60.5022 71.6114 61.8479L43.0387 78.358C40.7653 79.7037 38.8535 78.6168 38.8535 75.9773V54.4985H38.8019ZM46.7588 68.2139V65.5743C46.7588 64.798 46.1905 64.4874 45.5188 64.9015L43.2454 66.2471C42.5737 66.6094 42.057 67.5928 42.057 68.3174V70.9569C42.057 71.7333 42.6253 72.0438 43.297 71.6298L45.5704 70.2841C46.2421 69.9218 46.7588 68.9385 46.7588 68.2139ZM63.8611 58.3285V55.6889C63.8611 54.9126 63.2927 54.602 62.621 55.0161L60.3476 56.3617C59.6759 56.724 59.1593 57.7074 59.1593 58.432V61.0715C59.1593 61.8479 59.7276 62.1584 60.3993 61.7444L62.6727 60.3987C63.3444 60.0364 63.8611 59.0531 63.8611 58.3285ZM46.7072 59.3118V56.6723C46.7072 55.8959 46.1388 55.5854 45.4671 55.9995L43.1937 57.3451C42.522 57.7074 42.0053 58.6908 42.0053 59.4153V62.0549C42.0053 62.8312 42.5737 63.1418 43.2454 62.7277L45.5188 61.3821C46.1905 61.0198 46.7072 60.0364 46.7072 59.3118ZM55.2841 63.297V60.6575C55.2841 59.8812 54.7158 59.5706 54.0441 59.9847L51.7707 61.3303C51.099 61.6926 50.5823 62.676 50.5823 63.4006V66.0401C50.5823 66.8165 51.1506 67.127 51.8223 66.7129L54.0957 65.3673C54.7674 65.005 55.2841 64.0216 55.2841 63.297ZM72.3864 53.4117V50.7721C72.3864 49.9958 71.818 49.6852 71.1463 50.0993L68.8729 51.4449C68.2012 51.8072 67.6845 52.7906 67.6845 53.5152V56.1547C67.6845 56.9311 68.2529 57.2416 68.9246 56.8275L71.198 55.4819C71.8697 55.1196 72.3864 54.1362 72.3864 53.4117ZM63.8094 49.4264V46.7869C63.8094 46.0105 63.2411 45.7 62.5694 46.1141L60.296 47.4597C59.6243 47.822 59.1076 48.8054 59.1076 49.5299V52.1695C59.1076 52.9458 59.6759 53.2564 60.3476 52.8423L62.621 51.4967C63.2927 51.1344 63.8094 50.151 63.8094 49.4264ZM72.3864 44.4579V41.8183C72.3864 41.042 71.818 40.7314 71.1463 41.1455L68.8729 42.4911C68.2012 42.8534 67.6845 43.8368 67.6845 44.5614V47.2009C67.6845 47.9773 68.2529 48.2878 68.9246 47.8738L71.198 46.5281C71.8697 46.1658 72.3864 45.1824 72.3864 44.4579ZM55.2841 54.3433V51.7037C55.2841 50.9274 54.7158 50.6168 54.0441 51.0309L51.7707 52.3765C51.099 52.7388 50.5823 53.7222 50.5823 54.4468V57.0863C50.5823 57.8627 51.1506 58.1732 51.8223 57.7592L54.0957 56.4135C54.7674 56.0512 55.2841 55.0678 55.2841 54.3433Z" fill="#EEFCFF"/>
<path d="M76.2099 25.7738C76.3132 25.7738 76.3649 25.7221 76.4682 25.6703C76.4682 25.6703 76.5716 25.6703 76.6233 25.6703C76.6233 25.6703 76.7266 25.6703 76.7783 25.6703C76.8299 25.6703 76.8816 25.6703 76.9333 25.6703C76.9333 25.6703 76.9849 25.6703 77.0366 25.6703C77.0883 25.6703 77.1916 25.6703 77.2433 25.6703C77.3466 25.6703 77.3983 25.6703 77.5016 25.6703C77.5016 25.6703 77.5016 25.6703 77.5533 25.6703C77.6049 25.6703 77.6566 25.6703 77.76 25.7221C77.76 25.7221 77.76 25.7221 77.8116 25.7221C77.8633 25.7221 77.9666 25.7738 78.0183 25.8256L73.4715 23.1343C73.4198 23.1343 73.3681 23.0825 73.3165 23.0308C73.3165 23.0308 73.3165 23.0308 73.2648 23.0308C73.2648 23.0308 73.2131 23.0308 73.1615 23.0308C73.1615 23.0308 73.1098 23.0308 73.0581 23.0308C73.0581 23.0308 73.0581 23.0308 73.0065 23.0308C72.9548 23.0308 72.8515 23.0308 72.7998 23.0308C72.7481 23.0308 72.6964 23.0308 72.6448 23.0308C72.6448 23.0308 72.6448 23.0308 72.5931 23.0308C72.5931 23.0308 72.5414 23.0308 72.4898 23.0308C72.4898 23.0308 72.4381 23.0308 72.3864 23.0308C72.3864 23.0308 72.3348 23.0308 72.2831 23.0308C72.2831 23.0308 72.1798 23.0308 72.1281 23.0308C72.1281 23.0308 72.1281 23.0308 72.0764 23.0308C72.0764 23.0308 72.0764 23.0308 72.0248 23.0308C71.9731 23.0308 71.8698 23.0308 71.7664 23.1343C71.7664 23.1343 71.7147 23.1343 71.6631 23.1343C71.5081 23.186 71.4047 23.2378 71.2497 23.3413L34.3068 44.6648C34.1001 44.7683 33.8934 44.9236 33.6868 45.0788C33.6351 45.1306 33.5834 45.1823 33.4801 45.2341C33.3767 45.3376 33.2734 45.3894 33.1701 45.4929C33.1701 45.4929 33.0667 45.5964 33.0667 45.6481C33.0667 45.6481 33.0151 45.7516 32.9634 45.7516C32.9634 45.7516 32.8601 45.8552 32.8601 45.9069C32.7567 46.0104 32.6534 46.1139 32.6017 46.2175C32.6017 46.2175 32.5501 46.321 32.4984 46.321C32.4984 46.321 32.4984 46.321 32.4984 46.3727C32.4984 46.3727 32.4467 46.4245 32.395 46.4762C32.3434 46.5797 32.24 46.6833 32.1884 46.7868C32.1367 46.8903 32.085 46.9938 32.0334 47.0455C32.0334 47.0973 31.93 47.2008 31.93 47.2526C31.93 47.3561 31.8267 47.4596 31.775 47.5114C31.775 47.6149 31.6717 47.6666 31.6717 47.7701C31.6717 47.8736 31.5684 47.9772 31.5684 48.0807C31.5684 48.1842 31.465 48.2877 31.465 48.3912C31.465 48.443 31.465 48.4947 31.465 48.5465C31.465 48.5465 31.465 48.5465 31.465 48.5982C31.465 48.5982 31.465 48.65 31.465 48.7017C31.465 48.8053 31.4133 48.9605 31.3617 49.064C31.3617 49.1675 31.3617 49.2193 31.3617 49.3228V49.4263C31.3617 49.4263 31.3617 49.4781 31.3617 49.5298C31 49.9956 31 50.2027 31 50.4097C31 51.4448 31.3617 52.2211 31.9817 52.5317L36.5285 55.1712C35.9085 54.8089 35.5468 54.0844 35.5468 53.0492C35.5468 52.7905 35.5468 52.5317 35.5985 52.2729V52.1694C35.5985 51.9106 35.7018 51.7036 35.7535 51.4448C35.7535 51.4448 35.7535 51.4448 35.7535 51.3931C35.8568 51.1343 35.9085 50.8755 36.0635 50.6167C36.1668 50.3579 36.3219 50.0992 36.4769 49.8404C36.6319 49.5816 36.7869 49.3746 36.9419 49.1158C36.9419 49.1158 36.9419 49.1158 36.9419 49.064C37.0969 48.857 37.2519 48.65 37.4069 48.4947C37.4069 48.4947 37.4586 48.3912 37.5102 48.3912C37.6652 48.2359 37.7686 48.1324 37.9236 47.9772C37.9752 47.9254 38.0269 47.8736 38.1302 47.8219C38.3369 47.6666 38.5436 47.5114 38.7503 47.4078L75.6415 26.0326C75.7966 25.9291 75.8999 25.8773 76.0549 25.8256C76.0549 25.8256 76.1582 25.8256 76.2099 25.7738Z" fill="#66CEFB"/>
<path d="M75.6416 26.0327L38.9053 47.3044C37.0452 48.3913 35.5985 50.9274 35.5985 53.0494C35.5985 55.1714 37.0969 55.9995 38.957 54.9643L75.6416 33.6926C77.5016 32.6057 78.9483 30.0697 78.9483 27.9477C78.9483 25.8257 77.45 24.9976 75.5899 26.0327H75.6416Z" fill="#00A1CC"/>
<path d="M58.0743 34.3654C58.2809 34.2619 58.5393 34.1584 58.5909 34.1584C58.9526 34.1066 59.3143 34.1584 59.676 34.1584C59.056 33.7961 58.9526 33.3821 57.7642 33.5891C57.0926 33.6926 56.5242 34.0549 56.0592 34.5207C55.0775 35.4005 54.3541 36.5392 53.9924 37.7813C53.6824 38.8682 53.4758 40.4726 54.6641 41.1455L55.5425 41.663C54.4058 40.9902 54.5608 39.2822 54.8708 38.1954C55.3358 36.6427 56.3175 35.297 57.6609 34.4172C57.6609 34.4172 57.8676 34.3654 58.0743 34.2619V34.3654Z" fill="#64798B"/>
<path d="M57.6609 34.5207C59.3659 33.5373 60.7093 34.3137 60.7093 36.2804C60.7093 38.1954 59.3659 40.5762 57.6609 41.5595C55.9558 42.5429 54.6124 41.7665 54.6124 39.7998C54.6124 37.8331 55.9558 35.5041 57.6609 34.5207Z" fill="#4B5860"/>
</g>
<defs>
<clipPath id="clip0_7_247">
<rect width="48" height="56" fill="white" transform="translate(31 22.9272)"/>
</clipPath>
</defs>
</svg>
