<svg width="111" height="104" viewBox="0 0 111 104" fill="none" xmlns="http://www.w3.org/2000/svg">
<rect width="110.507" height="103.663" rx="9" fill="#6F6F6F"/>
<g clip-path="url(#clip0_7_66)">
<path d="M75.1148 45.9289C75.1148 45.9289 77.3443 43.6148 78.0609 43.934C78.8173 44.2532 78.6581 45.0911 78.5785 45.5699C78.3794 46.5673 77.0656 48.8415 77.0656 48.8415C77.0656 48.8415 76.2295 48.7617 75.5129 47.5648C74.8361 46.3678 75.1148 45.9289 75.1148 45.9289Z" fill="#D124EA"/>
<path d="M87.178 54.3475C87.178 54.3475 75.0749 43.7346 69.7002 39.9842C61.6979 34.4384 54.8501 32.6828 52.0234 32.1642C48.9578 31.6056 47.2857 31.9647 46.9672 31.9647C46.3302 31.9647 45.9719 31.9647 45.9719 31.9647C45.9719 31.9647 41.1944 29.8501 37.0539 31.6056C34.1874 32.8025 28.3747 35.3959 26.6628 36.2737C22.9204 38.1888 23 40.463 23 41.6998V45.7295C23 45.7295 22.6019 50.7966 27.0211 53.8289C29.9274 55.8238 55.1686 70.8255 55.1686 70.8255C55.1686 70.8255 63.7682 75.294 67.192 76.092C70.6159 76.89 75.0351 77.648 79.2951 75.7728C81.6042 74.7754 86.7002 72.3815 89.9251 68.3119C92.0351 65.5988 91 57.3 87.178 54.3475Z" fill="#EF5AFF"/>
<path d="M68.6651 39.625C68.6651 39.625 66.4356 41.2608 61.5386 43.6148C57.2787 45.6895 51.3068 47.7243 51.3068 47.7243C51.3068 47.7243 54.6112 51.3152 58.4332 56.7812C59.9859 59.0155 62.4941 58.7761 64.0866 58.417C66.5948 57.8185 70.9742 55.4646 74.1592 53.6691C80.9274 49.8389 79.4145 48.243 79.4145 48.243C79.4145 48.243 76.3887 45.5698 74.4379 44.0138C71.5316 41.7396 69.7798 40.3831 68.6651 39.6649V39.625Z" fill="#546472"/>
<path d="M55.8057 58.3373C54.8103 55.9035 52.979 52.592 50.1921 49.5597C49.3162 48.6421 48.9181 48.0037 46.4497 46.1285C45.6534 45.53 44.7377 44.9715 43.8619 44.4927C43.7026 44.8119 43.1054 46.8866 42.9064 48.4027C42.7073 49.8789 42.6675 50.9163 42.6675 52.0334L55.4075 59.1353C55.4075 59.1353 56.2038 59.3348 55.8057 58.3373Z" fill="#546472"/>
<path d="M41.274 48.1633C41.6323 46.1684 42.2693 44.2932 42.4684 43.8543C40.9157 43.1361 40.2787 42.8169 39.5621 42.5775C38.2483 42.1786 36.3771 41.6599 34.0679 42.3781C31.6394 43.1361 31.5597 43.7745 31.4801 44.373C31.3607 45.1709 31.7986 45.53 31.7986 45.53L40.8759 51.1157C40.9555 50.5971 41.075 49.3203 41.2342 48.1633H41.274Z" fill="#546472"/>
<path d="M32.6347 38.7873C34.7447 38.7873 35.1429 38.9469 35.1429 38.9469C35.1429 38.9469 38.1288 36.9121 41.075 35.5157C46.7284 32.8026 50.5902 32.244 51.7447 32.1642C51.4262 32.1642 50.5504 31.7652 47.6839 31.845C46.2108 31.845 44.8572 32.1243 44.1405 32.2041C44.1405 32.2041 42.1499 32.4036 40.0398 33.1617C34.7447 35.0768 26.6628 39.4257 26.6628 39.4257C28.8525 39.0666 30.5246 38.8272 32.6347 38.8272V38.7873Z" fill="#546472"/>
<path d="M89.0094 56.502C89.0094 56.502 89.8455 57.6989 89.3279 60.412C89.2881 60.6913 89.5668 61.2498 89.9251 62.1675C90.1242 62.6862 90.5621 61.5291 90.5223 60.6514C90.4825 59.7337 89.8853 57.8186 89.0094 56.5419V56.502Z" fill="#CBCBCB"/>
<path d="M77.3841 67.8729C77.3841 67.8729 73.2435 67.5537 69.7002 66.7957L66.1569 66.0376C66.1569 66.0376 65.4403 66.0376 65.8782 67.5537C66.3161 69.0699 66.555 69.9476 68.6651 70.3466C71.2131 70.8254 75.0351 70.6259 75.0351 70.6259C75.0351 70.6259 76.8267 70.3067 77.1452 69.4688C77.4239 68.6709 77.4239 67.833 77.4239 67.833L77.3841 67.8729Z" fill="#CBCBCB"/>
<path d="M88.8899 62.1277C88.7705 62.2873 88.2131 63.1251 84.7494 65.3195C82.5199 66.7559 80.0913 67.7533 80.0913 67.7533L80.1709 69.9078C80.1709 69.9078 82.5995 69.07 85.466 66.9953C89.1686 64.362 89.2084 63.963 89.2084 63.963C89.2084 63.963 89.2084 63.6438 89.1288 63.0852C89.0093 62.6065 88.9297 62.1277 88.8899 62.1277Z" fill="#546472"/>
<path d="M89.6464 65.6786C89.6464 65.6786 88.8103 67.0351 85.5457 69.3093C83.2764 70.8653 80.5293 72.0623 80.5293 72.0623L80.6089 73.9375C80.6089 73.9375 82.2412 73.2592 85.1874 71.3441C88.5715 69.1896 89.6464 67.5139 89.8455 67.075C89.9251 66.9553 89.6464 65.6387 89.6464 65.6387V65.6786Z" fill="#546472"/>
<path d="M70.5363 73.339C70.5363 73.339 73.2435 74.0173 74.9953 74.2567C75.6721 74.3764 75.9508 74.3764 76.6674 74.6157C77.2248 74.8152 77.185 75.3339 76.8267 75.4536C74.7962 76.2117 71.8899 75.8526 71.0937 75.8127C70.2178 75.7329 70.0983 75.1743 70.0983 75.1743C70.0983 75.1743 69.8993 74.7354 69.7002 74.0572C69.5011 73.4587 69.9391 73.2193 70.5363 73.339Z" fill="#546472"/>
<path d="M69.2225 68.4715C69.2225 69.3493 69.7002 70.1073 70.377 70.5462C71.2927 70.626 72.2482 70.6659 73.0843 70.6659C73.8806 70.227 74.3981 69.3493 74.3981 68.3917C74.3981 68.1124 74.3185 67.7932 74.2389 67.5539C72.8852 67.3943 71.3325 67.1549 69.8197 66.8357C69.4613 67.2746 69.2623 67.873 69.2623 68.5114L69.2225 68.4715Z" fill="#878787"/>
<path d="M70.4169 68.5912C70.4169 69.1497 70.7354 69.6285 71.1335 69.9477C71.7307 69.9876 72.3677 70.0275 72.8853 70.0275C73.4028 69.7482 73.7213 69.1896 73.7213 68.5513C73.7213 68.3518 73.6815 68.1922 73.6019 67.9927C72.726 67.873 71.7307 67.7134 70.7752 67.5139C70.5363 67.7932 70.4169 68.1922 70.4169 68.5912Z" fill="white"/>
<path d="M51.7049 48.1634C51.7049 48.1634 47.9625 43.9741 41.9508 41.1413C36.815 38.7075 32.9134 38.7075 31.7986 38.7075C30.6839 38.7075 26.6628 39.3858 26.6628 39.3858L29.0914 38.4681C29.0914 38.4681 32.9532 37.6303 37.8103 38.907C40.3583 39.5853 45.0562 41.5004 49.1569 44.8119C52.7002 47.6846 52.1827 47.924 52.1827 47.924L51.7447 48.1235L51.7049 48.1634Z" fill="#546472"/>
<path d="M68.6253 40.1038C68.6253 40.1038 65.5199 37.4306 58.9508 34.7575C55.089 33.1615 51.4661 32.2838 50.3911 32.2439C49.3162 32.2439 48.8782 32.2439 48.8782 32.2439L50.8291 31.9646C50.8291 31.9646 51.9438 32.0843 53.8946 32.6429C56.4426 33.361 61.8572 35.316 66.3162 38.0291C67.4309 38.7074 68.6651 39.5851 68.6651 39.5851V40.024L68.6253 40.1038Z" fill="#546472"/>
<g style="mix-blend-mode:multiply" opacity="0.1">
<path d="M79.2951 75.7728C81.6042 74.7754 87.4965 71.7032 89.9251 68.3119C90.8009 67.075 91.2389 64.8008 90.9204 62.367C90.8009 63.7236 90.0047 64.6811 89.0094 65.5988C82.0023 72.2618 75.2342 72.1022 72.6862 72.1022C70.1382 72.1022 66.0375 70.7456 66.0375 70.7456C66.0375 70.7456 63.7682 67.1149 61.3396 65.2796C57.4778 62.3271 55.1288 62.6862 55.1288 62.6862C55.1288 62.6862 25.8665 44.373 23.9157 41.9791C23.2787 41.1811 23.2389 40.7023 23.1194 40.3433C23.0796 40.6225 23 41.4604 23 41.6998V45.7295C23 45.7295 22.6019 50.7966 27.0211 53.8288C27.9766 54.4672 31.2412 56.4621 35.2225 58.8959C43.5831 63.963 55.1686 70.8254 55.1686 70.8254C55.1686 70.8254 63.4098 75.2142 66.8337 76.0122C70.2576 76.8102 75.0351 77.648 79.2951 75.7728Z" fill="#231F20"/>
</g>
<g style="mix-blend-mode:multiply" opacity="0.1">
<path d="M88.6909 55.9834C89.1686 57.1404 89.4871 59.255 88.3724 60.7712C88.3724 60.7712 88.3724 60.8111 88.3326 60.851C87.2178 62.3272 84.8291 64.2024 80.6487 66.1973C79.5738 66.716 78.3794 67.0352 77.1452 67.1948C76.8267 67.2347 76.548 67.2746 76.2295 67.3145C71.2928 67.7134 66.1569 66.1175 66.1569 66.1175C66.1569 66.1175 71.2529 70.0674 72.2881 70.4664C73.0843 70.7856 74.4379 70.7856 74.4379 70.7856C74.4379 70.7856 76.9063 71.025 80.2108 69.9078C83.555 68.8306 88.0539 65.2398 89.2084 64.0428C90.0843 63.1252 90.6019 62.2075 90.7611 61.2101C90.4028 59.3348 89.726 57.4596 88.6909 56.0233V55.9834Z" fill="#231F20"/>
</g>
<path d="M35.0234 57.2999C34.6253 55.5843 34.2271 54.2676 32.6346 51.8737C30.644 48.8415 28.4145 47.9637 26.822 48.8415C25.2693 49.6793 25.8665 52.3525 25.8665 52.3525L26.0656 53.0308C27.2997 53.9086 32.356 57.4994 35.2623 58.8559C35.1827 58.3372 35.1428 57.8984 35.0234 57.26V57.2999Z" fill="#231F20"/>
<path d="M29.8477 49.0808C29.8477 49.0808 28.6136 48.5223 27.4988 49.6793C26.2646 50.956 26.185 52.9509 26.9414 55.1054C27.658 57.2599 29.0117 58.816 30.2857 59.6538C31.5995 60.4917 32.7143 60.2922 33.3513 60.1725C34.3466 60.0129 35.2225 58.8559 35.2225 58.8559C35.2225 58.8559 35.0632 54.5868 32.1569 51.1555C30.8829 49.5995 29.8477 49.0808 29.8477 49.0808Z" fill="#546472"/>
<path d="M30.644 51.5545C31.8782 52.552 32.9133 55.2251 33.0726 56.5019C33.2318 57.7786 32.8337 58.6564 31.9578 59.0155C31.0819 59.3745 29.2904 58.5367 28.2552 56.8211C27.2201 55.0655 27.1803 53.31 27.2201 52.4323C27.2201 51.4747 28.2154 49.5995 30.6838 51.5545H30.644Z" fill="#CBCBCB"/>
<path d="M30.0468 54.7465C30.1663 55.0657 30.0468 55.345 29.8876 55.4248C29.6885 55.5046 29.4496 55.3051 29.3302 54.9859C29.2108 54.6667 29.3302 54.3874 29.4894 54.3076C29.6885 54.2278 29.9274 54.4273 30.0468 54.7465Z" fill="#546472"/>
<path d="M66.2764 74.2567C65.5996 72.5012 64.9626 71.1447 62.8923 68.8705C60.3045 65.9978 57.0398 65.3195 56.0445 66.3569C54.7307 67.7134 55.6464 70.6659 55.6464 70.6659L55.8455 71.1447C57.2787 71.8628 63.5293 74.9749 66.8338 75.9723C66.6745 75.4138 66.5153 74.8951 66.2764 74.2168V74.2567Z" fill="#231F20"/>
<path d="M59.4684 66.3967C59.4684 66.3967 58.1546 65.9578 57.1593 67.3542C56.0445 68.9103 56.2834 71.0249 57.3981 73.1794C58.5129 75.3738 60.185 76.8101 61.6581 77.4884C63.171 78.1666 64.3255 77.7676 65.0023 77.5682C66.2365 77.1692 66.8337 75.9722 66.8337 75.9722C66.8337 75.9722 65.918 71.3839 62.3349 68.1921C60.7424 66.7558 59.4684 66.3568 59.4684 66.3568V66.3967Z" fill="#546472"/>
<path d="M60.7822 68.8705C62.2553 69.7482 63.7682 72.3815 64.1265 73.738C64.4848 75.0946 64.445 76.2117 63.5691 76.7703C62.6932 77.289 60.4239 76.5309 59.0703 74.8153C57.6768 73.0997 57.1194 71.1048 57.1194 70.1871C57.1194 69.2695 57.9157 67.1549 60.7822 68.8705Z" fill="#CBCBCB"/>
<path d="M60.623 72.3415C60.7822 72.6607 60.7424 72.9799 60.5434 73.0996C60.3443 73.2193 60.0656 73.0198 59.9064 72.7405C59.7471 72.4213 59.7869 72.1022 59.986 71.9825C60.1851 71.8628 60.4637 72.0623 60.623 72.3415Z" fill="#546472"/>
<g opacity="0.3">
<path d="M52.541 51.3552C49.5551 47.3654 45.3747 44.2932 42.6675 42.8968C41.712 42.418 38.3677 40.8221 34.7846 41.4205C31.5597 41.9392 29.8876 43.9341 29.7284 45.0912C29.6886 45.4503 29.6089 47.525 29.7284 48.0037C29.808 48.4825 30.3256 48.8815 30.7237 49.2007C31.7986 49.9986 32.5551 50.637 33.5504 52.2329C34.4263 53.6294 35.1429 55.7041 35.4614 57.7788C35.5808 58.5368 35.6206 58.9757 35.6206 59.1752C35.6604 59.1752 35.7401 59.2151 35.7799 59.255C35.7799 59.0156 35.7799 58.5767 35.6206 57.7389C35.2623 55.6243 34.5457 53.5496 33.6698 52.1531C32.6745 50.5173 31.8782 49.879 30.8033 49.081C30.4052 48.8017 29.9274 48.4027 29.8478 48.0037C29.7682 47.5649 29.8478 45.4503 29.8478 45.1311C29.9672 43.974 31.7588 42.0988 34.7448 41.5801C38.2483 40.9817 41.5925 42.5776 42.5082 43.0564C45.1757 44.4528 49.356 47.525 52.3021 51.4749C55.6066 55.9036 56.5223 59.5343 56.5223 59.5742C56.6019 60.0131 56.3232 60.3722 55.9649 60.811C55.6464 61.21 55.2085 61.6888 55.0094 62.407C54.0141 65.3594 54.253 68.9104 54.452 70.4664C54.4918 70.4664 54.5715 70.5462 54.6113 70.5462C54.452 69.0301 54.1733 65.4392 55.1686 62.407C55.4075 61.7287 55.7658 61.2499 56.1241 60.8509C56.4825 60.4121 56.8408 60.0131 56.7213 59.4944C56.7213 59.4944 55.8056 55.8238 52.4614 51.3552H52.541Z" fill="#231F20"/>
</g>
<g opacity="0.3">
<path d="M41.1148 54.5072C41.1148 53.4299 41.7119 52.1133 41.7119 52.1133C41.7119 52.0734 41.8314 49.3204 42.3091 46.9265C42.6276 45.4503 43.1054 44.1736 43.3841 43.4155L43.2646 43.3357C42.9461 44.0938 42.4684 45.3705 42.1499 46.8866C41.6721 49.2007 41.5527 51.834 41.5527 52.0335C41.4731 52.1931 40.9555 53.39 40.9555 54.4673V54.6668C40.9555 58.3374 41.3536 61.1303 42.2295 63.0853C42.3091 63.1252 42.3888 63.1651 42.4684 63.205C41.5527 61.2899 41.1148 58.4172 41.1148 54.6668V54.4673V54.5072Z" fill="#231F20"/>
</g>
<g style="mix-blend-mode:multiply" opacity="0.1">
<path d="M80.1311 66.3967C80.1311 66.3967 77.623 66.6361 74.2389 65.878C68.0679 64.4816 63.0117 61.8882 60.5433 59.9332C58.3536 58.1777 57.1194 56.2626 54.6112 53.1505C52.0632 50.0385 46.0117 40.2634 33.4309 40.2634C20.8501 40.2634 26.185 41.4205 26.9415 43.2159C26.9415 43.2159 27.6183 44.2931 33.829 48.1633C37.8899 50.6768 53.8946 59.5342 54.6909 60.0529C58.911 62.6862 66.7541 66.4366 67.7892 66.4366C68.8244 66.4366 66.1569 65.7184 63.8876 64.2821C60.6628 62.2473 60.0656 61.2897 60.2646 61.0903C60.2646 61.0903 64.3653 63.4841 69.8197 65.6386C73.4824 67.075 76.1897 67.3144 76.3888 67.3144C78.459 67.1548 80.1311 66.4366 80.1311 66.4366V66.3967Z" fill="#231F20"/>
</g>
<g style="mix-blend-mode:multiply" opacity="0.1">
<path d="M87.5363 55.5045C86.8197 54.5071 85.9836 53.5096 85.2272 52.6718C84.4707 52.0334 83.5152 51.2354 82.5199 50.3577C82.9976 50.7965 86.3419 54.0283 87.4567 56.5818C88.9695 60.013 87.1382 62.0877 87.1382 62.0877C87.1382 62.0877 88.014 61.3297 88.3724 60.7711C89.2084 59.4544 88.8103 57.26 87.5363 55.5045Z" fill="#231F20"/>
</g>
<path d="M43.8618 56.9807C43.8618 57.26 43.4637 57.1004 43.2647 56.9807L42.3888 56.4621C42.0703 56.2227 41.911 55.9434 41.911 55.7838C41.8314 55.3449 42.3092 55.6641 42.5082 55.7838L43.3443 56.3025C43.5433 56.4222 43.9017 56.7015 43.9017 56.9009V57.0206L43.8618 56.9807Z" fill="#EF5AFF"/>
<path d="M33.9485 50.198C33.9485 50.4773 33.5503 50.3177 33.3513 50.198L32.4754 49.6794C32.1569 49.44 31.9976 49.1607 31.9976 49.0011C31.918 48.5622 32.3958 48.8814 32.5948 49.0011L33.4309 49.5198C33.63 49.6395 33.9883 49.9187 33.9883 50.1182V50.2379L33.9485 50.198Z" fill="#EF5AFF"/>
<path d="M52.3817 57.26H53.6557C53.6557 57.26 53.7354 56.8212 53.7752 56.4621C53.7752 55.8237 53.9742 54.5869 54.1733 55.0257C54.4122 55.4247 55.0094 56.5419 55.6464 57.9782C56.1639 59.215 55.8056 59.2948 55.0492 59.0156C54.7307 58.8959 54.0141 58.5368 54.0141 58.5368L52.1827 58.457L52.3419 57.26H52.3817Z" fill="#6E7F89"/>
<path d="M51.2272 55.8636C51.2272 55.8636 47.6838 57.1802 47.6838 57.9782C47.6838 58.7761 48.7986 58.7761 49.3162 58.8958C50.4309 59.1352 53.377 58.8958 53.377 58.8958C53.377 58.8958 54.2529 58.816 53.0187 56.9009C52.0632 55.4247 51.1874 55.9035 51.1874 55.9035L51.2272 55.8636Z" fill="#E23DF9"/>
<path d="M53.0585 56.8611C52.103 55.3849 51.2272 55.8637 51.2272 55.8637C51.2272 55.8637 48.4801 56.901 47.8431 57.6591C48.0421 58.2975 49.0375 58.1778 49.5152 58.2177C50.5503 58.2975 53.1382 57.7389 53.4965 57.699C53.377 57.4596 53.2576 57.1803 53.0187 56.8611H53.0585Z" fill="#EF5AFF"/>
</g>
<defs>
<clipPath id="clip0_7_66">
<rect width="68" height="47" fill="white" transform="translate(23 30.9272)"/>
</clipPath>
</defs>
</svg>
