<svg width="93" height="29" viewBox="0 0 93 29" fill="none" xmlns="http://www.w3.org/2000/svg">
<path d="M34.829 15.093C34.723 14.7067 34.5676 14.3449 34.3631 14.0078C34.1586 13.6669 33.9048 13.3695 33.6017 13.1157C33.3025 12.8582 32.9559 12.6574 32.562 12.5135C32.1718 12.3695 31.7362 12.2976 31.2551 12.2976C30.4976 12.2976 29.8195 12.4945 29.2211 12.8885C28.6226 13.2824 28.1491 13.8506 27.8006 14.593C27.4559 15.3354 27.2836 16.2294 27.2836 17.2748C27.2836 18.3165 27.4578 19.2085 27.8063 19.951C28.1548 20.6934 28.632 21.2635 29.2381 21.6612C29.848 22.0551 30.5449 22.2521 31.329 22.2521C32.0449 22.2521 32.6775 22.093 33.2267 21.7748C33.776 21.4567 34.204 21.0021 34.5108 20.4112C34.8214 19.8203 34.973 19.1176 34.9654 18.3032L35.3063 18.4112H31.579V17.4567H35.9995V18.4112C35.9995 19.4036 35.7987 20.2616 35.3972 20.9851C34.9957 21.7085 34.4445 22.2673 33.7438 22.6612C33.043 23.0551 32.2381 23.2521 31.329 23.2521C30.3139 23.2521 29.4256 23.0078 28.6642 22.5192C27.9029 22.0267 27.3101 21.3335 26.8858 20.4396C26.4654 19.5419 26.2551 18.487 26.2551 17.2748C26.2551 16.362 26.3764 15.5381 26.6188 14.8032C26.8612 14.0684 27.204 13.4396 27.6472 12.9169C28.0942 12.3942 28.6226 11.9945 29.2324 11.718C29.8423 11.4377 30.5165 11.2976 31.2551 11.2976C31.8915 11.2976 32.473 11.3979 32.9995 11.5987C33.5298 11.7995 33.9957 12.076 34.3972 12.4282C34.8025 12.7767 35.1339 13.1801 35.3915 13.6385C35.6529 14.093 35.829 14.5779 35.9199 15.093H34.829ZM41.8191 23.2748C41.0653 23.2748 40.3986 23.0835 39.8191 22.701C39.2433 22.3184 38.7926 21.79 38.4668 21.1157C38.141 20.4377 37.9782 19.6555 37.9782 18.7692C37.9782 17.8752 38.141 17.0892 38.4668 16.4112C38.7926 15.7294 39.2433 15.1991 39.8191 14.8203C40.3986 14.4377 41.0653 14.2464 41.8191 14.2464C42.5729 14.2464 43.2376 14.4377 43.8134 14.8203C44.3891 15.2029 44.8399 15.7332 45.1657 16.4112C45.4952 17.0892 45.66 17.8752 45.66 18.7692C45.66 19.6555 45.4971 20.4377 45.1713 21.1157C44.8456 21.79 44.3929 22.3184 43.8134 22.701C43.2376 23.0835 42.5729 23.2748 41.8191 23.2748ZM41.8191 22.3487C42.4251 22.3487 42.9384 22.1858 43.3588 21.8601C43.7793 21.5343 44.0975 21.1006 44.3134 20.5589C44.5331 20.0173 44.6429 19.4207 44.6429 18.7692C44.6429 18.1176 44.5331 17.5192 44.3134 16.9737C44.0975 16.4282 43.7793 15.9907 43.3588 15.6612C42.9384 15.3317 42.4251 15.1669 41.8191 15.1669C41.2168 15.1669 40.7035 15.3317 40.2793 15.6612C39.8588 15.9907 39.5388 16.4282 39.3191 16.9737C39.1032 17.5192 38.9952 18.1176 38.9952 18.7692C38.9952 19.4207 39.1032 20.0173 39.3191 20.5589C39.5388 21.1006 39.8588 21.5343 40.2793 21.8601C40.6998 22.1858 41.213 22.3487 41.8191 22.3487ZM52.5904 23.093V11.4567H56.5165C57.2741 11.4567 57.9048 11.5892 58.4086 11.8544C58.9161 12.1195 59.2968 12.4813 59.5506 12.9396C59.8044 13.3979 59.9313 13.9188 59.9313 14.5021C59.9313 14.987 59.8498 15.4017 59.687 15.7464C59.5241 16.0911 59.3025 16.3695 59.0222 16.5817C58.7419 16.7938 58.4294 16.9472 58.0847 17.0419V17.1328C58.4597 17.1593 58.8233 17.2919 59.1756 17.5305C59.5279 17.7654 59.8176 18.0949 60.0449 18.5192C60.2722 18.9434 60.3858 19.451 60.3858 20.0419C60.3858 20.629 60.2551 21.1536 59.9938 21.6157C59.7324 22.0741 59.3309 22.4358 58.7892 22.701C58.2514 22.9623 57.5658 23.093 56.7324 23.093H52.5904ZM53.6529 22.1385H56.7324C57.6301 22.1385 58.293 21.9396 58.7211 21.5419C59.1529 21.1442 59.3688 20.6442 59.3688 20.0419C59.3688 19.5987 59.2608 19.1972 59.0449 18.8373C58.8328 18.4737 58.5317 18.1858 58.1415 17.9737C57.7551 17.7616 57.3006 17.6555 56.7779 17.6555H53.6529V22.1385ZM53.6529 16.7123H56.6131C57.0714 16.7123 57.473 16.6176 57.8176 16.4282C58.1623 16.2389 58.4313 15.9775 58.6245 15.6442C58.8176 15.3108 58.9142 14.9301 58.9142 14.5021C58.9142 13.8847 58.7135 13.3828 58.312 12.9964C57.9105 12.6063 57.312 12.4112 56.5165 12.4112H53.6529V16.7123ZM65.177 23.2919C64.6505 23.2919 64.1694 23.1896 63.7338 22.9851C63.2982 22.7767 62.9516 22.4775 62.6941 22.0873C62.4365 21.6934 62.3077 21.2161 62.3077 20.6555C62.3077 20.2237 62.3891 19.8601 62.552 19.5646C62.7149 19.2692 62.946 19.0267 63.2452 18.8373C63.5444 18.6479 63.8986 18.4983 64.3077 18.3885C64.7168 18.2786 65.1676 18.1934 65.66 18.1328C66.1486 18.0722 66.5615 18.0192 66.8986 17.9737C67.2395 17.9282 67.499 17.8563 67.677 17.7578C67.8551 17.6593 67.9441 17.5002 67.9441 17.2805V17.076C67.9441 16.4813 67.766 16.0135 67.41 15.6726C67.0577 15.3279 66.5501 15.1555 65.8873 15.1555C65.2585 15.1555 64.7452 15.2938 64.3475 15.5703C63.9535 15.8468 63.677 16.1726 63.5179 16.5476L62.5577 16.201C62.7547 15.7237 63.0274 15.343 63.3759 15.0589C63.7244 14.771 64.1145 14.5646 64.5463 14.4396C64.9782 14.3108 65.4157 14.2464 65.8588 14.2464C66.1922 14.2464 66.5388 14.29 66.8986 14.3771C67.2623 14.4642 67.5994 14.6157 67.91 14.8317C68.2206 15.0438 68.4725 15.3411 68.6657 15.7237C68.8588 16.1025 68.9554 16.5835 68.9554 17.1669V23.093H67.9441V21.7123H67.8816C67.7604 21.9699 67.5804 22.2199 67.3418 22.4623C67.1032 22.7048 66.8039 22.9036 66.4441 23.0589C66.0842 23.2142 65.6619 23.2919 65.177 23.2919ZM65.3134 22.3657C65.8513 22.3657 66.3172 22.2464 66.7111 22.0078C67.1051 21.7692 67.4081 21.4529 67.6202 21.0589C67.8361 20.6612 67.9441 20.2237 67.9441 19.7464V18.4851C67.8683 18.557 67.7414 18.6214 67.5634 18.6782C67.3891 18.7351 67.1865 18.7862 66.9554 18.8317C66.7282 18.8733 66.5009 18.9093 66.2736 18.9396C66.0463 18.9699 65.8418 18.9964 65.66 19.0192C65.1676 19.0798 64.7471 19.1745 64.3986 19.3032C64.0501 19.432 63.7831 19.6101 63.5975 19.8373C63.4119 20.0608 63.3191 20.3487 63.3191 20.701C63.3191 21.2313 63.5085 21.6423 63.8873 21.9339C64.266 22.2218 64.7414 22.3657 65.3134 22.3657ZM75.0549 23.2748C74.2746 23.2748 73.5946 23.0798 73.0151 22.6896C72.4393 22.2995 71.9924 21.7654 71.6742 21.0873C71.356 20.4093 71.1969 19.6366 71.1969 18.7692C71.1969 17.8942 71.3579 17.1157 71.6799 16.4339C72.0056 15.7521 72.4564 15.218 73.0321 14.8317C73.6079 14.4415 74.2765 14.2464 75.0378 14.2464C75.6212 14.2464 76.1496 14.3601 76.623 14.5873C77.0965 14.8108 77.4867 15.1271 77.7935 15.5362C78.1041 15.9415 78.2992 16.415 78.3787 16.9567H77.356C77.2499 16.4642 76.9943 16.0438 76.589 15.6953C76.1874 15.343 75.6761 15.1669 75.0549 15.1669C74.498 15.1669 74.0056 15.3184 73.5776 15.6214C73.1496 15.9207 72.8143 16.3392 72.5719 16.8771C72.3333 17.4112 72.214 18.0305 72.214 18.7351C72.214 19.4434 72.3314 20.0703 72.5662 20.6157C72.8011 21.1574 73.1306 21.5817 73.5549 21.8885C73.9829 22.1953 74.4829 22.3487 75.0549 22.3487C75.4412 22.3487 75.7935 22.2767 76.1117 22.1328C76.4337 21.9851 76.7026 21.7767 76.9185 21.5078C77.1382 21.2389 77.2859 20.9188 77.3617 20.5476H78.3844C78.3087 21.0741 78.1212 21.5438 77.8219 21.9567C77.5265 22.3657 77.142 22.6877 76.6685 22.9226C76.1988 23.1574 75.6609 23.2748 75.0549 23.2748ZM81.4725 19.7976L81.4611 18.4737H81.6884L85.7793 14.3657H87.0577L83.0179 18.4112L82.927 18.4282L81.4725 19.7976ZM80.552 23.093V11.4567H81.5634V23.093H80.552ZM85.9895 23.093L82.4441 18.6101L83.1713 17.9112L87.285 23.093H85.9895Z" fill="#A9A9A9"/>
<g clip-path="url(#clip0_174_896)">
<path d="M1.92876 29C1.85163 29 1.73595 28.9612 1.65883 28.9224C0.116371 28.4955 -0.500612 26.7101 0.463423 25.3905C1.5817 23.8769 2.69998 22.3632 3.81826 20.8495C4.82086 19.4911 5.82346 18.1327 6.82605 16.7743C6.94174 16.6191 6.94174 16.5026 6.94174 16.3474C6.74893 14.9501 6.55612 13.5529 6.36332 12.1557C6.36332 12.0393 6.36332 11.9228 6.28619 11.7676C6.13195 12.1169 5.9777 12.4274 5.86202 12.7379C5.78489 12.9707 5.63065 13.126 5.43784 13.2424C4.66662 13.7082 3.85683 14.2127 3.0856 14.7173C2.69998 14.9501 2.54574 15.3771 2.62286 15.804C2.73855 16.2309 3.04704 16.5414 3.50977 16.5802C3.7797 16.5802 3.97251 16.5414 4.20388 16.3862C4.58949 16.1533 4.93654 15.9204 5.32216 15.6876C5.63065 15.4935 5.90058 15.5323 6.01626 15.7652C6.17051 15.9981 6.09339 16.2697 5.78489 16.4638C5.39928 16.6967 5.01367 16.9684 4.62805 17.2012C3.70258 17.7446 2.54574 17.4729 1.96732 16.5802C1.42746 15.6876 1.69739 14.5232 2.62286 13.941C3.35553 13.4753 4.08819 13.0095 4.82086 12.5826C4.97511 12.505 5.05223 12.3886 5.09079 12.2721C5.2836 11.7676 5.51497 11.263 5.74633 10.7585C5.93914 10.3315 6.05482 9.9046 6.13195 9.43886C6.32475 7.76995 7.94433 6.99371 9.3711 7.88638C9.52535 8.00282 9.71816 8.11925 9.8724 8.2745C10.9521 9.28361 12.0318 10.3315 13.1116 11.3795C13.5357 11.7676 13.8442 12.2721 14.037 12.8155C14.4998 14.1739 15.0011 15.5323 15.4638 16.8907C15.888 18.1327 15.3096 19.4135 14.1142 19.8404C12.9188 20.2674 11.6848 19.6464 11.2221 18.3656C10.7979 17.2012 10.4123 15.9981 10.0266 14.8337C9.98809 14.6785 9.8724 14.5232 9.75672 14.4068C9.29398 13.9798 8.86981 13.5529 8.40707 13.126C8.1757 12.8931 8.13714 12.6214 8.32995 12.4274C8.52275 12.2333 8.79268 12.2333 9.02405 12.4662C9.52535 12.9319 10.0266 13.4365 10.5279 13.941C10.6436 14.0575 10.7208 14.2127 10.7979 14.368C11.2221 15.6099 11.6462 16.8907 12.0704 18.1327C12.3018 18.8313 12.9573 19.2194 13.6129 19.0642C14.4226 18.909 14.8854 18.1327 14.654 17.3177C14.1527 15.8816 13.6514 14.4456 13.1501 13.0095C13.0344 12.6602 12.8031 12.3497 12.5331 12.0781C11.4534 11.0301 10.3737 10.021 9.29398 8.97312C9.1783 8.85668 9.02405 8.74024 8.86981 8.66262C8.02146 8.19688 7.25023 8.62381 7.05742 9.55529C6.9803 10.0987 7.05742 10.6032 7.13454 11.1466C7.40447 12.9707 7.63584 14.7949 7.90577 16.6191C7.90577 16.8907 7.90577 17.0848 7.71296 17.2789C5.59209 20.1897 3.43265 23.1006 1.31177 25.9727C1.04184 26.3608 0.887598 26.7489 0.964721 27.2147C1.08041 27.7581 1.42746 28.1074 1.96732 28.2238C2.54574 28.3402 3.00847 28.1462 3.35553 27.7192C4.01107 26.8654 4.66661 25.9727 5.32216 25.1188C6.63325 23.4111 7.90577 21.6646 9.21686 19.9569C9.21686 19.9569 9.21686 19.9569 9.21686 19.9181C9.40967 19.6464 9.6796 19.6076 9.91096 19.7628C10.1423 19.9181 10.1423 20.1897 9.94952 20.4614C9.56391 20.966 9.21686 21.4705 8.83124 21.9363C8.71556 22.0915 8.677 22.2468 8.677 22.4796C8.71556 22.9842 8.94693 23.3723 9.29398 23.7216C10.6436 25.08 11.9933 26.4773 13.3815 27.8357C13.8828 28.3402 14.6155 28.4179 15.1553 28.0297C15.8109 27.5252 15.888 26.5937 15.3096 25.9727C14.6155 25.2741 13.9213 24.5755 13.2272 23.8381C12.6874 23.2947 12.109 22.7125 11.5691 22.1691C11.4149 22.0139 11.2992 21.8198 11.2992 21.587C11.2992 21.3541 11.2221 21.1212 11.1835 20.8495C11.1835 20.539 11.2992 20.345 11.5691 20.3062C11.839 20.2674 12.0704 20.4226 12.0704 20.7331C12.0704 21.3153 12.3789 21.7034 12.7645 22.0915C13.8442 23.1394 14.9239 24.2262 15.9651 25.3129C17.0448 26.4385 16.7363 28.185 15.3867 28.8836C15.1553 29 14.9239 29.0388 14.6926 29.1553H14.037C13.5357 29 13.073 28.806 12.7259 28.4179C11.4149 27.0594 10.0652 25.701 8.71556 24.3814C8.36851 24.0321 8.06002 23.6828 7.90577 23.2171C7.79009 23.2559 7.75153 23.3335 7.71296 23.4111C6.59468 24.886 5.51497 26.322 4.43525 27.7969C3.97251 28.4567 3.43265 29 2.62286 29.1941H1.96732L1.92876 29Z" fill="#EF5AFF"/>
<path d="M6.70874 6.37274C5.01204 6.37274 3.62383 4.97551 3.62383 3.26779C3.58527 1.56007 4.97348 0.162842 6.67018 0.162842C8.36688 0.162842 9.75509 1.52126 9.79365 3.26779C9.79365 4.97551 8.40544 6.37274 6.70874 6.41155V6.37274ZM6.70874 5.44125C7.94271 5.44125 8.90674 4.47096 8.90674 3.22898C8.90674 2.02581 7.94271 1.0167 6.70874 1.0167C5.51334 1.0167 4.5493 1.987 4.51074 3.19017C4.51074 4.39333 5.47478 5.40244 6.70874 5.40244V5.44125Z" fill="#EF5AFF"/>
</g>
<defs>
<clipPath id="clip0_174_896">
<rect width="16.5814" height="28.8372" fill="white" transform="translate(0 0.162842)"/>
</clipPath>
</defs>
</svg>
